<mxfile host="app.diagrams.net" agent="Mozilla/5.0 (Windows NT 10.0; Win64; x64) AppleWebKit/537.36 (KHTML, like Gecko) Chrome/138.0.0.0 Safari/537.36 Edg/138.0.0.0" version="28.1.0">
  <diagram name="Strona-1" id="Tjj9iDN-8jJTGVVvpg6r">
    <mxGraphModel dx="2592" dy="1118" grid="1" gridSize="10" guides="1" tooltips="1" connect="1" arrows="1" fold="1" page="1" pageScale="1" pageWidth="827" pageHeight="1169" math="0" shadow="0">
      <root>
        <mxCell id="0" />
        <mxCell id="1" parent="0" />
        <mxCell id="3NOGvvGHzMsO75DAE7qi-1" value="" style="shape=image;verticalLabelPosition=bottom;labelBackgroundColor=default;verticalAlign=top;aspect=fixed;imageAspect=0;image=data:image/webp,UklGRlJfAABXRUJQVlA4IEZfAABwVgGdASrCAZEBPk0ijUUioiET+w18KATEs7dwtic4OYFSpVD9zjM3opffacxXjP8PvL/U6/odYNtQNY31n+C/zf/V/yHuYY6+zzUU+c/jf+b/h/aj/Yf+Pw3+YmoR+W/0z/a/3/2AYD3X/7/0C/fj8F/3v8l6uH6PnF9tvYC/p/+D/7/sJ/4/DR9c9gP9bejf/8f7/0W/Wn/1/13wG/0T/A/9j/EdsP96///7yP7hf////mrVgu4rOLv/5Rp1jv9dcVkaFDjP6gXkwNCcTicTicTicTicTiQszWkdIEoEkv52w2GkhVAoXhKSs/NuabXmBsQGp0Z6pgQyEsDK7yjdr4GQ4shfaqYrM+QMw5D6cViGUh6kjAA6L6dRKDF93HKitShbIM8L/u9SZ/ivAeaTCf8+85CigEATqIDMY1HOWbf3tVMVmfIFkiQwyKbua8p+nPidoS/HcB/PVknHU37rHJgpq0i6NpHO9Qh5x2Qjtj/pIzh243DHSnCMwp5bJP6a8fRfaERoHF85cEoJK/SvKURpZk3vcn7JfZZAOg7dRUxuRzUxqlk65OyZiiLM14xJNFSr+tfGqLVtmONOtvqxCoAALwcqv/MH/R3IZ13VcVqKGM6srgyh2N4Z8cBUFNZ58pvd7fkCqtpGkfVeZ9Ogg8mey/1KQ6I1orqWy8YvohGkzMynIu5so5YcaMRhXSw1V5x2rMetNBcbTaMaas109u2/45f4mD7spr2usaK2tKWp49+m59CAv0rHIKNWnMLGB8MZP0wunjP6i3DGd6u1K1FAu2D/L32ZEjyYbwL5RUuBOwJVaiOyKyucR8dvviK5xKmUR+LGFMTpx49ctdBGgxC6fL0pP1WoeiuyPqIbt+0e6hxBsYKynmYCI/eT+fF4rHKrpGCXjazTHIpLkN7UwEFtkuHyZ+eumXMtQMGnHz/KLZ6UMx8eFefuG5TmYpkf7xGuWsqQmbeKItHkoFyG9zeM4SaEphH9OX4SHD+I+nFN+uAau4H/Z9z11El7Agre+qEWISKhUc+v1lCZHpU5YFrUe6hxUNUvvmunLo/mPm/4aAAvRNFPuZVyyGbpAcgCETeSvSfrnObY07MFD0bdmVq89Q8H5C5Tqti6Cxn17R6IOpQ/BAnXm2iOvL4p/9Nd16QFbPy0+BD52HNamhev/rTlWHIkFhfiTa8pc18biL7goyT24kCFOiZhiRJiyc9R7qHXkhmWzl5zV0hccTg1+ObcpXecUBGBX3tQfoSoDhkKTJiYaQGOgL2Xv+7+7rAvEMGe7Y2NGsGo7mE8ch7jJDvhItNF9OiESn/wsmsHy2dLVCfQhfUlcBHLfSC3P7Zsvbw5vrEvPN4cR2v5wUw9xj0sEpzf6zAwpdnmHRNzxqR45isIf+6CcEyvXdBz7V9CzCMKc+IQEJDQ3p0jseiDp91U3+qoXsiTJFM3IVa/ehBAzk4c8N8b1hkieednbRn2VjFstMM90+VcKk+sNdBKHKgIReRpIs3Gn8nbJyG33QflSy4tNTZVF3TDl9eGOq+X7Lh5NCVxxHE0apT+rpU4LFORjIwBInSTZwChAJaRO63WBFJVy5M4TqISty5xYCfuIeGjkKLjwRs3pLju15NYPbgk8/qY0XWTLIZdUiIc84Cra94LpjqQT5uwr2bsUfRYpOhh46zCcHlS04zAqbcBuqdWr9ojrURkKrwHhC9lFQcrOr+jsxUEJIFlP6U8WZeorugfH7wOrQ3vlNzQ2P9WcfhSd0DEKMK62xBXjOE3s+MJ/2dvlZBj2VIZLfEP3AqkdD2e/p4hYI30uzXN7eGzrQoI6+UX2VyKVBZ/5X5md2ezjP7iWODI5JWOvcSmdHWM5Nnig/l0JB+KmeAX0j/cjGAf9CWjr5+8bPaa9U6B4ZD5NG21QrpAF0P2Lm97Q5oxGagg3MicnfbJ4ikzXhFesg7/Dt1ZECi6nzSWGIMo1PiT0maFkMZN1PiE5OW5TOpYOang8uBxWQC7Re0Nl6IPr9kDutvkIm9e+aTOVueSsbvi4ZKhuJHMxVnz8pXlGFJ9BRVoxnpo5Jme7hvy24fgGPlGCISVA13AeUOWgSl7KoN+k0wIV8nX/zQQpyE7O+Sfp8WUbw0lRDBmuGe0AvZP/KJ7oxd8mjQ0lSZP3KcIzgE4w2Iuaua+yhkAyfLKJqVDRZQigt1bHANi+KdYNYoXv4OSq1MC67tDfJJ+0LkGH02jyIDNSnWLbTu0i3QRPUwZYzsFGzSCBOZ9K2ih+rjARqlN/tRV2m2ermkEeSArjJKoYkCOEsEtVt2XtI2Oq96yVjO46yzGFt+yELB/EHzq5jwRP/H/EtceZSv7Gk+Tml3Eh0wWeKiusnTYMI1T3MOOgjsLw76zQddGnu3q7OKxnPPtYO3an/eo2Z9pd1kMWn2fUZoh2a/62oOHGE76iHzZOwhETGzLk/Ri1191bsYWjYvBN1YrKh/McNlAN/0MejL5ROrXgDdl3Gciyo2gtIr7GJAOXtKeOVKjJ4KTrYzGHkg8zjFbI8Ry1qqa/SL9xS7q9NDmRL5mFfsWGzs1LwIcKV9rIBbBbkdllWv6eFHKDBeV/fHP9RhqzqmqcUj+7irUSSYrmZVfa5Aw8FwqDOx5PsYfFinDto+QyalIAQcXrrQ9VEfzPKZQDxnT4R3sktAEth2uiZDmSzcnt4DchoJaNr2FfDYpc006uG1RaKWiBX1DSc0Byx+DxOXKYgw61TrgRorQCMI9/PB9DoNddlxg19C+QWxc6510Hu8aNosP45isKYcSjq1GSMP2hYEgpdswv9cVxX9HikYH0qQ++qZUEDFSoM2kNg7NJuRN+N1Y1rVrTnxy/XjAL9oZqh7NS+FIqSHW6LsBDzTdg2FzOBUzyRCIMYtobpktHOt68rPueHBz1tXJ1pFFuCsh+u2BMeDYC36qWWB38T2XaFoGUn7lZ4IXJS6P07KOpZNAeYSlchGc7I/hR5rlvv4E6T3MYZD9Jyyhth683nmmSIIKbxOJ+S4wyRvFkzS6JyfeNQSX92sbd4ZNd3i8bJj0yCp1JHg4fOwHmMP2z5CdzXm5jhd1iVxKOT+g6q5ZqKIz5HW1YHewb7D/PGYFTrJWUguSsoWQum2bjj6T0zLhUeGO60kLttAZ0/+P14luYEcec4vdZLfLGsAX82YHvjibdaFXFQ7KfDuKkexom/168a9TyEgIZcukp7Co8IZOvh+nw/RKCxcz3XiqzLhebxt4I/7IdvPfkM67tQJR5+9OQplmg33wltS5cVVYGOdMNUgjXMT6hSf1S9A1gNHbKSFde7iyomfITubFMv4TQhgpjnzqGcXVgclGOKU4AgHm6qrD8RkFLyHQv5buZe/vK+6ZQG44UCADQQ4GR4ZxTU+l7WNmNm8wEsIPbCwfXfVVS/0MAygpb+NuxEz5CdzYpyF2ta4eRqvOQamlkWYH9Hlx5J4zgZvfYmbEvRTvulCcn6e+rvH4xcHOV4EyWCVbh5yyFxzaRR3FpgtfFRbJZXBtep5CQ5o3FyoFHP8fdkdI8Z+jpoQ2rS7Ke2RSXouv3auMXhGIfGIz9ifzkBkqob6G5eMQDX4i+/ixTnWxTkLua8gLX7mE/btm0FCq83dvw/o3snAZ5lOcnTYFEwbXqOCxT21k1qPbl4g8V6LYH9nH8AAA/vsTzkEaQveEWaR2a/MEFiFRSkCoMzGYVdHr5cBaZ15fvIag9elckB32gSyIyYa+Amy4oOAZ07Sy2iM5F+Uxrq7Sp4+OJDBOf7tRYSsAd+S++/WSMEiycWCLc/pB6tA1cQpghc+lhJvJXEF8aIZI6Eb+D5yEdJYL+lVNMoFJvP3SXVFhtMhafu3XZDtIVJlyQaL1kpv4WaZyQHj34FZrkoFyNGdkmmDj3wqB1rY7cbft1vgYB7zdIrmuGvKDdBmkUqvsmzo0Y9Gon3PkAxe11ad0Vctay/wpZt98QM8PfmKxxqJAGiaSTHD9VBeRNRz8nvyJ9MddjDzLdkJDa+AaDWdB/Ne5kXvg2FIr4Jquyzs4YSwA9j7fq5/+xj4kmIB0L74BphelgJqP06RJgIVaZifwwEJFlms9tp/hVmeGcNtJFzjxYAA6WgAIUnyBtbpi5qkAaD+9T8alEP3WXEe8UAVHAmwac0CqPEEid7Nn8dL59pDvlDQ07E491mKfLTFxuqWP6tLXsOhjBr/0tHoZqeOGWSYSyoi0YbfGRwlFCx9FwwkEXMny2C5LYHkULheMMI6w/3zrDuOtwEicpJkJTaQ2Nekouht0Ji21SbK55Pauy8WqtzWqPgu9HaHjG/hNLSPrndnOXXkuac7k/0VKAfGKexVhj4bx42rS2LLwh5pkBVB6u7gBpixD67R6vZmZH50NwF2ogi0BqeMT/bUxAcU1uBSEAAAAJLXKoRO5GaPJzZEViCf/jw2SM3omMJJDimBg0O4e1c99V1pGeg/dUUZB/BDGapOGQqj8Kb3z1gXbTaZHS3dJUBlO0I6RwSAcV/ATIVFTbvJsQClffsVd9rd0vY4yYazpN8kdrhAkI/qNBWpVmatSFbURm567P8GZDQWmi50ILoDTLnJlLmekvQgc3/Lg687bjyGKP/s2LdoMRolKnZBFUK3kf+3YA9+Q4p216e6JPUXtziFWvVfLXNgB14px68F46OGNAV9FaO4ZSglQmybvJQ08jboXF+pP0Pzw1PhBfT56QfjwILhfb3JpuzHt1QqD8nhHv9dT57ieWxFcPwsHd1cxjHaWIIM6Lyol4lan3n3tZGo7xZsErBXKBXyQBol6dA9Ytbr4nYF20jEgpElBEvjBzc3FSpue64rDIR8iR23ydPlj81mmMA8WTNvvgun4MYcuw5PtzGP8pmHXOrsdkfIEByD4BbHgWcwNZx0kGc19IcJKGPkC1cmTFB3A4l8wNBBcuGpLkPTcQCynY+Wzuk3f0Sdk6/UauF9BXJswd+9eQlOGxKGqKoH3KcIkug9nF2ZdPlHeSArVxBNc6H2y5sgROiDOMRl48Iadbpxl4k+YtQHhVHYo2aK+86612Cz/211G0R+rc32LaAAA7MgTbooOAEUWmnMYoCTbHb/I0YMHJLXRpkFk9xHLKV3bSotaItc/eYEVjMEKSrNj5C+Bad1V3o3VUr8eRcg91jUm7eCC0omFF7Azg3UTozX3bnG/O0SKF6EwPbio9qcvDSVm2vUuJsuobaCeW3iG+0bG0vgCf0Nn4DK/YvstqSnYiCbpNpJyUG8kwYgFXFB62qPEphq1yMlGlPLB6BMFw0EdYFjgVKvWEFMXbgDy3IXhgZG2FH9xfAW+5KyzAlojmMdBu/lUePhJMNMoWguyBDevNybkx6IbtNGdd4YL4hyPJiLvNYslFQ3KCED8aUtM8qZv5iyewqWZZ8wkc6pIQ2upMUAbdMQxgT2Pr+zOs0NWcCZk1siDCxOcc9yyQ2sg/dy53fe6xZy91uM6I6gRdHzlMaODJTqetr0KxxfphTTzdoACBK5FE5sL6CcDMUSbsNHprJEFMhA0vIgYPdEDu+Nr9kvGXUyFmKWvgSh9EcK6TJKPjc5TO8X42dXfbXMqobivmdgQKUehbFp9j3kgODQzsHOFXsvLCS76R9+epTP/pyBt2QguZQbd7+r6iVdiv9EUAY/HXlb9KFAAVifvg6Ztx0ElQ4OUzorAEP5Ib3VOqhfNsqdeSb4lJCehFs0i8w6xpkJROYQkxkEyh5jpDrODqCi7yyOssBkM9mjVpDTrZffzIR9P7izATL3yOl4W6stCrXcfh6GIzidcUrdiWKCIQmY+ssExpx3jpZu3gOtM06Jc6EMEG+A2Y7eYCAxeuMc1NONHonE/pay0k8gRzhX/DevpbkOgvHv4FbsnOfFPT8KprlTCjOFG5sQBoXpH3UmHA9KTP6TUjPvHjoBZxjjgEtN1ypdRkVg0mU6SH2gl4JFQMcJKy0WWaS8gkXrQLDIgyrrzBqfFrnqTwpk+y9sEJFJRiEmF9SyU0bFRSB4cA7Stm49S5U4tUgKtiZkOzOMAHCO+Ax/aRxuYk/64dR7o4mTPnyvm8NPalnDzCqyZ+lz8P1cIONcPZ0Z69q5uDxBO7pEYxBicmkIg/b/U27zcxRxMOvXhdwTgxM+VnGVUndLn9N2M2fh9K6H/8BRVXR25Rvwt+tJcPZsNXbIWyvR+UhlanPkNMWkpMy3I6bFLXr5CHRpKGULQKnov22psZLL8F+nq6cEZLD0c/pq4fVPqqDrNuIiNC43ki1Mxs0NS3LL42abVzCE3/zrlIwkD2ZEAAU/k/b7S2jJvqmAUc5KM0j95zfUvLSDV/by52HYFqaLoniItBDymFU833Z5rrjfkiFW0+kHZeFQB3hOeuJMsxmCiy9+TWn1C/b44qzKbzTLnt7LGib1461pTw24VUOuD8nvF1jXWtbxVDIzNWSX/ZMufA65ztiim7sOGHZzJsKMptskgawykS5ZnWU7wKfYYPVb80lqTx5gZSkV8kGHOWnyxKcn5KyerVFhmSf9uZ10dkKmj4hRSiA61WFdLeTc5HI7dspktPpqbk6SKJ8iGmkger7+HccRSEc1iJssssIIYnmDP3ITnx1KjfyHuf1aQM0OQ93cKHVHpiVdJ0H3auZp5KCarN/NBWLNFhm7hSZweWTzN+pp9Z8UJyTP3+F9kLluhlHyYyC51pLyfqtpUQFsDyink8di0rBzAtPPV4o2UUlNezb6rN+y0RzOUiv4eRCIOHJRf++vLxft2kST6hnTiCCohxQBv2bP7LJmwRn1BGdO6EM2PY/+XEZlBFhp7BLjt7xj34Mrmofhu9TRrqieM91hW/uFRGBRHlZJoCRicsU0moV4JXXLS4mAtCx99te5tKA+rgi88oPVGnahLxr1pSxzDWSq0w7zNlEf7xeQJS+qbWTG3gDl2742jUP4wHTh83LC0jU3l6+t6tLOXr6LXdNZAKJqBQPEyLscITp2p5N50zQyZ2iRgRs2YIgDpG99b2iAK4LkaIIEWIdHXjlTJRVSjbICvcez8cDwrKdc1HgmDEsLRnHjPy0MlJSV+G8coIZkMSORPyG2l1K8OSxSeQB+z/NZDREXF1OXUxXbQMOnuDSghdgssDxo16U5JnCjC6Ncp1SGnfTENVPeTGStrtC3Zj+Dmg7qFrxIloj8hK96hQb6iVy7yGppilaSnF35oMSktx2Ks2wMA/6kMn1rYFvBrecBerTSh1YfuxDj+fLfKvrvUkIzCmqJX6fIxHQ0o6IlGtCdiTLHkaVsgt6aZb94wFaX1p1mLB4bdEZqoUhTJHoKXJ683xwMpwq0lcbweF5/yAMLF4bGbJXWmfaXlOZEeTxLkPX5JpGpD7ySaBVBSmUzKIBZBjkRLj3efxr8rA9qlx3DTukmEvUDkUoWwN1SW29bDhsGnkAbXtVtk3vDdGdoRl5HIet40yveBFg4rPpeQYdQKjJN13BGlkjmvEwzdvRdljq+YBypWWodMvHoyCextNGUO6XAdlOeJwPrnv20IKumkiB/4lTKvQd5yUpcqTLYoDhznZHS0xIu4KUlSXREsEpUveFHwWq4NwKV8Di4Vr5qHckbTcJRPKQEiP5QjOUfVPK9wcV290jjc1SG/Nv945WLFPSjxzc5ckc5HaoIlloqcYlfAhvW6t7TmyFv5Ul5kzOIr0XtcI6T1vXVNv2Uw5/O9OACh751gAmlxKiY5lk1J4aWG3kzi2e38kbOnYc+egGii3GRbJ69MGOfXaANe6C0EWNLnG5m0TGscA71S4sonRkRXIL5vpYXdc/EzV+3taGFZULD8wZH5s7x9kM7zZSOWBNtz/L+jhb47NhpXLNWsNT8er1+foV9p1LWjXQJsI9O931ScRAzchN3htmVOmrbXi5wMkXWG8ApP6/GTnPmRDTszXK5OihvmeElNMsAtexwXLfyE8r0pctkGjxizvLWtBy4BeFnPi9ooP332sH0m3+lN61/oUlHmgLK14BbOcptuyYZYuf7m3R+zHK+obHywbK/fmpopqinzqURJbmJjgnkhGajm6S+FQaMOnaDQp7RERnH5XBP0AsVePV8sHm+yXUMtbuBI5vlQKG1vRZVxEAqmBnyFrs53LjQ4TPkTWo8uHtFhyXR/Gyre4+XDV9KXKS1xzTyUHISVsqe6JcukyrEp6ZSA3TKvhW0UFq6Y7gHXywvRNSn/QS1LMB9BtRX328syvzOFr54XRsCeqWuD+HJNmzmy/96slCtUxtfUy8F0hJWwtxxCe+iw2VcmPyive/v/zH4IB8vKrUhA7MlfGtXReTclDFk7pKAZIyC2Uq6RZl/+ReAgq15VwzumZ+dhx/vEvwFQRPpegek6txMMBOrGdYNvg9uFPLAZP1sjFRNqTcRmJqTHp0OY0/nsZo268UCkHmz/pNw8ZfgHA5Z3r3mC+4ozlAyvlNZYZf4jFHsyP1WP5jnvQHCPZH8PYdHg++j4V4uB5Xb+1QMytUI5idY3ww123DjRf3pNzhFO13BpTnzWl/aFG2/goQchEhXLgei6gFE+ueKEd6DLGI5j7WU9/J4a2y3pAsodQlmJ2RHGUguBtMkXxAjE++7Cqw84dfYmNnH2H/AfUq5HlRrRYnquY6NxhjO+KVfToKruJLjJrCN0r3p3ZcfgSOn6jhKLbnRtvQ3lgEUqa+AqbJggKEZdoVESutMDRdoQyY2PJQfhseoNhp5N4ARKqbTskujiZxOtdmiS1AIdivoj3xHzLNZprA9Q+rGStEgfbBWVWJaWKVDkz/lkQfRUG7KOV6VSF6NwArtrqwbsIkyBypYgM3q7cpSQczPjaC2/eFSo+kta2dimQDFzAvheOFgZja8Mp/+rZ1yzOgZU3her9oFaaR8AFoXbdMBVzrn+C3w1uO7hLvr8YOjyvVAWNc4q+ASOPW9RhMvakVYI5BbMshHrfXt2saTLAGWian9cUwRf2bp5ukJN78bdg1cGwjQ6q9dFEELesfgo5S0QiWjkFll+Z/539ofGAYZt5r2SsdEIv9e+eEnlR8XNIFA7uNmXZRQwXw/xBTFswPvXM8VPfpzFyXQhe6NaRgtCsEwdUveu44L2DeqkXux/52nUVY/iT8to3NbYG2ON5VUWMYBbem2jmdTm2GIQkKKxIGF10DnBMYXdzERKKY41jK9X0CiQWr1V+rfpdBSlzKuQ0VyKvEfi5A1jAhYemLBh86unyiN+dA2dzlsY0UYDR8RARrLzrAmW75urTBnk1TF/J5Nbivn1zeDc3k4Oo16vYxjzelPZZH6ZSc3upmXNmTR3F/L3rSV1+sg/jeJHReb8iSpoN7x2g9/8kBFwCMqq0nd8OGOY6wVcOL6nFdSfF4e1+F8YKrVUUFqMQe86XCjvdXLNzaQCPd7Gx8mfshFbCKKc/zjeKRD2QrNFEFN1o4BPKi0FUxR0UzT5uD4EnkrTIrp92S4K4A1MOV4IXdwiyCovpIEJGxfAIQcM9vWWpxwj+5JHAAJsPdovk4889htveKwy6SY+COCMlmhUc2gHZL0t1o5BWTUXcdCxGaGmw4JlyDhgjxfOK0jLNNPzNZNaUE7zcqoQsnMyyyUI1iu4b2iaOfeku9vUnNlOUoC/KFFzYOgMQzLw9AEqBVGxx3noi/PKz1gW8A9HFewICymbcvRwrjBmV/BShNI7PcEXZjsEZpXPD6MPFIvTotqv9D8f4btBUYl7ZLthK5jNhmHpp0bKTUfT4L0LaOiMKnA6VaJHqaZcmUVMsLVEOLiF4Wd3iLjsqZ5Fkt9KewIoxDOHGr7dSnppzDg74k2ePyYx+PBn0XNswD1w3kir3zUbbLELMHb0qlR4JcbBly1H5PDs2u2iNHvY+Vc9UBikX9yhLd5u2pD2p3x8ooxrJOaKoGIRUEdiHE9yHK+Qt8FTpF9VeQV3Wc/m+TN39nvNvEx2j9eo6oQp+gl6jotGVr//RHeywRzRLGlxNd7/hdLl1RTaocQjizTnmbILHX4iU9BvQ+a56BZV5VlbHU7O8AZEv0ch6rMNf3fGIuExf8SwD8grwNUldArTwzGR3BTSDsLwD/9Xzqr54siLLJNr5GT2qNeCUJmWR+FeVQoeFWAP6u1TwOeJD5YSMlJF6NhSjOMBrEemBMlON1DxFWGMRxUgn9oS9Mhe+pIgsR+i6JJxkweLYfECf5oyca1/vBNwkxaXwC/njfkRnbcgxgpAMIh0sJxOkEGQiux23wfLx3E0s1lnfvuxc7M88ivVVR1R5pzMFiYVNmMVPIWJjEjtr/tzSESrH1DvOqear745Q9sm2oo4dmakYiTe9gi8IuXwxjQXfQOzOvBx3F/syBWedWV+6MWOu1oSJcd/+MIdW0Ot8tbnei6dq4TyBz34g+xxeqEYKuMz4hlYSFlo+gZLUGV3iPvb2Wx+ucjPNs8XW8/p3Pl7pig5OsnenehZC063yIFxxe8XP7bzcKPrvJDn2p3T5yPUkrniyf72x4ud1QvuUWffGGujFdHtWmuqHMtdJ2PwXFTftqVC59dnueSdJjSY8aaVrNLv+XcWcuUZYHXtnLe7L/6/wgQ1vJlH4BWaYovqSZQOHgp3NU1kO7KAxpSLvPtTfaroj/+f/W/vrMxhrxg5eHRLa+Q/lgH8eZ68br7GhrT/CzM/pKhQhF054OICpARm16ZjCeoH0UOvfrfVW9EBIms45ccvhssMwOcUDR1UPKLrBhUM5lQZPe7Z6LAyxrbdkAvcAqTHMFugQHOFLxkBOjSshyDUQJRunpyM5tpED5ZTqcqZhdsk4i6SJDgVcV+Os1C+OPgFrf2n6Zrcmwa4uxLRTzKmNnC6JyCsGYxWIQeu7IWxFHMtH+ObG0s4YZqDCAEWU4FNlHtH5ANh04MADJiMjN1ZT6cJ9oMZ76DlB3fMSjdvtrUmmGGPeQzcngot9ikrzV/IJK49oswfN11SkWrJKyZaC3RY/mLk+COj2fvoXOCOIIyr2CBrhoZoTFIaS80xD5Js7SHBksFoVG4DuM1kmNijnSXb+2MleV4wh92SsWhomeADdDF3jdY7Wu6w8qURMT7vyZoW60XbYz4Ahmlh6K9LcRcSohs90pg1J9M1nnppDAw481+IcMUvXJSksq+tzCtKQJHU6UYKaFD4yKd3vpM5Lnpo2dYPn2NqPGIjujTYnk+244iboJMyaUfUwoe43DNBbUNzJEAYbGlx9AGlX6lDatPNiqXWcH5RwevB96wDR0mYXWrA5CV5EBuGY+d2Ce2RTfTDfpHQ8fGC4wV1mO7OCuDJIx8yMxXfeWeEstbPskGV6bPRQIGDulL9a/y4IjSdWLRhB1k45Ck61U7MWSjmltk0veNSZgeSlTkcrRzah8QHbj1OUKI58C9NdTKnlUEhVmQgnUTj5Vn5+xkLyX2xAdpNw/eeViYqSqHKcoy35nq8gTkj4kFyHWbHEZCQ56/ITjRv+MmI/yOkd5fyBz65ULLbD0K7y3ZPdFErx4XEP4q+XxQyVAuzcT8Dw202bNYu0HB36fKHqpu6pC4rEDK2i6pL0tih667396zjT8cH617ZTa4J05czt8+xy1d4GUHIHPOR6nfVnXXqbA0fOCSbWIkmJKbuLGoW/IS6ErP2EXiYbDQPPTOc6eJP3TPaaFiOIXXPO4Yc0/9xFngbLihmstqL+4hAfOZL/EFy7njsqPhIxOvOLwt5ANWo3VzpHfFpLkCOSPs0xdp/rwOHdC0iGJVIzCBz9NdA9K9J7Vl0UuaxUk8z6czDH+fepgXGf/mbooEecXuuUS+khjXOIa6/WfsANVlSKTqfHiPXK2smEsihJYxRGbwbzQ4rKQ3/0YqvnD7SLQkQmEuCbUjcD7pa3wlPmHhfLbvNc+7F1rbfa80mfFPgk7bqUsdgl3UOeJOvVCbpn2Toe9xxQepfVygyH+gV/UClGpbYz8Wsm/Dixz9mYclgpv6bFffVoNdb8fcc1K5VD5sdeVf3yeRXMFU0Cp8ZnQoycDzYZelBQH30aYI9lzlK2hEHUkrQszNt32jHjLfimnRe4Q/OwzHu/EaCkSYjN089sMFuXCLqViNAqzk/KqrDJtQ6z4LpER2z8aNOFjWP1QMY6Vg2OHiPI0axap2y2QfwxZft+A5ny20xcim4fnhF5r0ZCe/n7RnBeuH/4w6VeiCZ2M7SwBhGORx0J6CBbkeSI1K626fRXyCEAagW9fFUnypgs9wCk/GhalhekDIkISLb4gItD3gV4v2y+1kJbDVCHRi2QZXHSQI0plcsFt7vag0j5/nCJyPh35MMx7Mq5kQYyyhCUp9sHa4tVskWXsRhxbtF1oqRewY6+oHPpaEO0+0Nd6PuDJ132SnVCfa4SuzVx71Lh3780TFG9z0R9qMQAh+UhO3wCH5jZTxAF/IgTaaSnD0yz5La2X1yV2saWxv+fheL+WuuPgoJcbOv/q+F5ujt1BmJ8PNVKrdOQa1LeBLZhgm1DiEjv5YMFD/ROhi9jfZedpHdhT5grEo+FZc10tklpmTmRuhC57e4dpglfKO6ZtsWG33a0kUKn//Zwsh5kZ0Aomay6U6gBVyUd7pVyxXqJYd16Nl7WetaJPpPFQq327IVun1PmdqtjWsXFXI2LAYctcXu+9F5qM4i2EvrhjWJaC1xTbl3PCuSGxFqKod0RIxNxd7+KJmroACWsxYX2qxWLk53A6Ts643NmX9WwxgheSgEKpeuO386H6d7NAY9FVORR2rk8ftfCXInKmb/Esmu7By2qnDxIXAo943kL7f9DnA2/QVz3B3A1m66aI4UlPDaCKVuc/gAu6oL1PnzL9QZ/V/7zAtFG8WKQu8VajCh4Z50fPQUelONipVdNsLeTRSpxoH3xPUAFwnqH9RDGo/DzzYbp+lzXKLztc2EfQxkRNjxKUwtsk1DF2hEHmobOfOyZLuKQk3I+oh6cdx5acPL3+bStl3hyCbtpx116b5HBbuoFPPyX+HUl/nQ3F4JxpudOE8Fbbd1/2kzIVzh/7V1DpwKXB7cMxaNQvFNdHS/qDd8GfEU+LEvaAwG8T/fwZIY3UWRACIYebyg6gkYdCA4rfHAzAnZIBX8LHMBbWGEvyRGZMnuoxl0hp9ZMYu7XhcsJPAgJLwb8ldkmRVi/4cexN4G59bIkC3CPOfK9eWLvxmD83tY1GQZfhuRMAxNOpUlDDcPnJx56EP8mbRrwuVMoWHVn5b6ZCkOO9cf+LmqQvjCg+8MD9iPNGDeeV21b7Ag3gOtBV+PEoIEXT2auFlxaDd/Q83IOnsQjyKECASHmEYoWQGACDtOu7xbqW3Tl9YJyFoZc4d6/g1I7UOyBPsLwfgZuy91oy/rbvsGHuBOUUEzk3aYKDZC/VAGNw3X3z4L6eX/HQMelKXnKLgj6Hwa9Yus+aTm65dvwVLhGGxchSQVvHWpgGPdbfe32ynIBmN2g3+oww3i3vB4hy7WRcGOTEsG1bUr2Ll8BvBLX8fmv+Li6uBEjFJnGKIBuCB2hjH+IeXoIetThWzzb8FnOYpqQfmwKr2AjzpTa7s3mBlWnC7FP7wMXnTXrjbg171nGfCMOzkouvePIVV7v8zAtB3TETntwvxWd+4R+rRa4u8gZsb+WQY4fX8TvwQBDfwttaP5WIxldQ63XIwtSD3HxMAA5BcRl93snrfKA+0CGA2QbasK10+Uo/6ZdKMb+Nu8+sDQ3Xlwm9VLpAbqh01Fdo+mUO1pbwZjr8QTetjhaXK0vx1h9J2Fx7rdExJTCTqXKeM/hDeaG8M9XH4SdNreN0HMByCqecygAyhwE7Plby94PcjSDc5KDXjoPvVy2WeCG0uuIhNEgLM3O1gfmbwzimEvKm2yNO/Pod1e8TfvMCsOuOIIXU84yKVyFXJ2ufN8KZt6uN8faA8x/5abh3SiMwBkNINI1SGd0d/YA2z6BwoVQAm3m9WWgDenIEnusjeIn10sPbVJZuOkRodPftNw/f470PXSGvT7DI1mZ2TN/gG1r7L4LkdPXNeAi75V6rRgkOVbRI9RoZ4TGib0bCcVXGFagLLjk8IBJZiBnByAFJlUNOc+nYBhCokdH402wXL0ud0B+WeusPpKLi+gFBDV+cFeOproMwT7Dpac7gc4LYzdPiSniCynGAbC8F37If/ASPDiQXzSB37iM0mqWlCX2u+Pxu6xLwBRwyyle0pYrCgo7nhLzFEwzQ3omStBCJdoRWFV3KfZ9gdC8w/BvR0anzO+QNRAovApkLgAq4JhEk4kj53GPaudj4lPMWMts5iRc2b+XCXKnwGClUD2VsZdUwAABczsVekFC7U4BOCMyHtIZh5hIugl7+ut0t4PY2nL1AwP6Iz5IRo+Xz9+IVVZNjzwvewVc3mxqXbEkSHY/PHxvpE7g+u0nMfNvmb9uhFGxwA9tlaYax8jUXBb+xZgNaJGDGideXPNXGhjtBTaMhz9g7cR+ipOs3Zv/f/ZNbtgp8LRsHTqbjPXw36LpZn0GAxGR4h3lqMNyWtr5NuqI2EGJzJiC1Z7kmK2DiiJFjHQsj0oJgDlxp+1UHGrMjHsBG8c41nwV8FHabmwInknGAcONyOnpxR0gVyowSvleLyqch+GMpJr7U1RYGWVTvSZ9Ko18+pq367NjT2hUZDOJ5482DIT838mqiFM+zWp+k8vvLEYWWZASHdnPaTpQHJz4AfAnW/5UbAzIxdr1TMdm9x0VhzVJG0DDIAg5iEUST9WJMnz3t4ctmVZ25tDMAph8J/8I81tFu5+EJyaq67I2zc0BJ1BjNBfzamFt23c4fojrXXyfqF4k5fh2rktBntc4T9Z5pOA57SeD1cq850QEjxzaEoXHmfMzivzthdkbu6MxhudxVp9Jh1zbn7EfgzQCR6b8IGskQSxy88vA3gUGf2wmTdS23nb6BiQF2cEqF49HmoCAmAycXFeuGZwNxbbHrw//HXGOcbB+ZP38/ARUF/J/AuUF+82HC92E6gp/1kjDWi+8+N+o1zR+Y74AGOpu22Mm/LzscuBNR7PI8QNxkPLXbRYwhfJBoN0yHGdeofYbWPodoDB/ZoapIX4SU+WkVPxNLtIW/gpUJM4dQGPklQY38kI0c5A7yCoLU0GtrN5Hx5yma+dlbL599FZSr6XJ59ewrTsAhZEw8VS/bcYRWLr1m+60A67OWtaNOH8JLfhA/4dDcHOx0GeGRuTZY1Y9ZJAJKCBWb4h3BaDSjtobVJvZNpDtty/CdE5KhnJudIp2N9C/We8AQRYtR1REuyqTyGTc1jO/NSvVkqtiGaubXJtneSRFTKC/osiN39Q7ZhOWc3q5tis9BcPiRVFx5VKZMivistoHFZIwwAwWoEwTXLEZuz9QOYw+cLehID+FhgUfFXUFZLbVsO1R2ciJnmme+T01p0hBCDGoQnTCtYJzVVW02ZCoLVVBAwB1aKwVtOehRbN0l2rmT1CjgCTFkKcTprwMqUh5zi+H6RwDMUj68ffbPCGU5N6gM9glf7G/hUKoJZX6wz/QuVrk6t4BxO6e7q+NMP0dv+TGmtAkwbxg3sp5lMWpaJgPNTp70dBaaTwufAYEY5d+CHlXbHy14kp/DFO1VEY2xvEVrVk8t2TtevH//qjY9Q8Oj4w87/CBB1esFbw/DoTCJ7SaPU47bgALkHdCsStuUYENOi6cHKLfzfBoxV/xHYxVfHjsn99Q7DvwPyxLCIgDxDLC3vNzv4JE9p006Xve4YeF2vl9xRpJzkg2IejKo/ImIBDWB6PL+hXc9FEdF7M4K9TvRJDgpkce8V1Tg/Tw3/iVMwV3o8TO0IFBoun2Q09yqzuXEZQhLqlwzhxqOEcM0YKFoQArD0TkHtCbZ800HyygbZK9zNaGAXTQ5VVpqrkDCyLAxcbz4Svm4sOE1MPCic8Byp3k9LS07VshmXOmoi4GEqwCkALg7XuYF3RHlHXPRbMvnPpTUThKnYOa9XJevg0aWL8R9qE5j2vVnlYOaAKeeROQ3urkH2osCx8vE3uV2WpadaCTQ2oCM7JexS273FAjLgLpWpshoAoGgvqEMEbPYEAlB/71+FejCrdVxc632PYb+hcymmcQSLPcxUfJcxh+Q2oh/gz9o25SO2POervTXTg0StkTEpaQXo36FPNYI5agqQPxK3kWhvitAPdFMp8cZrMkM/ZzStQQSkVsIwHfB6Qh/NU3Q6na1fy6ss9Cz+9XrMUp3kTxNUbH57TxzNjLewhKSYPtVoQqFoqKipVgsc6RyGQ+Y6Iis8he7MUbd2zPNMJdfFHxAtZTz0gdDw9Z99xCwrW0AlGBmFjHeTx6EzNP9nC5yKyJXFkrLrjmHgw36nNMQ4L3hFvnE8d4+196QTf+KHLnXva03ynYNVnUDe6S3ouNU3YBPJfKUPu5tIfksKv6wqm/zqO2hG5xJXviWrgOB1Jo+/GaRoJg35OmSXT9Osre4Bf9RsxfkynveB2aGXkyXswd+8Vv/JTcO3DfMUmT8e5Wk3o6oFNXoPW1eZxC/a2sx0uzIPQOjay+oOioRASC7JHn2hnIxT7FgidKv/jdsNutgKtPSmm0pDLPu1XUaeXJPegGRUcfU4QEZ8YKquxVLoMdaOv0SZFz30xlcz8ykbHO3x7Tv8Ns2LERk0BFpjvWdU0OzMrVNSzHvVx7dm3IxNzJ2U2I8FMYc+Gh/YZIgVb3eackL/fwNDHNqKLbjzNZMBTW/42a/ITuasBcfjzy8F37tKIgWbQdIdHDXb0DjybDN48rPnA07OgNbP7SMsGTdMEXy9bdx+Z4PVO5hmBrS4QnWdWKGpoJNpGc6e1Iotntn0nQEJPHO5SeWnzi37kMFoGVPW0LOP/JRr/7O4ZvLtOTZa+fvtjzP+RuaOM1nQspBK9vjD9UFyrk3ejatZBUVcykIATQ+8rDw9ppMoOw1bGWY8QRpst/LtEgSI/qxATFJ8RjQQ0/DY19INwHwGWUJvwTgMhxDczshzXIvNaP4beJQtN78jeD8lY3jGRkFb766sQvt9ALS4PF/jEqLI8BczK68aIDYvMr9JNvzDsp0FAwYwzUkKJvCFLqcGS1YwV16r/SswnTcWLPSR6h3Kbs7YRFT4F3ilkGZ7pnxsyy6T6dVtw43PEAqV1PZ4Zlt+WP9YjUu7ukfV5p5hdgHMWxTdqE4J9kJFGEAjTIq4P9PdXTvsswSqKHXSCuQPgZgw06/DIFuVd4nhxxU+OVyThsDXTW8fndyCdLUteUB1gddwUjpjijO4iXaEl4K/2YXeJ/SrnI8pnYfyPqSPm+1n2CNZELgnoTxluIE2Kh4T32n/NoXG6ILEvwFBI5t5ve6bFMhD4KmiyHTkc1nzpMB7rBJuXO/8CrwwHp3aL0/lNy3pMCPquhmzOxmZsFa82rKfjdmmgZV6SYVa/GnmQ+Yp2vv42Sgslv5s0TmDUwiBe9TcwBHA3UdB9Yn6pKvzUsgfq2KmbMtSlz2IRlXZu+++Of8pIXu06Q93s9em6Kc5kVsaHqxfaotr274tq+0/jL+gg629O5UQLeShd/ccoagIT8jByHSe6A5rLbxcXBDhcPHEV6fJduCIphX179Eeg7jkW9XnKYsxH0k2s4J6Re8HvTkq5F6K5NO28HGGURgI2aGk71dRvmz7fZ9U1Og06QRXgJrrrZi4svqetsL6WE7SeVAh+VZaD7AJXHfnR0MEqevnfGG5SNmwtrsNOLyqcveeyCNtBWMiUWA8X+V+M8qv3LYo6RQ0v6fS83GIWEnPCGZwCIFD6BHCH0h85wubQRY4nF5QN85T/Zyg9UVUmlffowY1pHEE1uYCkuj9ojFRWBnyt2IuCqjLmvP8lZpdS6YxKZA/qtfUD6IAFi88i87OlNOLaEldRHqkStzQF70MfXtYg1MnHOeMnG4FvNwQvbl5YY1Yh8iPA6DMcIkSW32Vp8m1dg15K/Peco2Mk1EO/w7iMj1UsKm0ggVRAKnsWyC81KEddl6PaVcemRxld3GQntqybhVXNmhPmLuUE/aQKJfSVbsOl1H9/Zu4sX9gtOslgIMh7uIE7gU5FnxyYw93bKzPCWT2BS62qOIVksMgjrP2n3WgKrjyo+fDCbA+CXiFfe39mT3W9YmHKwb9XLe00K3+FAuqaN7B06fFZTgOwBtt4d/vZIA/U9dVHPVLk8AFP2i6azypbSAvJJKJPXz//Pz6aFHglF2yq7dMnXcWwwM2u1BHhuF1hRU2KP//6oHKNsBsPrugQdSp41uRgk6vKp8pi2wdVaP9nvmftw2UYIvrlEjgcJdaiJ/zVjDiS0uIYsQcYTS32mt96l1ILW/WD8b2ONY6jOS+EkJuf1gtsTari/8mOIUFhmjkj/DaRljBurd+x51W5G0SY8aGVNnHCXERLkEG0gTpOvyIw7BXm6bapklJrOCnWGLhgFvVtEtBdDIGiThogX4robIfCoCVHJfaGpUNOw9Z+VKyJ2Ldzj8cQqU8KdkitjiLVR2J/+Ap75h3ZimCb4GRk0oPUzQUHF3q246iL1B0Zyl/4Y+8Kamcp5+EJBC7zsUt6bmM8uVu5reP8SR2uDfckizkPOujqEcYv23cuZSPDPq4/Gc3XVsWd5GwZecEItLuXND0gMqnm/geqoqhgnu2r6fBzUdfcLngA0ASYP7+242Srf295gmxeDWlaUjEc47vi1LkfVf9Q5wfbKq/9rfyqQYuX9/N0c+2bSnXNFbgAcxVwcy2SdS1/aRZ1zsH58Q/XLqwBFEwfyxDqCg1bJB7R1aGxLjwcewGDT2T4tmK54+N2Zq7zYgReOB6tthpbhoAN8qaoLbtXT5YuDuXxLzNFLIXTNKwZJNWnYp0KX9RSA8GArzNmjMHbRhs8RQ1Da/GoYTrJA1LmJiHxnetD+zmsbeGBVvIHBl08a1B60lFnnwcuWEP40zpylg6x2T2vSw4OLaG/7FJW6h6UT2ozIhZaCHjGLf/co0caBhzeuV9P+R+sTwObQphTuIIu1TzEHB/kyYLPG4352w2JO4hlWnZ6fNCoxk2qAED3lqwmwMtmmwCWjTt7BZ7WzQQaRMod0aV9YZ0RnCUhreV9V4uZXrcAYsS0boUna0Aa/Unnnf5mosmJmmYFhVBz2fcXFBFz3iYtOqfLi2Y0Fv6dGre9RqymAT+NbMWGwEgrHnMC0prLuiLGApLkp3d0ln/CHa8xCn7RDJp2hB+AS2NjRaPpiyZ8MC4w4/fqGC5Ic6NYbXqxRIoRhxDGP5V6KgcYbWce4enS/PyBgFkNvmfRuaT1SIRxEdQjTWWtuDsi9adtMX2qE7vRcfiL7jujXnEgwwMrXwtrkL6/Br2iSy1VqhSvD3jg5f1TK9fd62FPq+cc4rc1PUNZfVpLtFP5rkS7T8ZuyvLMLMFcqnUKSE+1cqOsRS/D9QmfryZ0hy9QzlP/pHJfshU0AcSa9/SukwXa6GoG6EeWgoDlKeHrVWNGERcs4lQB5o/A+EV4kA3N3Yhd+Q/7i1+fltrN0cv80SfEOw/rg2+ioIMjRNVkPyg8RarEzfZsGYzBeDymaTEo5JZ4SQuvMrc3mGuo0B0nqCxXGn+cY3NincCMrQUt2kgq/7SYA7pQVVdRbCHgS/Q/+qeNFq0k8V1RSbjMTldkyQvGJ7+0PCEbZtNQ5UA4wgwC8NmJnPmseoqvOp/S4zBQNvK7skq07fLOx0eW4q+igIPS7GyNYbwEaS2QkPpr34LY7sjSHnyupS0LCVqVoKFNnXcjCxoqRaA0erezRsS/f3Wj6Eh2AHNeVfcJAdtb3Ck4V7y69f9upbS9NgPoz9BO6+Vs4AcpB+gEsEUi1F3O4QA2FWy+ipzXgRUONH+Dpv1aP9OBO9RVD9rqP+UNX2NFAcgtGWgHRAh+kPBSpo5rV6laesQjVuh+wQ7ybXg28Mj8oY0foWuvqBlrYqNieOMgPOlfg+AaIfgmdfNTxO7aTfAcKwDGnuoSwI5m1kXsx+6i+hgm7xvSIBUWWXDdY7cthHAqb3ETWMbgUV8ZhneAsYlta8dH7gz4Gam9kvNeJENbi+EoBz/2bzd0sknlBgbZnfD6lUFn2TAUfTYmvtNBugUi1GFjd7bXkGkjabsIN3uWlUTOBlT/rhoxTbtrf+qMmY90sAwz8XOWuxsvvcu/dLHHgbM/bsVkGTL8DgZE7AFB1so6cGWWSIBcx4pLDQdjtJYcouSTKTK6Y/QlNdKNT5WvhIny0mJjJpWufXgzAtqJJ9uYt54A1J2SE3pqzg5DM0sLtcvLcQswq8h16cRV/ZcZbAaWkBf49ZoByXs33uvgzjXcfNbHZyTgJnQclA0siiAzIHw529VELOk0qVDbs5JpuKK7NscYWJG3PoOJBOeksPhl6Jo/XSWcFQOrELl2TIeU1iU1+t612cPFNNwkgD5veDYfI3BP38r14BFqQ6aychSv0E6Q7BB2kZK/Lfv9Xpptaj/FWYV329C228Pc60Q04KW0bj29j7UwIt09S8MNZeoF1Gjza03FRvefUJAakjl8lSDwQTbiBMboV8y7lIOZIloue6JXzyIF0K8h1tdTwiZhE6dDyCISc4FSQ/9vnHv5T8UH/23XByIzgNNbCEPO/kIc0IQdvXH2LvzqJlB/cNxDeoYckNqhY22bOmQpGYObq0D43fWU6ByRPpkpQqWiflup+piEH8Q9gcnTvr3o4Z7BBNkL4SAlpKUEwm5GhZZGxH/MnyNPQyuPXR1VuFLINr+zdocrpsunDIC55o/s91tHQHYXOVXWooIb3nRQC/xio9/h6U2CENzTXjq5lUXntwrDetJ+9iPytErsU6q82jH9QMxEoKWiLermka/Duuwwt/fxGZT4OMlPjjvAt3SEk0jQi2rkJcKMBa417dvu/mLj5gSgaKkBwk8GOt+QlpBPQ60uJH8PdeSw3EJ4ZffUw1FAQ0BHOqmxG80ZR66Rj9yCmGHIu2OscSaVeALywBbQwTS8Xeu2iRftqQTgbzV0gVhI+Bha0Xu4QM3xNkofiPCEUX1IzOSONkbNFqq3pbV+ltaes8Pn8EpV/Q9HPzYXU9fNLzouG334pqMkiS6Gi8urF9QlAcHeS7zlm4B6Nx/srdtjP6TcUrYYHXlfC3J+xy02nMMqy+bCuZkowh0qXeXERIje9MmWUiEIxIB3CZyMyCIyJiDzRgdmp84PwMwwVdFtrFTQFNL189y4dXAffqK8X/y4n+A/7tn/OAlTHZt1q3py1Xszj+ixNQ/l3rR4oUl1XMPi3fdaBdOl/9GeINnD9mizzw5ZV5pDkqwbS3VXvXV7vEiKRq1nUl0TE3EEzEtlReD4LoSnRlxPbv6Dy+scwaW0CIPm3hU9Tm7j3HuxwcVkcOt1LvDJFsLU7dw5eiMLb+b4VURUW2p313X9GJr+mGPPjgy95tkV5d4Io918X054GrZAg7MlGpClje8ppKhZyIhn7rpZT0xkNJJ87R6QQE9h0EpTqmXNUlsrrHs6p9NXCmr/dxKtSUp5IF4PTWpa1fKoHdugj95SQN0rQ38BvU+vEdyhtCqS7PJcvdZ8rvI3AeyyGtEQhDvtf1Rlxn0Q3aJscZTRkYlRkMoSyvVLmbQrr2sNAWiCuhhCEFnSs3cencuh8fh/ObMAoOfdy5IRIp1cxXsE4IbJdmKSOEp3Y3hd0M/XXE4wAEwrD4WlKQZkheJhVvAMKwr7mSxM9iYYMrZbrcj8g14f5zgSR3AeBQUczerjFfgP56lGfLaHKuNUg4Q8AcAXIFCem4PCoQRJlup/aYq7ye23liZylso5WUsSMXs68pUFzHkUqnFTcmEF5zSxQ9NgZ6PLP+hl5usFnaGJRRarwo4EIYbnjhnNMQceHLTsuXDGrq31ZYuSEqUpKGTbn370hpPyhu5Wpa0M6gTNGoZpC6wRpA/o6INzy7KTx9KE32CwtPMax5Jp84TnmxYOGBF9HxRpAOhEDffmlIB1eJa4DH9xCblGd3aktRhvpbs9wESBXtoTolCUTlFl6HNNBaDQY4bBDfIiShrbsgFGRx7OiQJwEtVdLWfa3QRa7WuD4dGfrgIfyH74tgfdvDfel5d2+laP0+y1YSiNcnJkQEViErDv6fHGEOmf65bq3XmeROvMc8cSgy45SCRJpUnckGDG14pL48i4JNVyRsh/4gVVTEURDrErAX6BhNZ2dyI0zqdij+zPT1kYIQzZxx5mVespqjsTQy/Gb/h/QU8BwxiW0i+1cmOTre1bhzaeP3eP0JsB3aHqJpyaa1ZTdZ8F+iYUxUW0W5qyg7FZ02PFoJ8pK37WWwuwpIXLYmO1m8yfS0vbXBgMJCfRLDMUY0XGzJYhQ0+EJmwFlwTHfWlKXrVFYeqvAwrZguP6zwjlDzZUlfKkGD1jlnw0x8EJN0NsUDfLsJDoKtonPWEoWYBu8OyNOQjEaB3MwcE9KGkYS3T6phvwbEkS2sPNiBoQ8OhNIKuxut+OlGyy2un51Ym5g4mdClo9fZu7yc1CjHRTCHNjvX9g0Qw2ahpt7Zz0WAK7+qgHkDy4fYilg639c56lR0JSbBdLCkvgBNuPX6gANO/zmpRjOILXrqYbj2ZbrZQF/or+YxM+FtTLY5p2+VxqGvz7HSMYcme1yBVgNWc9Ifyr5mM0q9Kj0Q0nFuLqi+Z06fBRBDNlYthdlMoug0/1j54qvFGjjwyEMWuJds28ynDJsqYS8ctONSNvq8bgtW7An7Ctt/er1wBF8d6hs5D2JHD1vm4CalRCEZwonYa9vhNzzanwK5iCh+B5qCf4DYOMHTE8Xh3IqvWKPjBnVcI2Z8JmJYPJ2jo1aTzMMTJ9F3ZP5lfny5yk7kkn3FZkp+B5EL2itYg4CD60c2xVULXoqGr0NCjCS0/lSQU4OdGRw3Je6rnoA6ML1ggbmfWuhgQfCXl/PBUzf+vMtEH9XRkh5jMSoB6gFH4gA604GB0WEAq97Hsf+f3h2HWKrMDhtk6El/mypU4/j5FjJR1C+xATscaJ0RqGgSQUnoZJrN7Hv21bCgKMHABri1Tl+fRzlEtp5Xby8NBYqzZmPZ+OlGLyeqL222fIjWr8IBsG64NRPf1i6zsCKMRR/quDY242EIt/vZTwoYOfuSX9/7iReLnUjGDrYPxKcKNnrnZv94XRVyBoYIHp1Bk7bbFqIiW9MTslxaoAhOQfdU7GuHBXJx7icNqzH70agoyaQ6wCiriwPIRVy0kZLsl75cldX/QJQQfCE+H4jq5ZVamwKXN1vmw/hQKPM75rkMICOYi++x2TwGhQdYLUni9I6f9n4F/9M01o5m9GJvurl8B1kIvQIlA1XdbPHrAjyFs/Rb5ZMldNPRR7ZD//UZriyoxa3YS65bQyY06waAULDBI06klR7tvZtNeI+C1q9zjyFFDjQZmJ4N/PgtZTHi357wnR3hJmCdAUwnNisbOogUQ54vVaf30rCWsees5V86+wX7I0butw/7gbqjwgk1uYDkPbf1bW5WpLnAd7hcOiJDwLR1W0fLmS/0Vr8m2Xz9WHsZFcY933N9jSL5hBENXNhjk3nhMDolGKi9PiwZPlpiJRgJ/mVjGDTZ+3hVS4zhoJsl+aGimPMqN1min0OAqvEtAeEiy/KgOecrZj3xzg2JFAX0OPGSZI5SBeBOHjmIBQHny+exaVY7Nri/fcaSEf+acNHEBH2oiGXUUs/gurbiNMZm5zmJNP+qJLW0LqydEn8wJFKjAFYMQ7+U16TxPmvgeGw6BqyYRR551yqx73NFfLHLoNqQAlThwG0G91ucG6VVTRq2jIU9kxjpoeEOw3Gbawgcx0GawW5BGNJyzUJUONx9iQl8JuClhmI2nkSHMmTDhpHaCFd1mfZClarPn0DTOCFwQ3xY+vXByCZwVKqaOHZxxOx7cupQcTkIvSP8Ot7ysPK/sGY8td8jaxTIY4Bu0+p2XkQutj0SYbJxbrSjmg40aCPbkUZa6wG12bczruLEGR9J/S00ZdyKHb4MSRd98VEBsqQ7GVDnuI188G9y/HvYWu0PXi3KtcnracjL24oCLWhLJX4snLl2nKcCPZ9AjrnOM5NN5d1TvRwgaq5Mq3t+OO/g+IlLyWStUVmqnEfGITHBs7MMxjIaCYfJEerrg2rxO1yhrjWGPlGLRY6+kj/kKyIDtlmYvGN+4LRr9tGc9qMEb6VzdNh3/TdzGlpTTTR2ZCN5rR8W9Ugp1Z0fZE+3cCeaL/z3mJU641jREpxIV+Wn06cMdzumFsZYk6PeqHzqyi2pcjDOYNwLCBpfP31Q9ubKCahMYQbra4O7jP5qYSG1l1V1bf9KbYXRCJwFSBQcTM2ek/8Lq2IWrqf4GGovVI8zAydQY2+5btWGqqDFhe7aP+/2cd4JPMY5Zbf8Cr+jqqW7Re8fLjxBgohmzhvy5Ga8CDRW/kMoLyVjqEAWZ1+mon3KhLoE5c5FFLyefk+eFAWXDsT1E5uQ9WTZnAJ0ZEvhg5oVu/GO3wYo0TreVWtZ0A/oWWPRugSpE37lA+NcxIv/4xN+vRLDBwroRuEE075Yg8Mp2RROCV9qQZ5oKMVHsHGgN4jfX40sgUgUHt+bmT94VUnpPPnTOTLRxFyVJR0RLyLbb6GdzPBUU0OhGcfQv+PyD+hkvGn6Q/aK8bZ+eA6GZ5uG7aGNv3H2WgHpgrrQGJSZU/iyLj1AxSTf2ck+/WtL42uuUDJWqMUeJhQ0NqOmbak3hZiGTKMrVla24SPmcyUPKjGG5oLIVjmWNQI2nfGGlZS5l/E9IDkdN8T/zHm9ZwXebfgdneWY0D37els/iK46245Aua7oOiDAlpzJAZXNQvdMUV5r3B7wPXaSmOWZ36RjsPdMOrxpZb0YOau4bliIlVBwAEgoppK2zDk4k6SWx8W5OJP3c66YHDeCWXcrfykeQpaMW7ttfA8Cf9+qDGPJeO/HwK529p+2jKIh2Zs8/DfrDNIYxYuCSvh+mKMj2tg3JXfZm5H5Srd8LtOg2OCb8tGNCL2wWaPToOWPwMBN4S4n68P1WRFrEplShZHKB3wvAeeyHoeLlAvpvfjDrIOS+7VPmgkcZa9sg6qvEQLP8k7XwDA69j+8jijzMYcGO0Egc9i1VkQStpnfDxyq2w98D3vZBiz/uo7ZdVz2DfKpwZS2pyclVo0Gu/kemItVsnTtWVBiTugzsYSeJqBPJrNYiM/yQ8AGWA/wYikE9ECuIOH24KjhCe9EMsPhgwFJ9wfmm21uF/sWAfwIxa2RsRWxxhD7WlJbTaQ2VOKqGqW9HZdwYDUU0rUJuEjRkHAyOLLBl2PIKgVvXdVQxwDj/j/rzBoqQ5wsGTupiiU/RWXR5ECUTOd5Biih24BTAHk8eRAiXYuQMYA7nbyNePSbrr1lh00rZBfFMudTpFKlXInZOHU/3Gih4J0219cDs4k687+nHHXKb+t9CJ+VS+euEC5UJQoSjZg4/GRmlUx/szAqxS0Ju66EfwRWPKAI655SL4/qFmKpGkgEvfJL2sEv1Y2DoX/JjVhIw2bkhtLuK8YsQclxKCC7V3P3S5zTBi0ARqF/5nus2s3R3i77Kw2jRjU3bh+qdsGGoTH35Mw4ZTzP10LdUjqnl8zkgMU9c8dfIpjBrQHadY7joGYrK+rWTV68BUtMMqBA1VQDE25pm/b5qGldbMZaVfpFtvocxe5PCyHNEnUxc26QIbvjzUySSvkJCrPjKlOMn4xTGUx6Qi5+EM4rVjQslrvum7/zp/hXmjuyWN7kjxj57EqJiaaBn17ZHCMEOmlEEPiSwA0IkqwkYsr0Z8l8slR0r4KgE+tUol16QDXgcP3gqY6D0YfigUsjtlRNaf3Tqf669gfpyQCz0pC3ly76fJCoPSylWuBF0D2hogT3NHqdJjRI0ToNHbNbfIM7awxxBX+pUQLmMyO79ESbk+0pyTEyV6fkceHv9Dv3dtB7uZoXTKc3hOEH1flOQpy3WnDbc3eTRtB/ZkuYemncyENDamLoG3TxHvNX96s+akBIIC5IKcg0Mjg5wK3F0FrzWRyOf1mgUz0QO/TzStBLyWU7/CZpalwSgsQUkt24dOQHvmdAdmmm3YIeSjIksaFtix/cb1yPHEZguTZq9HMiPVxomPNlh5n7RzGUJHBCA2zCbbjvY5sTEYIK6JFIG8hdw/Oxuxy6S84h+BQW9matRkLQMVULtJ82vW+dOgAkrqHz5YkwXbbldPOBEHFMns8vDhIgzJMAkxzbNgOXsLKYAMhDKMdpGLcb2CdQSFgdCrcIMhQVTsUdXd7SgdkALW2DHQN1/15EiJ/xNMTdWU3AplJbez7Vogmg0qAhHDamF7RNQc0ToKSyyF0U5ZQ7lNPKO4H64VqMgFk3BO24prW6sOOPMwB7KRNNr5oxqfGtPKrlyOZibDRKQD8PRf3l+kddzQX+C+mN3OlcKPA0N0DcNm85pe1BC6EHwsJkZm7WY2HoAlmZDUz7Dcf9Nh4l4/0TFWz1hSgoYNBfywL0HtkhSLs7t1kgITj9e/dvUjpYDb9ySJr9Tbg2kWBVDn2jLGKjFG2t8jM+UKaf+AC5k9d9ILwOBofZXsFu0rkHnQNOdjH46Hj1JPZeF3MLaK245iNY5QI/sGXKXJARsP/8BSA4xBbETk+LUs/CnvMXoTAt5vd89iNrFu7oOv6oQlrzRsgZExt9AhhKi1RdCaCktrwV3iOnKFmqQuMxnDs8Un1aQ0rPz73b/gsK3PD9Y0BkQ7aAYinaZoBS1DixltSMlHbdO1OQg55uLOdUUMRTSXZxKpyHwmGlwwHf/0YgHioITCvq6yCDSxQKYulz/2AuPkJ8YoWmHSekyM+UTgwC8P/ZvNWGPzmZoFCa2XolujPeWbmuv7jgTHSR7/TA4HTkdxWG6Zql3Fhat9G91yzbz1xLM+0VAlAbBAodX97rOvP+IrB5/eZM5pLmPFa3vCTqt27xzL3iqhTTerz1SGX9gv5rjxbSn/f/WrBPLQc+vOLVqm033XiN1mqBtxHZCfWkAqYuhu5HySBViJKwjhq3ofUsTTXP/0LJAFlazk7xDnbESiYGGwwkLLM1wTNMnbY2GLhk5IuWkW9iKv1Qx+AuzkAQFn4riBWkAH/NsGgMw230VpehJ7JHYN/Y6sHmQmHgl55NEsLwXE7fVGlvTPzCmyCjJWRoKdPKfU9nd/UrsyRrKQyHg4KKJs5bj1/jI4/ZT3abtR1yzTKDDU59HAlgwXEdJDz8c1bfbAJUK1BtQSQPdhmNHCbf2r2+7YJLjASxpxPI/mivZpq+uZrxFWWEZYkmQWILpmBM+BNTVbOqhMmC1ifJQ6qBRev0gm7k75YErtt5NJ3nIhkl6ZSf8YzzE5aj+eXzq1m6iD3vj/H2LKcY+q6OAPCqPH4EPTaP8sDVmf+itb07/ZVWU5BW7XgUypdkmtcsDAyzvrrV8byX9FXQIfGoJ4BBfJ+pRNLPLdACMtGVYA5RMMYO/RX6wotydtnIiNWUKucB8tRlR+nvXkdSg7S3PQQkrGEyMp9+aD4mVwpQYlQC1H84UhqWH/i3a6WGa1AYlv9bzMN7SJxO4X2eDWpl3nr5YFGUWJCWjWUN74ZOI6n4exCrqJEDWNPhUogn6HSM9DB+ApJ+5KwStNMwCXId1ABYpymxfDb12niqpw35s2SPzVaUhsJ+RpRnCJGCgJlr3v4/LPP1ulwGQ75O2kQR49TKnCdPAkn/4womj4zMZVE4aY+fBTog9qhQDXdHzIl3/aYxBoO10DDKptlY5gYjT0Ni6lP2DXQF4v/gNd5W/5IfNOqFxowsZFE//vjnWXIFPMh7wLB/EGT1CA6xhik/kdLhxDlBM8S2145E7Gk9kSYZ87aQeanAW8p6M3kZgwIzH8VvwsZJLQ+Ovq0z56pTRAV3oD5NVFiJllBEYjDrhzvF0f3dQtH2YKWmK4gSNH3//jS/8r8QYbMJVmzvag6e+1YKo7DzHWWEq69YXkLra6y0K87Z2eT2byLNnYSEvC4OGRJYdrW1u1dbaFan8euwPNVLPsIVQYheOrxNpXkdpAo3igT38sLYyY94nOABZrzG5m8FDjJRt0CuUX6dHcyNE2TOrdWNqzr5h0d1pCzwkchcdYZqZsVe5dHS63MWDWkkQzvOl7oGdQUt93eIcdozfKZCJv5qBLZ7GoVSMpYNzaXlSs7cxt19pIqY7qX+QOspAB9KF9pAkw6Lc+GJYagkAf+bdS8QEM52uO/JbPicrBvSErgGYeDQGw2pcSo0tngbXr5wCZaijP7jC5B+CCyZ7ZXFWmQC6nVQjpcZ+Qlpjn7TANteRYUWNIX23qMXeOGAKRoZLmB/QvRsh7M9NyFGPxd3RYD05Rk0AzUDccQNa8JZtLYDoXDABQqy7BZRXBjQVaQff9eccy+RfBmNszff6e1oqgarC3gkPY+d+hSkErOGUkMukaA82PVj5YlpKWTC2pxxdR3FJFFKF4QAY03NcryGHNNeyrheJfpiaJQABL6cvdNpeWzmhBhKMqm3QBCMaTLh1SaEBiGLMhLZAVovBmiyn1cpvd5+coHMoYP5t37O+kdMAiAzYgqdZCwi+J4w+9wE+buke7c3620zGC74FtyoJHhvMkAmYgfLK/KGWYlEgkUl+xpBuPJFkhL4pQCI6TvSuM3ciVhcHwJaag1sMc1awmHdaTqygRcRDnQn4upmLhYtWIHe1BklTcMZH/PMxq8n2tfMgOeaZYvkCx32pa2RlyFMaWkf0yGHyxBue1KWhGhM5U/VdUpMbcq88lru65cqsnXdSoybkGIdgYnc/j1G5vMDYS3LP4qx1t2hyOlonoCKqjj//WJVToXBTf1FD2Bwb4h1fu+JOqCjO6tXL+VnPDxf3bLDfYhE/yrw1oq66b1heOFldqwHnMlD+qP0Bv1S3MgAKfIpLbwOVuBhUVFSbnbtjEChSKsRoVzG+W1ik/erdgwRAlrvacwsIfAZNh9GGxCg87S1LdPT5Mj/FSk3dcnvBDaASJv6o72f2uzz92VGrtOkdoHPWWb5bA5Xj6jZ2A2OPHrg7PKlBonpWwDRVsghlFQG7ulG5xW3/L4JInh1k1MFQyQFArs4+H6nTKmJ56SPIkoOE67Nc7xY1eNTQWyCzmHY/pVldgDZwLtYqamT32EZBOOhwbVFVnNSsfXh1IHCcMA+RdGYj4YPO5oBz3aOldYNcjmvh76EHSBYC2UzGq/zDgeRmHjA59/Zf/U+eF9PiH8hyGl+FCBWUpfvPswf8TJ5ZzWWAU2xciiC3CX9jZEFA+gDAb01ZooAqEosAOD8pyzL4joMSKKNbLloAEY2FVG89QaZafxTfplyl+cMan3skD884Doypgu0E9mIrw8UQUSg1xnP3OHQRJ3NMmh505q/G193gZHWthhWcLod+sBCApoW16nfMA82kyKCgBO6okHFAk99eFBTUgRN5owx/gapZgJB7WJ+JdH1qYqrzEc4tGYvp7A1ICC12XrBGms1en4lFhMcxA1Cx0yS/q6BR94PvKW8rSuTk4ysz0ZgBQGSnEawFqsiJn88dqJ6pmpLreql7w07kRAWd/wEl+QUIRIDGKSDFT/xdqPUu9RUvrWkto8QTs4GR6ggpBjAu9sajH1TcF3Sc1CMjmTmvCe/cL9G2qfQnYn/eITSq1rf75+5bQM5qhqIT2QbzYG1JjssXl0wmGnPw7wW08q7HGYGeHUol3LKsyLtSNfBovUgSXiWFqVY02DWcsCaiNhSSj1v66uEcivt97KSxToI0kBzdhq8PDFm8mqOqMtKpa9dxZ2dg56VXuJ4GBDUmH87qNocmx1Sh4Yx1B1OI8VWf9LWZmW6+gb/ifdoAGsa7ciYg5GLa8gGjJ4MbfA/mSZ5ME1Dp+mihiLpJA6cVuYAvaeRnF0aj7JFAzuxWZKj8RJ6y1YwBjb+VmDtNjL5OqDkpjrkCHKbBrwls43aCyLOxEeRFvJH6i0WK69Wam4xytwohV6xivQxNdd+A01nqF6yEHh/QxfRadwOiQ/8EyLDEm7LtCgu1UBOtpQAkUlTuYpQgao6rBzk8HKIGm+z3MiK4Z+orFelp4SxJPw6TJknscYuJt6rprZSwAbti+har4667Y08C9fuQEoiyPEHgkcFnEAWddCoamRAPBaY3ofxCVmNMORvipJGxWsAwEFPzLfAXh2NUvGeYksv1KEUKyzZXPGppRj8sSAAAtovMWYA7btQKJMIMcISVoJTclVc7UqE1tWpu7SbvodJ4Fxkg7/lQ5mG8l4c6d0HTL9wELWKipjvqQMUdIjauj3XQ9czeluyCNId4kEbIcW1kCpwqmOZudhzCyz5DsSXX3h6bSbXLHwaYHbriltc0HGyTb6fhH0tQQJ2fKh53iinwSuzqnr4eTltuaKeN6c3ZQ7YR26gA+skllO2VsQVSFfRdBfu0Y6zlFjZ9K4mxZiutrrGwxRWGDftc6Ad8Kd4twqYyupyYTPaEwRfW1TzHVwbuxES0739tlZ218JOpFZ62xMfzw5WDYAeRv2A7g/mxrFeY3hi+nUXs+cW6gydCsxavPhejQrQd+6KU5IrtIEEwyh1i0UQsq3z6kOXjXG7BDRkt0q6m6edcqgFdhQDcekno3KvtLDh1/JDUUEmxBOvS44we/WI5tKX3K1iDVf8i/Szu5ex6NWFGC9rxbOz/zrqa8E7GGW989jrswAHXhlsQuzmfRAKZ1M8ARkg7qPJTG/SFsMWSlf0HdjVi0XcK48PYHL9AM7Q3Y2Rw2+XG42yrAfcHvpqi666pEmVe7bgX3wUQTiovmHGt+CFnagirDKYj/RSLfYV22AynnX8UCysGA/nyzNkuMDRmKJ7i9/ZoJ0TheWRT8kFlAZA3RdUkUiJXga9bbnNpmi6RXUTs8/eNrwj/V5gMjPGndUfiF2TQ8cZQZxvHnOpLuKGWoWMhF73sBX3rX6bG9cQco3KECtOYgFEbtTcpRCVlISb6/rH4nNtywSxqRwvp+fU3GxVPijkhTtI221S7jSI3LjLz5c6A5DD2LFO7KIcPvqaBxJiKU4q7jmpZFqYlOYOQKZE9BgQuxaKo1l1KPylfPeaS5dIgFxiG/Mms6jzKg9P9hNUyWMndLWyYgs4nYHx0qIW2ErAAABCUEaQRsdmtPF7UW/9FuxKjl605smHA0k3SaECCDrs4sCa8b37bsqaJop5JO+sLa1HTJNAhVY2EqFFoP67lDQHI0cloZIrPQAFQPfDCLlyQMyji3I21tlYkLib9hH4i2NuEp0cc4KnLAovywbh0l/8iITBro2Dn/Niwo11lemEEgyu4OL/R67nByG5ZSj77qM5MxNQmZtBl9ssnDpdVXcGWeB8RytUsrMKalfYDMymr5DX9sICk4ap6aSPunglCjDCieL1a3ognVGphNJQk67b4e47lOOLZ++Rw20yoE7EQOeWasOZ03Gn+2Ogfzkif6XrQpCEL3pXCsDNAp86IMVv64d/siTy1NtT+YbYkO8bMDEvZ0i4yRE90ykErsq1LnSkhVySQRV3Wp946rHCyRzM7gGDEx2bM9LDHj6e/XUlaSGGsssST3CUEfPimXAR54hS/ets63c0PEu8cKMkcfxgG8f+A7fsSTTCZMXqgaBNkpSH/MkE16R66Q/EQe4C22Nlzq31MbEPnItgetqJAhZW7jNTbZpx9/edDqArzQQecyUnPXJXUMuTAN2t7nGbv6E2ybzNW6xRKIjFcZg1kwPJSAjIEdRVnc6Bjk7qqMXtsf1b6C7uix/8Yg+Av37PG4HXxE8c+nCTFL8Hsl6tG0SZMx4iDeC+iOEAChBBaoiRe+IE0I9iApPfhxd5f93kGWmS0Kt0J80b/Bp4+eKA6AiG5R4BeZacBJ3bzvfbPkI8AYzxF3HX+wqSy03AFhTlLSyJVtOINdVF09cBlyiwvqoJkeBKLICCrUps50VxBRsHXaa9kA4AAAABS8hc/LYdi2KSEEILUXgbGqetdL8hWsaE1gIttKEJwdbe4HQ0mlm8zy0OG1BXG0mRGRqRzpofCK6hV/QkNcJvf6MjUk6dRmh2FFdz5UX8LN7L8qK7kUwP4uari0tFi1SmyZbQDdmy9SW2YlZVHexiOWpL95S3FHVJWOYEkDnr2PoTur/W9gyL4Sz+pUZfhSGVcLkolldf8psKDrc4zB5aQ4kR4gpnUJchJiohNk6AwMYoV+1zqBKFmiK4RvelhmKoxJuODxBu03ywjz9YUObxhBpx1l7rLMrIZxkCfWV8uiecc9lK8UmR/x43v68QRZ5iBNgqwTLN/yDmIY7FiqJnVe2kHVubOj+NUyVmm3gjWZ/cfQkANKNEhmcC1QM3hlVY+xzb580MDn1qkRRf4B4AJ5JoG0GfXtA5LfHDoZulzAbO+wx17gsqz3TtUbashOXoIXOIgQUhFV0RGQMg+IcnlknIrMYkJjwZGUcAFJYAEnoRSR9JuZHavehQQdIe14FlpWj3nPUC1e/idz/Phfcp996qBNLPXv2L5sWbcH6ECAVlk8go4XPngyCSoYaf1JBZTp/vIOp7Ev4lEQsY9Tv+/PvxaobK/KdY3nyISL9p14oU3j4grv2TEaBJeSbQUyhedASPLS3EQUnEV9tZhN7qAEYAAyvbVedpb8t6c8lU8uWRQpDa4ChXsTGfV0WDQAAAAjh0nDx+C1xCKGvNXt+tmnof7DbwDgwAAAAAA=;" vertex="1" parent="1">
          <mxGeometry x="-570" y="190" width="450" height="401" as="geometry" />
        </mxCell>
        <mxCell id="3NOGvvGHzMsO75DAE7qi-2" value="" style="shape=image;verticalLabelPosition=bottom;labelBackgroundColor=default;verticalAlign=top;aspect=fixed;imageAspect=0;image=data:image/jpeg,/9j/4AAQSkZJRgABAQAAAQABAAD/2wBDAAYEBQYFBAYGBQYHBwYIChAKCgkJChQODwwQFxQYGBcUFhYaHSUfGhsjHBYWICwgIyYnKSopGR8tMC0oMCUoKSj/2wBDAQcHBwoIChMKChMoGhYaKCgoKCgoKCgoKCgoKCgoKCgoKCgoKCgoKCgoKCgoKCgoKCgoKCgoKCgoKCgoKCgoKCj/wAARCAKQAzYDASIAAhEBAxEB/8QAHAABAAEFAQEAAAAAAAAAAAAAAAECAwQFBgcI/8QASBAAAQQCAQIEBQIFAQYEBQALAQACAwQFESEGEhMxQVEHFCJhcTKBFSNCkaFSFiQzYrHBCENy4SU0gpLRRFOiJoPxNVRzk/D/xAAYAQEBAQEBAAAAAAAAAAAAAAAAAQIDBP/EACARAQEBAAMAAwEBAQEAAAAAAAABEQIhMRJBUWEDIjL/2gAMAwEAAhEDEQA/APqhERAREQEREBE0p0ghFOlCApChEEom02gFQm0QEREBERARE0gIp0mkEIiIClQp2gIm02gFQiICIiAinSaQAieSbQEKbUbQERNICKdJpBCIiCUTabQFCnaaQQinShAREQFIUKdoCIiAVCkqEBSFCkICIiAVCbRAQKdJpARE2gKFO1CAiIgIignXmglE81HmPNBKKN8bCkflBIRUue1mg5zQfuVQJo+f5rP/ALgguorYmj9ZGf8A3BVNe1w21wcPsUFSIo36IJRRv34U7QEREBERAREQETabQEREBERAREQQUQogIiICIiAiIgkIgRAUKVCAiIgIiICIiAiIgIiICkKFIQEREEIiICIiAiIgIiICBECCUREEFFJUICIiApChSEBERBCIiAiIgBSoClAUFSoKAiIgIiIJREQCoUlQgKVClAQohQQiIglERAKhSVCAiIgIiHyQFB2h+yxr1+rRZ33LMMDPeR4b/wBUGUPIb81p891LicFUdZyN2ONjT26ae5xPtocriM/8TcLbuPxmJsZSe23zNCq6UH/6gCF5/bzN1mQ+j4ZzZT6tuu267myH9tKUdf1B8ao4B/8Au503mss0j6ZG0pmMJ/PauEt/EH4qZyyX4zBz4yufJj4iSP7tWe7q3rKavHFBhM7hYoy7UVar3t16eYXPfx34qGR7n2OqGsbIO0Ckz6mb539PsoL2dt/Ey9i3NlxMr7fG7IeWnXqO0Bc/JmurMZjWx3OkcpataLBNGJXH86DVlx/E/qrGdV3m53LZqvj+8NhjkrNaQC0bP6d73tdt0z8XdY/IXctcyhoNl+XrWnV/odJ6AkDQQchW6wirYrFR5rHZzGztsF9ieSlMB2aOh+nnldB0h8S8XctWBTymZpPadRwVsfJOZBv9RHadLsX/ABNw14fIZZtG24RCRhe4ODifQ+y28WLx0MzpcbUo4izExsnj1AAHB3oSnQxsP1hanD5sXl/4lCziRl+MVZGO9u0gH/C6GHrSWtHXky2PkjhmbtslUOnH76HC47qDohuZisRRYnBzzvAJyFh2pAfcHS5mXEfEHpGCFuNy0mSoseA+sQ3wWt9R3Bu/+qD3nH53G3wBWtxlxG+0nRH7FbMHY2NEL57kt3qrI5chi8U0Pk8SSxVmc+WNvrxoLocB1vCHQR4/JOs7kI8OQ869lPkPZEXL4rq+rajHzbH1393bsj6f7rpo5GSsDo3Nc0+RB2FqXRUiIVQQohQQiIglERAREQEREEFEKICIiAiIgIiIJCIEQFClQgIiICIiAiIgIiICIiApChSEBERBCIiAiIgIiICIiAgRAglERAKhSVCAiIgKQoUhAREQQiIgIiIAUqApQFBUqCgIiICIiCUREAqFJUIClQpQEKIUEIiIJREQCoUlQfJARQT6DzRxAGyQPuglWrE0VeJ0k8jY42jZc46AXL9X9X18RSm+Tngltxj6o97LR7kLyDKdb9N5Sg+11FXzTCCe4x3CyJxJ/wBAdyP2U0ejdV/GHo3Awu8XLwWH6I7K7w52149lvjZh7LDJWxdvLT+UcN6MOZz7LPi+JXTWNovgw0+Eg7P0ttwtc5aif41PqzQFo6dnjd+sxVB9P+VNFnH/ABpztLxBX6Px1EOafDkrx6I/K19P46dXxx5N1u1j2SOZ2RskJDoz7j7r0Gj8SI7czRXzfStkzNHh1Y6n81rj6E93P9l2GP6hmbRL8l0tBJO3nujijAcP3QeJVvjJPFVoRRZy9ZyRfucveCwj7L2bA9att42G3/tLi64mb3GK7Lp7SqM5c6PzcUdbqWrToOOnRwdrWyP/AAQrGH6TxlecWOkJqVRhYdHIRGwD+xISDcC+Mmzx31MHn2gFzzSj7zx9ysKWXpm3QFK5HRoQ+KLQpzBrR3+nC1WSxfUNi1E+eu7LQxgteMAPkSQffb+f7rXPyTcLkGQMwljAubHvxc2WWu879C1zv8lKOgy3TVPLUnOjx+HjpyN7e6tD2vI+xWim6bOMgLKUuVYxwAAuS90Z/wDZZFS/lJm371JrctYMXdDFUPhxl34J0tpjetqWTyMOOyOIvYzIvBaRaexzAQOf0khQc83K9VYuZ4mqw26Wg4OhadAD8rfdM9fYnM4u26xehovgmEJglkDQ7jfl6+a3z8bDJA21X7g52z4pfuJp+7VzHUXR+KysLnZeoWzv/RegPhwt+5aOSoOis42lchjlrwRyl42HQj6CPuudy/TNPxRYlqfLyxDbJaA7Bv7rm8F0rnOnZLb4s+cjQc3cDow5gjP4JOwum6f6xhtSPp5B7PHazXj61Hv7hS4NVBTv1IG7uOuRBxc1rjtw/K3vT3V8lFzRYssryb7flpnaB/AWdapU5iz5Ww1j3ctfvbXn20tNlcbBZmaMlW8O3EQYn+gPoT7rPg9UxPUVLIEsa8MmBALCedrdD28wvApLGZxN580roJqsn1OkiZ2lp9D+F3PSPXkM7WwX5A8B3Y2Zo0P3XScv0eihCqGSNkYHRuBa7kFVHy+62CIPLhEEoiICIiAiIggohRAREQEREBERBIRAiAoUqEBERAREQEREBERAREQFIUKQgIiIIREQEREBERAREQECIEEoiIBUKSoQEREBSFCkICIiCEREBERAClQFKAoKlQUBERAREQSiIgFQpKhAUqFKAhRCghERBKKD5cIgkqCtbmsrFja7nu+qQA9rB6n7+y89zPUuYudrLdyLBVneU9aRsxP/ANw0FNHb5/ODGvbDFG2SR7C4HvA7V5Z1NmKV7th6g66ihY8f/KwR+E4H27gdrkMjW6NtZQxZHr/NzWt6JfAA3+4aAsurW+ElW/FVvCvkpHcus2Y+5x/dTRaqWegrbrAp4S1edDxPMcg4Egep27lao5/4W2K9tzem7E7amu9vzTtb3+V2UfTnwqfH8zRxNmWCV5Z3UqUsjCR6EsBWim+G/wAO8jNPFQyWTwjbB06N9Yw93Ps8INjWo9KQ4+vkK/QwfDMAQ42gS3flwStlPi/hpkGRx5Lp6VljX8yNschDD7EgaWpl+FE+PbFF0x1S++xp7hBcmY1pI8tEBbiGl1ziod5vOPqsceWY6uyxofu3aQWmdCdBzaHSVluHsl3JdG47/wDvWU3oGzWutc+5P1E0N26Fs/y+h+QVifOzXLbYLVH+PAfTFJlmml2//s/9lsI58bXn8Od0mCnYAHMxhNljvy7SDBcauKy8Thjp8FYh2DJKHXQ7j91EV6lbtWPDmdkZWkOaADX7f2K6b+PZDHCy+WWu7EsaC2yxwfMR7lmuFNmnh85Hvw4bTnjfzJPbI3/6QpaNRJnbFPwmzXPpeO6SnGz6vx3hbXD9U4vMsmga1sbIR4ctecdzj+5WBPg5qw8ShNutH+l0g086+y0GUxNC7I7vElKzO767MbfqJ91nR0tvpXG97H4501KxJ+mNjz2ken2C02UofyhVzUXfGw7Y9nDh9+4cq1RzPUuDuijkK0eVoP8ApgsB+nAD0doLpsXmaOaBZB2mU/SacvABHnymjh8DiLeAks2OmsxPbiceYbTnOaz7AOK6zG55tx3bdYaVl5Gy762n30PRTfx7WTPfC0xnf6AOB+Fq7dcTnT3yRy+QPapquiyNZ1bxZ65DZA0lnq1/7eQWhzGCrX5AZm/w/Kvja5kzR3NcfbXksSvkMthHuEtSK9QPBd4n1Aep0umq2qeVqBx7nxs+ot19cY+w8yg5bCV+pcOLFN7I7cTCHeYBeD7H0XQ1LtPIGWOFznNGu6CQFr4z+TyViytfE8irJIWxnYe8ac39lesx0c3ETeHyebhb3V8hENucG8kH0+2kgt3D8i8F7xJWk+lrte/oQsLJ1brqsbsdVY9sb+6RgIaXN9dK/ickzKwMlEcUl6Jh+Zh7v+K73/P4V3ta+ubkBkZ2jufBI0tdEPYA8kIK+jetpGVZjG500kBJmpu4dG3eholer4u/Bk6cdms7vY79iD7LxebCuvZOrewz4q108ufvQkGvI+m1d6J6ndBlXd9mQ35JXxT0i3TPoJAcD9/Na48vox7cOfwpWFishBkqrJ60rJGnz7TvR+6zPt6roipEHkiAiIgIiIIKIUQEREBERAREQSEQIgKFKhAREQEREBERAREQEREBSFCkICIiCEREBERAREQEREBAiBBKIiAVCkqEBERAUhQpCAiIghERAREQApUBSgKCpUFAREQEREEoiIBUKSoQFKhSgJ6IoPA9NICFYl+9Wx8BnvTxQQN/U550FwuS+JTJpZYOlcPdzs7NHvq9nh69fqLgg67OdQUcPCHWHve8kDwoW98h/wDpHK4XMdbZ6/f+S6cx0FJhZ3fM5Uug0fsNHa47Kz/ETOZY26nSvyEnAY+zo6+/BK2WU6F6+6ioR/P5zExu1o/7u89v/wC0p2NHksD1tkp5Zr/W+JrFw075adrtj204Kin0DgrNBtTK9bZORrOe2CWMj3P9K1D/APw+56xOI39U4x727JYyBwJ//aXPWfgx1zg7laauz5ysLDPGipfQ90fcO7zPttQdlB8GugctFJ8t1Zk5Pq7STNHwfv8ASudm/wDDrC7IsjpdT1pIg/TmPmb39v4HqpyeKymJ6gtRQURhcU+ZsgfkNd3kN/pOl0vSVLDvfdkF1uWszWdluMePF2R5A78k7VZpdCfEDoigylgOo5v4DHI6QRUWMfMC47PDmka2syjJlLmQiOaptuzBugeoB4DT99gf9l0cLJcR4TqBzWGkkk14mXlDoda9QCVlgS37LX5GNnUmvI1GhzGH2IJRGtmFKvJAy5isLXbISI5sFIZ5mu+w0Fs6D5ab9Y7L5GGyQXAZloha4fbjlY78FhbOUdJZd/C7jOYqmPcIZv30rV7AZUXW2a9oXWmM+HWzW5X/AH7deSmjZSX2Xa0x6ixgyzoif5jYu+uPuHLGj6VxczO/p+1ZoCc97ooQPA+4J15LTSOmEDq2Q/iuHfMCHMY8Nqgeuh7LXx2Mp09jrdrEvlydWvGXsZGdxuPqCFNMbSHDSY573fLtkikJa58A7hx7rBr46CC/Yt17VmCWTXb4IB7fysrpj4l9O5gw0rlplHJEbdCxwbFv7hdRksVBOxk8Eb4nPAAnj4iO/JQaDD9SWa3jQ5iCW3HE7tE8TC6TR9dD2W+YKGTqiaCRtmAt5DeZwf8A0rUzQWKT3QzdjNceM0aD1qzFLjSZaXZWkJ7vEjGi78+6mq25pvpkupzyyVm/UY5OC1amXF17UgsUJPlLzD3b32tP7rb47qGGf+VkBHHYH1iRo0yTfoVmZCiHAzdjAHAGNzR9L/woNLj+o7Ndwp9Q15BK12mWGt3se63s0UNjcjJXSxOG2yx/V/daiWRw/k2onPd6Bw2QFNZsVdnjYqz4DmfU+CQ/y3D1GkFTnOqPIdE58TueR9LvwqH1qcdht6lZsVrLRwY9D/6T9lm17AyVR89Z7Hdg3JXP6m+5b7BYEjGCky5JNH8q95YCP6D/AMyDOq5mLJ2P4bPFEzIlu3PB/wCKPTf3WM+NscTpKh8eKM6fE3l7Ofb2WizWJlLnZLGSPjyVcAx6PEg9v7LM6Zey7ki2J7qWUmjc2RzzqMnWtOHqT6Kzs8W8xgXSQx5npbsq5WMiRg1pkw3sn7njhRDmp+rCZap+TzlaMCwyUdvef9DvYbWJ0rnZqPUWU6WzzmwzUWmaI7+oNaBoN/5eQs3qbpqxdjr5fDsnhyc7BI0xHTLDPPtI9XH3KshqvHZOGKzMLTRWEDQZq8g7XA+r4h/Vs+q3g6YtZWGC/hY6tfK1XukE7hxO1wIDXH8LTVsHR+ItBzoXCp1PifpcJP1NcAR2v15t3vj3Wy+BOayImymGz1iFtupM5gi/S7QJAOj6HzC1kRT0XkrOItWq76clXLRyf7xSjaTHKP8AW0+Z45Xr1C3FdrMnhP0vG9eo/Kw8pjI7LhbgY1l6NpDJCOdex+y5/G5GetK6xOYYY2O7J428NB9wrJg7YeQRW4ZY5omSxPD43jbXA8EKvk/ZaEogRAREQQUQogIiICIiAiIgkIgRAUKVCAiIgIiICIiAiIgIiICkKFIQEREEIiICIiAiIgIiICBECCUREAqFJUICIiApChSEBERBCIiAiIgBSoClAUFSoKAiIgIiIJREQD5KE2COEQFKpI535la/LZrHYenJaydyGvBGNuc9/kg2J4OyeFx/UfxG6YwPjMuZSA2o/OBru5/9l5n1h8Zumrl2anGLOVqMG2Np97XPPtsLkbfX1qjjW2OjcLboyTvPiw26Ek7teh2Qpo3Nr4nSdU5e8cVhb95kbmthi0A1w1zw7QWN1DF8TcnBGzC9JT46Lt/VDYijef3a5c9b+LfXXgNZHR8A9p8WY4h4H7ccLRV/iN1M4stR9QSSXQ8dlXwCxhU0bo9MfFdgHiU+oO8t51kxr9vrWXWzGVws0MfWOP6mLOQYILha5x99h2j/AHXWdI/E3IZ5khzuRjxduD6Gtjh8USO/AXRYnqTqPKsk+TkrzzRk6ZYrCLuHvtymDzWXOPyWVY/p2PKVTINeHPOTI0D1J2uywseZrUofnOqBi5idxOtl0vic8+q3/UjY5o45eqOmo5Gga8ataDde/wCnRWq/gHStt+Pu4DJz4i007aJw+du/bTzoKjcTXciIWur5jEZi2SGmL5Q7f/c8K3mRjppYR1FjZqJazl9J/guaf/UzRVrM1+vK1mKXH2MZmcZGdzMELa8hGt/S7Z5WFD13JE5pvxSYp5HMdiAyb+3drSlyDLb0tNDbiyPTWdfWgczTWZt0t+N59w1zwQf3WDYqZ9mQlGbqTXYWDYnwrvk2Ee5b37/yrNya/VhiyOCrCWCeUvlLpu7jzOmnyWTieuMZkYni1BPDdB7C55LQ3X/KfNS0YTzY6gqx06HUOPpS13fy68sBfb36Ayd3P9lNXqTqzp4yUepMWLVSNpbFbiA7i0eZJ3tdVaxtO5Xjmb4c9QjubZi0CD+BytZPFkKtfVc+PVkP0xP5c8fk+SzaMzG5fHZmvAyjYjlf4fcYZT3O37cqmXDSVnmbF2o47BPcazmkt39x5LnrGFxFu+y1FRkxd+LjTJiQ537caVUefu9NubHl4XWakjvqewbLWn12mqy5YaNyy2znMZWZlowWtsQxhrNfhY0cr+m3yWKcN6SGX+qacyQ69Q1hP0/2XSQfI5SoyxX1NXfsiQebP29VrnVpcdI2SF3jVpdk9w35emj5IM3EXcdmq8T6sny8ssZe6tYd3PP49lj26T2AOrs7mgakY7ksK0j8bTfO+ep3Vn77jGCfP7FbmnkmQsdFm43tgkb/AC7I8mu+4H/dBrp6kM2nv0yRnI44Ku4+a7jo9zwy2cUzbjp3LPwSs/K1TBDA5jAdnuDwdh7f+ywYX9srjDIWgj+obG/wp4NjK+tlKUM9KVk0WjqRnnEfZ3usFsMnikSxh0jmk/TwCFp35CbDZpslsaZY39bR9L9emh5Fbm/FPmq7ZcI4CCCEz2YidOie3kDfr+ysmjTZOtexxivYeThp7p4gOWj1B91tauTg6j6btOwcbbOWa126YIHiEegB0AT7qMBbZlIalqvIwWXVRY7OPr36aWis0rDsqzK9LsfVyrJCZYO06P30nlNbHDdR0shkLFKxKym6BoY5kvDmPHBB/dZlrpuzdyDJa9adskoJ8RjtAEeRWj6mxj/iJXklxNZsHUFIAXmb8PxQN9oH77K6P4DdayZE3Ons48x5aqdMikaWvcwDk8+f5WsGgy3T7uqrL8DkZW0OqsbEW1rZ2fmWHRPqO4ngclbL4TdZz4qZ/SnXEkcGTru7I2uGuP8AlPsvRuruja+bhinjLm3qzg+vK13a4EHet+u1571Xhr3VElW9UgiZ1Rhjp0Lnj/eGDz/G1fEdJ110raY9/UXTEj4cnXZ3PjiJAtMaCQzQIG9nzK0+dxMXU+Kg6s6Pd4edqMLZ4gPrkIGjGR6Hfus74SfECjmhPiLsvymbilcx1SU7c0hbPMxs6Kv2s5Ug1UsEG7A3yAH9Y/O+VRb+DnWU3UmJMF6B0dqAua4udskg6O/3XS9SYnxS+1G5jGeG5krC39e/X8rzLq7FTYDM1+sOmZ3nEW9PuRwjuG+O1wA/yvVemMrD1BhYbkRa9krf1A8OHukHOdC5CzjrpwuQaWwvZ4tNz3bJZ5dq7/fuvPctiYcb1Cx0RlInjIhJJPhv37+y67CXjbq9kva2xH9LgDvevVWDaIg8kVBERBBRCiAiIgIiICIiCQiBEBQpUICIiAiIgIiICIiAiIgKQoUhAREQQiIgIiICIiAiIgIEQIJREQCoUlQgIiICkKFIQEREEIiICIiAFKgKUBQVJUFATatSyMhbuWRjB/qcdLnr3VcELg2nHJZOy3bRxtB0ywbmVpVAfGnZsf0tOz/Zc5Jl7w7bGR/3eBw+mKHmQ/sVrN15XvmrUImyvdsSzN7ZAVNHTDqqg48R3ePM/LP1/wBFWOpsc6OV/dIDG3u7XMIJ/C5qb5kVXuOYuRu3pzG9utfbha+vSa6s6fI35HPa7cYYQXu/IU0bml1jfyLz8lidQkkMdM4sLtfbSO6uyUT2ibFNfG7fMTy8jX4CxIbV2zKyHFsh74hsvnJbra12Zd1FhMJYsY6alLN3AGNj+4gE86/bami11X1bmMq2Gr02yerZe7sPczg79yRwtDP0fkZS0ZbpXpnKydmpZLeVcC93uR2FbfHWbD67Za0lmSSUbeJW67fwt5QwOJjhbZzjoHtf9XbI7zP3TR5jn7troauX0+gcEwSt0P4beMpb99eGFRj/AI05Z+Qa7HYuvJSjaGPrTyeE8O9fTa9caOlDDJBj4q0Uh5HhtA2Vyea+H3TubjbdvluJuRuJMtDtDpB5DZIO1SNTS+KFvJSZF2VpwQRxvYyKmHdwkaRye7S3VnHVbskHgdGYW02SMyucLHLf2AXMXPhY2B8cuBzbZwD+jJyBu/8A7Qqz051lhp454J2w03ROYRhj4pJPuHNQbSbp/poSV5mQT9LZIv2ZacHfGfbbnDtW2s9N5W1br2G5qLqag1unV7jmQDfvtjeVydHqrJtD8ZkqtnIwR/rGYj8JoI/A5W1gMfi+LE2CsSAW1sc7uaPupeWDHkyVjB1548h0iG153ljmRSPlAAPBHCyIcp09nHspOuy0YXN2IXRdgaR5AE/dbWp1fbr6jvwB7Tw1so07QVdzH9MdTNEhgcLLOHFrdOaSp8hrMhkrXTNWKadwuVJHBsXa7fafQnS2+NztPqCq9lmWGzO1v1QTgMDfwfVaKTp2xgz/ACXm9ReNiKXyaVr58Pjsu5ngmOnkmnfbL9MRHttTaN7a6WjZLLLi5DRsNZ3s8PmM79OeFo5artyt6ix2mtaQLsQLpB/6WgcqrE3Oo6cktK/2PiDi1hJ/lkenaV0+PycGSniZI/ssMBBY7y/ZFcL0p0/ax1izewGatuoDYMVlna/f2YQumw/UsM8b6uQb4OX7w3ufx3/n2WTcxjoZPmq0v81/JLzp517Bai5HWyI8LJwMjs8BtqIbJ/8AUfRQ9dHZxrO3texoe8b/AJZ7mn77Wrga+KGWvY/n1h5tl40Pt7rXY2bM9PSGOwYblTemtY4lhb+fddLE6lnHzGFweDEAGf1Ru9e0KejmY8dPj8g67gbb2dw+pjtDX20t9Rzte8flshUZSsvcAXgkiQ/c+i172NaIZBIWOc9zGk+fHuokdFODFZgjkZJ5b50Qgz7dN7LMoZodp21hOhr3B9Vjh8zo3xStD4HghzH8bP39ljYzJtMpxuSdqWIH5aw79bT6N/CrtRzVmRWswbDYy8NmMbdsc31IPuqLOOyD69yai5khiDdNplp8N+/9LvM/gLKzbzVxD80yJlivBrujB5I3ojj2Rgjuz4+zQnjkcyY/KOc7lh0R9Q9OFpI8jZ6ey9ypkXwSUeJexp3G9zySefcHlIa6C3Rhussiu0TUg1vfFJw6NxGxoea57HT38PdggiDpW9wibKOQ5pI+h+hobWB1RPnuj7v+0UJblMJeaDM9zvqh0NDehrXovSegLmE656NP8KLIXSEGy6L9TZf+/wCVfia8x6w6V/hclnqnpNkseTqSblx1fb2NI8+0eZC9K+E3VmM63qiw+q2ln6zQJ4XbDwPIb3rz89LNow/7PTOjsVoorLfobYH/AOkM/wCY/dcD8U8JksFlafX3RsEEZiaG3Ym/SHMGySdeY5Wp/Ud/1l01apZCPqLp5gdfgPdLF5B7fXj1PmuQ+IWIZ1FRp9a9HuNXP0nAS9jdPkHALXD1A9l6V0B1dS6xwcd2o9hk7QJWNO+0+q5jN0JOk8zJk60f/wAJtSN8VgHEfOiSqMv4U/ESv1fFZo2x4OXpERyxuGu/gfUFjfFDpm1WlHVfTTnw5em3ulYzkTMHJBHquC+KXTtvBZut170ITbi7w63WhPDgdeWvLje17F8PuraPWfTkF+o9peW9s8Xqx3qNJ/B4n1xh6ecw4+IfRkvg3azCcjGAY3fQCXuDdbLu7hewdLZSLO4dtWzJBdmjiaXdzx/M2PUBcZ1XFT+G3UljLyUA7pfLEQ32tYXiM6cS/tHoToLgcviX/DLrqjnumn93T2UeCx3BDJHEuc3jgN8gFB6bjsk3o7MvwmUk7cJkXObUdIf+CSOWfgk8bXPYmc/CvNtwkk73YW/MZqllrjJ2MAALHa4HJOvsu46lxlHrbp0fNNb2TNDnbI3E8ctH25XmkVU9U4mXpPMR2K2TxUf66/nJI0bHaT6HhUe9OZDl6PjV5QWSxaa4em/Vee465Yw3UYeGPjg7vDt7addg3pw/JWs+B/Vs/wBPTGWiZFkKrdTBzv5niaGwQvQ+uKjJMDdsBrRK2P6njzLR6J6OjjeHsa9vLXAEKra474d545Sk6pZkL7lcAuPu0+S7DyHCsEoiKiCiFEBERAREQEREEhECIChSoQEREBERAREQEREBERAUhQpCAiIghERAREQEREBERAQIgQSiIgFQpKhAREQFIUKQgIiIIREQERD5ICdwPl5e6pedN5K53MdWUaLXNhPjuB7T2+TD900dDPKyGJz5HdrW8krS3OoGsYw1a8s3icB7R9LfuVpjDeyET711zp2fpiiiPYBv1PusKeMNkEVu02RwH0xQAtIP391LRk2g6zMZMjfhm7D3eFEeAPwsOmDXE3yMDmxjkSSD6GfdY5t451q1A5/ZJDEHyN9dFXsfJdycTmOqSQUGDbJS4fV+QsolssJc2ad01268El8R2xuvZS21NdhkkhfXd2AuMeiXjXorle82kDHWfCH+XcW7CsGywX+x2UoxW53BwibHo/hFa+DNzWajnw0HSTg9jYCPqc5ZmOrviqCzlIXw5CVx74jrUbPQD7pFfbZy87H2a0liqNkws7e0/dZMOPt5CYzQRSu7/N73bH5UGTFmzHJJHXxbiXAN8TQ5WLPlKvzhhjfXhtEdxZIOCB56C6CPpSv4AbPPMZNcuY8tXCR9N28H1HYgdIJK0oPy08w7iAR9QKvY2OOuvtfP23S1jEJg1jYRrQ0pZRs3nSSR05JxvQ7hto/Cz8TBXx7KsGZsV/CjZtkkbewP0fMrov8AabCxRbhtxO1/TGEg5LKdP5atg7VqnWpmw2MlkLYz3k+wXK4ScXOncdPbmLcg+eWN0Tzw0tJGiP2Xp83VbGte+KlNLGxvcXBwGguKifVgllq06DxPI8zguIcGlx2Slwbqj0zNkq0bpjGyMA/UR9RWWOkJYakrMfk71W15tcJP5ZPv2+yxbWUy8kBhbZrQRkaGo+ViVLecrydtbJQObo93isLtf5TYMm7BflY6l1Pjo7cBAabNVug7879VoL/TEL4pDhLDab2jUbWnUjvttXbHVFjI2PkWxyXLEbtyPgPY0M99ErIpOmZjGvbEWtbO4kuP1a/KDUTC1j5WVrdYSfSC19hvc8n10VYeyFrw6u2xVtO/WCdbXSR3qdv6J5Wbf9On/q/YqxbwTzY7sbuWINJdC7l7vw4+Sz8Rr6Gav0Y5GXq7rdZu3kMG5A0eazGQYLqWs2aqQxzmeM0kjgezvutXH2sPh9kkDg0h0Mru5342rDox2t8HUPaPpa3hTRkWYbeN8Nts+JB3fSTyAPssOxjq9h5noyPim82hx5/ZbzG54sijqZJsZ54c5u+FZt44hr5aru7fPaPb7Jm+Kw8Vm/AsRwZWJ4cziOR49PXa2tmM2ovHJougfwx8bfoI+/3WmkLJ4/DlZtzf0k+YUxMkhA7HHewXs/pd9gPRBVCH1xI2KWJ80R7mV5Odj3A9lXDHBZstnon5O/5gjgd3qPwsuWxFZgEkVcuiZ/xIxrxGfl3ssKWAw2Gy1pWbI7oiedn/AE/lL/EZmNtQ5RzoC2uci0uEYI+h7vXQ91r6xsOMleShYhfXOp3vA0wny0tbdrtjnluYnvjmi+qxD3fUD7tPotvh8n/Gqjm2pxXyj+GPd+mX7a9T6cpO1xg5XHCzCWkgWmNJjmHk77FTg8o6WhJic1JIYJh2d8h2IX+/2aFrcZ1PUq9USdOZn/4dbIIc6ydhrtDWvTXK3mY6ZyAex81CXIQRt7vmKzgxjm++t7STscrLmbXRt+Grk8d49EyaZcqt02RuuC3Z/V7r0Kp01DmMa+RtX5ilMA+Fx0XB3m7aiNlPG43+D5l7Z8NeYe2dw+qu5w2QSeePLhcl0fPnvhv8QJsHZfNkunbjGy15CT/L2Se1pJ9BolayVHazVK+DyMrchXkfirbA11R4BbsDWwDwvNchUm+DHV7eo8G11jpDJc2YBs/LbLR3fcnnhfQOWx9LqPGsAeHNP1xyNPqPuuQrTU5JrvTfUldpEgJ28fS8f8q0Opq2MV1n05HaqSMnrWI9se0glmx/grmoLhwNkYzMxF9GY+GDKNsc1eZ4K9a+DXXkuNtB46Oyb++q4uJZAT58ny52vdOosTV6lwwiLm7kb3wy/wCkkcFPR4n1PSn+F/Vw6i6WbIenr5DrMLTuLv8AU69PP8L2vD5XHdW9OQ3K3ZYp2o+WEA/3C5ejkqEtM9J9T1xG9zXRNMmu2UemvbheedK5V3wo69Z0xeZIMRknudDK76g08BoB9Byg6arNL0H1G/EyQmfBXwXtDjvQ4BXHzS2PhZ8UorFUB/TudPieGwEGHyH4JXs/V+FjyuIkjYfr4lgkHOnDkN/BK4FjIuu+mMh07nar483R26IB4afEA+kDXp9lPB6plcfQ6o6enpXGiajdi7HgHzaR7+68X6RoStfnPhz1UzwqzdyYqXzcYy4kad7gALO+CnV89K8/pTNRPgkhcYoXyu7nSSgnubv7aW8+N3TUl7ER5zHOniyOJeLLfB5dOB5s/ttUcj8Muqc7jM/e6c6qxscNKvJ4RuOG3Oc46iJ59RpZ/XkDsP1LRzlOWeKfGyiC2xrebMby0uf9+0Dz/K4/4v1R1H0njfiF08+zUj74nXoXTEFwDgGktB1sFeiQWx1R0pUy0G5ZYIxVm9e6N2u9/wCwU0cp1RbxOP6lrdZ4F8UdXJdtWeZx04vceJAfwNL2zCZClnunWSMPj1JGmJ7jz3a4JXiPRVSqHZ7pEwSPisROOMfL9TfCIADhvk6O+VPwk6ol6OxGXoZGObIyY+Z8Do4SB2hp1vRPqro6VzndJ9VY6xj3MtYeaR7JZY+SN8BpP2K9ka7bGuHqNr5bPU+N6h6mipW8dknTvkdI1kFjsjaDsjYB1te9fDzICxhzQle99ulpkpc7Z55HPrwkHWIgRaEFEKICIiAiIgIiIJCIEQFClQgIiICIiAiIgIiICIiApChSEBERBCIiAiIgIiICIiAgRAglERAKhSVCAiIgKQoUhAREKCFAKb/sse5chqR90zwPZo5J/ZBk742sa7er0ojJZkaxo+/P9lpctmBBG2bxjDERsBo24j7haJknz8zp5Mc2yTyyaUlulNGRezkmRnZ4DJWRAkaII7vusfx460ThecyxK36mVWsG3H02Vflmt2Jo2WLEVVruOHDQA/Kw2GqNOwzmOe7h1gHfd7rKL7m5DJlli2G1onDmASAdpUOdDQc8tst4b2klvcR91jSVY5GyPtF8kocAdjQP3WLk6cH8iauwNiaRE8b9PdBkW46ss3dblYXzsDI/6S/1WQ2qbMgbyyJrdBofrawm0IX+FeyNOKeaI9sHeddrR5FW5LDpHD6HMOzpsYLlBvoMVS8JjbEPjzP2e0P7e0D7rSZPBw1crHdxxAjfE7xA9wJY7081iZLIT4mu2Wz8yBICQ4xnTT6bPosSSS1YwlZ2VZELttwkjEL+5pbvzPsVVbuH5OjEPmK3jzSs2Xt4LnfdZv8AtHkmwxRVacdeNvHcXh3H4V3A4p+RjabDyxsI7NtG9lb9uCxDIyJYYnkebnO/90yjjMl1BNVhhNy8Ks9h5aw+fcfbSw8rYsZC3jWWLupZGuJb267QFtPiZ0dRv4NlujABapvEkXYfM7A0q6/T8M92N1mSJr2NAEpcNjjkKWUY74iZGQwQPsaHaCRwfutjUwWUdIx3gxVmsPcAdO7l08FqlRrxQCxCewaH1jZV+LIU3hxjsRnXnp3Kufo8Oixubt9a3sZlJPCaCZSQ/tBjJPbofsuw6ZqXr7bJLRC4O8LuI3w06BV/qu1gchfZY1O69AQC6OInYHoT7LZ1eq4W02OhoPaf0tBaR5e6ZNGfX6Rx7Wg2A+aX1d3EA/ssHqTo6nJhLgxokgthhfE5ryfqA2OFbPVt/em42N3/APEO/wDordjrV0b3brNbJG0lzC7zTYOE+H8Nm50z4+SD487JKa00Xh9n7f8AuvRsT0s18I/iTXdoGhEHnj9wuXnysty5FcgElfxAJWMY3uG/ut1YzuVg0x72ctB7hydpsgyuoOg8XkqzY4oXRyNPEjXkELlshisz0lQjkkldlMZEACAOyRuz/crZfx/OQzMkbLHPE7e2PIGv7LWZvraxcx9Z9dse55GsERP0H6tHbk2UZrZcf1DUYTFtjRwd9r4zr19StFkKDqk8bpnunrABrJmt12j2IWxmx8VwXLUD/kslUlDT4Du5snG/NXqd2c1nsc0Fu9vH+o/dQaKWPtkeyVvfEWgh452P+yyKd6SrGWOPfWd5Eebf/wArOs451bxLmJc415GasViPIe7fVc5HZY2Obh7e0/U0tP8AL5WbMV0k9Zt8FzGtbZeNs+rXetWxhaPCnjeyZnDu70VlpDpoo3ue17QXMkaNln4VOYz1nHw0nXe/KskmbE6dwDXMaTzsNCeos27lvGWoZ4n98YdsFreCPYhZdCtVu3H2PGIiH84huz2uPmQP+yyXwslx9nIU29kDZvDNeP6u5uv1H2Wp+Vs0cjXGML4ZLH1Rdw4YfflO4rY4nJ0c7HFRgebD3yPaX9vhk9pPGvNazN0bMD6ZfVNdrnF3jtPcCWnjgeSjrDCZVuAq9SdJTthzuNlfJNXLR3SNILXAN9ztdx8I+pcb1h0w6CxCxt+I9luCT9Xf68LWHjks1Qodb9PzQZ4ClnYtirYYzZPG9e3J4VfwW63t4+0zo/rKR0eRjaG1jLGW+J/ygnzXbZrpplaaF3jPbVa4Oi0P0PB+nf7rl/ip0jJ1niWPp2RX6pxjPErWWeb9c639yqjv+q8A6/RlFQN5HMZHn+FzMmIo9Q0Tgcm58Vqq3cEwcQ5riNf4UfBbr9/VOKfjsuz5XPY8+DZhcfqBHAP762tj8Q8VNBJHlcex7n+UzW+w8jpP6OG+GHUV/ofqB3RPWMrtOcTStOB7Hj0b3f6uV6h1t05HnKLZoNNvV/rhePXXOv3XnXVmFf8AEjo8NgssjzuOPfXk79Fx8zsfstp8EuupMxQ/geb3DmaQ7XNceXgevKShk/4d8ROjZsHmoDDeYfC7HDlsw8v2Wg+C/VlvCZyfobqWN8VmA/7o+RxcZRzyHHzHC6j4k4m7iLMnUWBYCXMLLUYH333/AJXHfGHHWsp0/TzuFoOlz0Fdp8aHZLWAbBBHrv0+6D0r4i9Mw5mqy5F9OQq/XG5o/V9lxvVGJq/EfoT5KUsZnaY760rnac1zeSR7eS6H4VdZRdedKwyd7oMlV3HZhI5Y4caP9lpur68XT2WhvU2ujryPA7owSWDY7gR90/owfgT1nPmcfY6YzUm8pRaRC4+bmtHmfvsrN61o2cHkRn8dX8S62Pwpyzj6v9Z+y4P4h0/9keucb1v05A92MufVOWjtEZPaACPvyvaYsnS6j6bjycLhJVtReDZawbLQR9X7oPF/iNUyFmHHdcYRvgRViDIYhy2QA90h+x8l7f0N1RX6v6Vr5CIdncCyVjtEgjg7/K82wMb6Fm/0nkWv/hWRDo2+K7XZCd6cPuQtV8MMnL0x1zYxU8Qgo2HOY9rgdNY0nw3/AP1f90lF2xRrdN9Z5Do7JSD/AGczxMtfxjvUnG2D22TtaPoJ7/h71bnMPlXSHHxy+DG3uLgY3NBJH9ytz8bs3i8rJJW6fldcz1eWKZhEf0wBhDth/l6eS5zqnNSW4+ms+2R8l1wZZsteztFhoIJ519tKjJvdeY1mZFzFTNgkxtz5aKZ7D9FTQJ2D58/9FiddVv4N1mc3Rtmwy3WZNLpva2Qkk+S4f4ltjh6glz8laKfGZUfNOgafpjOgAw/2XqfxGhxxxOLlsyz/AMPdVYa7oIi8Ol1ywkeWgg846vqVsNn7X8x1WERQ2SGyHueXuPcA7zC9y+Hdl2B6yir067I+nM7D41aZ8xkeZGNAPnzo7XjWe6dv5ro2U2G1zPht2p7LpPrfG/fY0cc6H/Rbvo63dyPQuOyDrckD+krUUAbGN+K17ml2/X9JQfWSLGxlyPIUK9uA7imYHtP2KyVoQUQogIiICIiAiIgkIgRAUKVCAiIgIiICIiAiIgIiICkKFIQEREEIiICIiAiIgIiICBECCUREAqFJUICIiAgKKl72xsc9501o2SfQIKt8qHuaxrnPcGtHmSfJai5m4vl3OoD5k6IDo+Q0/daKWV96s9+WuABw14Vclv8AdS0ZWZz8jLDIafY+Ekbc07d5+gWutgfxB2Qvvljj8oWyDTyPwsasyNttprwTAsBd4zv0N/KWLsMsplf33bR8jvcbB9gpouS23Pe6z8jUJa3tDpiQ4j7K3O+azVLRdmrMcOGw61/lVRPyc7u+GlHZaOCAzevstVezEnjysfQkhfBzJGG86+ygv1qMNl0rcs1k9WIAtL+S8/hXXSQw1RXx9OCpXiPmwaHKtVIQ1jbFuX6Hjfhb5b+VmtvUm0XV4WOkLnte7u+x3pQQ+vdjjieZu8SMLzE4/wCFpa95+YbYrQxOrEkwlzxrtcupn6ro1zFLeqCNuwxg0N7PktOLVaTO2wyN0cUwMo7vR3kqMjAYG89/h37fzcMY0ZXn09guvruw9Nu4XVWkD+kja4yMW7rnRUBYdEw/V4R0Cfusyr0neNYPa+COU702QE/3SDeZW9i8riZq1wCSOQa7CN8+hXI4afGYx9SrPBNYfDEWN7Wd2vyuexv8VmyeSo5ZrIbtSQdgj32ub57W/wCmYspds245arWMkkBbMG67RpTdG6PU9iNjo6dSCEA628kLWy5Ytgklu9ghG3SPadkD7LroOm6Te0yh0r/XuPBP4V3MYSrawtupHXiBkjLR9I81ctHm1bqRmQp2o8bbvCrAAXCVnaDv2WRj6zxjj8wJLM73bAH1HSxOksPO/Ax0XRkSyzyRuP2a4r0/B4mPGVGRnT5v6pFM0cLHhLdkP+VxkUZ8g+UFpBWny1O3DlKGPsRspTjUnjxE6l+wPqV7Jrz3+y5n4gYl2UwzDDOyvaryCWOQj1Hor8cHCUI58PVssbLLZtW53Md43nGzfBGl1MeDv2IWOfYFeAAEvcdO+6u9Lsx0sUdq7agmtNHY7R47h58e66azex7oe2axB4buOXKSfo5ivga1m40VMpZlEf6nNII3+VyGf6dlp/EGFs1+WWpbrST9smvpLS0a/wAr0PE38VRdYjgnrR1gQWkHz91qupJsNkbkFkTtnkgY5h8J2yGnkq2QavC4u5bnca7nsgaOxo1pvb7hb+fo+sY+6W/aBHJdscf4WVjOoMUyjEyu4siaO1oI8vysqTqLDdp8W/WHH1AuTIOdvdI0P4fOxmWnje9hAkDm7H4XF9I4moOma0DgL7GPcI+8dzt9xXpF7J4GSsZXyRSRt9Iz5bWl6avYbDSCvUgcKr3EwSOG9b8+fylk+hVj+mXugLrEn8PrhutxHTj9ztctn+lsnjr8eS6czzLdSMH5mpO8EyD/AJdDzXpk2fxDnvgs24GEcFsp4ctLYpdPWZnzV5jtru4trv0CVehw+FzJkjkmbYkbI9xiHuCD+l32CybUUOTtStxcUwtzNAkjmb2sl7efNZef6Vw9es+fG/NC1O8u8ESfrceToe60UNm3jWUYpZhHLK9zY5Xn6oyB5E/4WcFTe+0yCxUlZFYAcHwE/p1wf+iu4OSFmQa5nZLHMxwkY/8ASd/1fkK7DDTyGUrvoyQ47OMBbNWtf+cD6gA/5XVdO4cjKSG7Vgj1GY4g1ugQfNTB57Li8v0z1LDkKGQisYu1J4fY9/8AKDT/AEPPovVcHbxvVuKLmiBlqEuiJiIcYiDrbft7LBznTzocf4NGCJ1aQkWI5RvQP9bfYrzjISZD4S52ncgiZZ6fybmxSSM/XG7k8+/5Wh3Wbxz8dma+QiZE27F9P1HTJ268ifcDlcdl68mIzcPWnS9BrBIC29A1unN9B3D2OjyvYdVOo8JFPGAY5WB8byNlp+y4yWxPiOoHw2WMMMw08humPbrRJ/CZg6jpHO1erunILY8JzpGjxomnYY72WDlMUcMTcquD9H6A88h3oB9l5LnXWPhJ1fUz+FL7PR+UOrEY5bXLnABw9988L28y4/qjAMnq2WPqTsD45WO5afQqjx/rLpx93N4zq/pV7sfmoJe3IRMIa0xAO29w9SSRyV6j0D1VB1VipHEMFuEmOaMHY9gf3XJY+5Lg8jPWybI5WM5keBzPHvgc+a0/UE2O+HVir1BhhYnrXpi2VrX7j59CPttSUbXP0IOjupIcnAZ4aFgnufG3fYd/pJ9iuO+LGAfSsVfiP0k/ukhe2W5VY79Y2OOPLgcr2+3XodT9NkPLZalqMOad8A+mv3XmmAyMmEtydP5usXtf/IeGDQka7jxOfQBB3/QvUtDrrpOG9Gzujnj7ZoXjyJHI17LkjHlOl87cx9SVppzN76UUp7YnOO/5ZOvQey4HpGR/wt+L9jDz2WwdMZRu6Rnl2Ne4P5XtXXuKdmcE2THv/wDiFfc9J2+C/Wh/gqj5ywOZyHQubq9UF9WKhlclNVs0on6YHNc4F29e4JX0B1RDTyWAltRS91G20OMsZB07+nX7rz2PGYjr/oOxhPBrNytWSQx7byycE95P77Vn/wAPfUotU73ROXkbLZql/wAswt4DG+f9igzOlyzJYXJdNZuKOZhaXbmd5TAfQG/vpaH4H5yxgs/kOi+oJPBdO0ubHrbmyngtB/HK2nU0EtPJTWJf5fyEghmkjOg6V2i137cLj+uYhXyWE61wYfZNWYRXJWu2X2D/AOyDuPi3j5mYgPnfI2em8yunH63QAHTVwPVNyGxdwlvF3b78vb7IrkMzQG+CwEjXG/danrDPZjJ27sNi9ZfVs1g7tc/nucTtoP24XRdH2pLWEw/VbKMVyXHvmZehZrujZpzGk7/YqDl+sLVbE9WOuYAzDGZNjWRuaOe4DTt/ut0yJ1z4dfNXg/wen7UVJrNfW+Ehpcdeo0f8Lm81G+306+Y7rsbI+SlG7iR4LtnX42ut/wDD/ka1/Itr25/ma9mm9szZT3d0p0B++tqqwLnTOGz/AETlDQvmvLGTfhrS6a0xAeWvPlZ/wzc/qH4QvxMjpYL+EfJfcx4/Wxxd2N/Gv+i3WFxNCOLM4eCk+e/UvmGf1MNTQP7DlYnw3qWOnevjDMY5Mfm5vkzG8f8ADhYHuad/fy/dBdw9etP8NPlZyy1ezD5YbJrO7nRtaSW8fhc78Oem8qyctdalhxlxkkk0Gtbezhmx76C9QwuNGCzWQxdfHRtiuvLoJGNAcOSSsbwJIMtNK5ksIilYBG723ypUeh/CvIG30jVgfE6KSoPBIdwTryK7DZXD9O5iu/q23VrTQdsn1PjZ5g6C7jXp6LUBERUEREBERAREQSEQIgKFKhAREQEREBERAREQEREBSFCkICIiCEREBERAREQEREBAiBBKIiAVSTpSVB0UDZ2o7hrZOgrFy1FUhL5SQB7DZXFWoeouosq0zRNx+EYNjUn1y/c+ylo32R6nr1pHR1ozZe3h3Y4fSfutHmuo8RFUZN1BkRC4tLmV43Frj9jrzV+p0jhqMj5Y5h4kh+sOm8z/AHWe3HUI3DwYqzX/AP6x0jXH/KdjlIsnWuwixWts+VcNhjGlp191TFnsIHOruhsWZdcmM6AXV2fmG9un1S0HQDe3kLDksWmRl7YoXtPHDBtZR551J1lkbFaticBjbFKuX7ntTt7xoHfBHK66tlsDHj2SW3lsugD2bH1LKdlLjC1odEwaO2GIcfusSScyt7nxRv07YPaBtMXWOOrsRPJ21crFXdW/Vskc/f3TOZxjclWYMhSls3GARhrOXeyt5LE4HKx92Uwcc0jv1ObIW7/suezHQGJv22WcbalqOjYGiMbPbr2JU7OnX2qNiMMkts01/k4eSu1ca+1aZHG9kcTv6y3/AAuRgu5zAZOqbscl3CQDXaPqJ48/fzXR1OuYszN214XUxEQAyRvaT906Gv6qwNjGdR0i/vtY+c9w4/4cgI7dlbTHYGxZuPtOaTKJNHngD8KOqMnl67ohaewUJtGN4aHc+g2sZ4eI2tnfKXyjvDWuOyf2ToehMu46j/IM0MT2j6gNDlT/ABrHefzcf52uCg6TyFmVsvgeE087dLslajq/H5LEy0oC5sVed/b44O9e/Cu1W36ljxE2Xkyta4ZpH9rXxRkjeuPNb2t1SyvWijixk+g3/UFx80TKVitDXebUBG3O7NEH0XY0OmxdbFZyD3Bh5ETeOPupNtRZk6wndoRwCLY2O7lWL3V96Oq57Y44iwdxc4bBC6Y9P4zsDTX49OSvNc7QoY/rM4sxSyB0QsNLnnWyT9P+FbsVdhu3pLNb5ecM29zy5o4G+VnWcla8UsORLnHngFZ3TvT757b5pCRCNcEa2u3gqQQxBkcTAxvppSS1HmFzNWq1SSwMsIfCaXd0gJBWvGQs5fJYuYx2rjPAbPMY5e1gG/PW16tmcTUy2Ms0LULDFNGWH6fcLzPo/C3sdWuYxjS90EppxvcNbiAGimWDIwUUDY7csjHwh0zixpPmN8K6KF2ySYMVaewcg94G/wC67XC4CLHgPmImk0ByOGrKgnvOyUsL6bY6bQOyQPB7j+FZxHlOdt2sDJVbNiZhNP3duyC3Q8+B+VR03VfM+9kpJ4zHMCyKIMIIaRySfVdR1vJ1DQykNqvFFcoFwjEZaAW93Hmtrj+mnvfEbbWxxN58Fvl/dT4jQVoXOqRU8XVdYcyLby3Q5/dam5B8m4fxXHyU2E8yP04f4Xq1ts0MbG0YWbHHoOFwvVWeyFeDbbhr2WvLfA+SMwcB91fiONgmGb6g6gh6ajMtOSpXYzQ0C9pd363+y6jwIoaVSrHG75iPhrCdlx9dLF6Ssum6fihs2JWZVk0j+1tUsB7ne+teRXe1qNTB033bW3vY3bn9pcQPsFMHB5xt2tWs3Z8HO8QNOv0nn0P4XlfU+WsZrG4owXDWzJtsaIYNx7HrsDzC9ln+JEliz2YnCWbVbtPfI8dmj+CFzVid2U6mxF+9SgbdinAhYNN1+Vcgy3YUSvqX7NiaxThaA0RylpEwH1K31fnsFia8JzjT8rMQ1zWnTmex36LuP9npHTSwNHh1ZXGV8hO/qdyQArGTxnSN55wmRbWsWDHsxvOyQR5pn6ODs4WaSWi1liGzE7+fQvxjnjntcd7O+AvQui+pG56vJQyjG1s3XHbPBwCDr9TdenIXlWJwVrpHLnCutS5PpC3J9L9nvpyE/S0EHYauo6j6aswz1rjLphzGNaX1ZweLMQ0XhwHvrXKD0R5lbAa0n0uadROfz4gWPloKWRwtmrlYmmo6MtlB82D1d9v2WN0zm6nV+HhlYTFbjIc+M8Fj/wAeyuZeWMCaWNjpJYG/7xDo/wAxi0PPOhMlc6J6qtdO5cTS0LJD8dKHbZ2nZ1s/bXC9J6o6fr53HPAJZNruZI08/j91yvVXTUPVHTldmOnMVyrIbFOffk/1aft6K98NOt7GZc/GZus2pkq47XNLtd2uNgLI0dO9BBXnwlkiMNkbHJFZ+vteRxr2HKsfDKa50xmczgMu1raclh9qCY/S0xHWyPYb2ul+I2ChrRyZupCXWNgTsaN97TwT+QFyWcxkXWHR80dO3JVy1WuX1XxjbnRAcM367P7pOh6D1vhK2UxTbcEZfYrt743MP6m69fdcZjRQ6op2+nb0jZadmPshLBoxP0e7ZWX8C+uLfVWANPLUn18jj9Qyd7ewPI40AfwqOtcc7HT2MjRriaGcgF7H9hhcD7Jf0c58Hc5f6S6jvdC9ROc6tC4mpZe76Q0/pb+TvyXX/FDp02o4shjY3uyVRhDgHfqhJBef2AXH/EjFT5zpaPqDFyCHO0HRzWomR9xkLSC0f49F23SXU0fXfQlbKUnNdfYxrLcYOu0629io86ykVH4j/DudkjmfxLFRmxVcGfX4TRsA++12fwF6sdnOnhishK6zlMfGHvceNMcSGt/I0tBFLU6VzAlqd0XjP8UwtiOjH/8AqwVyGbkm+HXxaxOdqCc4bMSl9nt4b3Oa49n7HR/upP0dr1tj7PSvWk1zGxx1sZlAzcjeOyUbLz+40uN64tfwfrbB9V4CdkQtSNjs1WM09oBAI35fUuv+NXX1GbG2sNRjlu2pIo5YzDEXiEk7DiQPsuUhzVnLULf+0UMLrliMGpcYAwRgDy7fdWDH+IXWPz2VzHZjLcVt7gYI3PHY9oaNvI3o6P7rn8ZHZv8ARr5Jop5aTZe+TwpOxscg/qI36LX5yV2Q6TxOUne43cEW0p2Ndvxu9ze5xP4G1sujbLbMWQxMlCZrb4dLG/v+lsbhrelBrZY6+X6NvCkyaO7gi7ITSPdvxoiHANH+f7LqvhLXpvtdRdMQvnY7L1I3wSA7b3juLxv38uFo+ioJoepYYbEzBjnzup3HPIb3RMDu3Y/Ov7roDayPR2QxFSnDE52JuyWZZAA4CvO5waN/g/4VVb6VyeUxlO6+SKtdMMwpkGIahDndvkf7rmuiIZ+lPiFksbC3up0rTH+IR69rXa3+69fsYEUPi45jpYY8DmKj7IhDeDMwDnf7rWZfCUY8hGImSdswMth5BB7x5f4Ut6HSXw2Prplhz4q7c3iy2RwbobLvL86WHn6LcdNuvYjsCKMdkjW67StneMWQ6awk1gta2vkI4mza5EelseoqLQ1742h1Xt/U3nf3UqGft/KZzG2i0mvYiYzxgeGkNVvqmm+LJQOB+pzC5/t9lhW7NPIdGVXROfM+pOTvRA/VrW1vOupLMNR9itRdaADAQ06PIVFtjXHK9NZCJsTe6AiQtaAXEkaXog4XAYt4u47E2ms8FtWPw5InebHb3oru6z/FrxvB2HAHfurxFwohRaBERAREQEREEhECIChSoQEREBERAREQEREBERAUhQpCAiIghERAREQEREBERAQIgQShRa7N5eph6jrFyTQA+lo/U77AIM57u0EuIAHqTwuZ6h64wmDljhsWHT2HjbYqrDM4/s3a52w/PdTyeJPaOJxJ23wWH+bM302COFkYnDYPCtBxuMgbM3zsOZ/MJ9eVm0amz1z1JmLMsXTfTRjbogWsgXwdv37S3la+PE9Y5e1PBnuprlGg5v6KccZO/buLdrt3WrU+mmSSQ+fYOVX8pbkYXvcImAcmU9oUNcE34adPhj5Jrt+/Z9DY+kE/fSy6vQnT0fa+TFV5HtbpzSTo/ddJM+lGeyxmcdE0+87QVy3UPWHRvT9gssdQTyzerKupNn9kO1v/AGFYzx7OIgiqS8+GzxC0A/ZaG1D1Bgi43+oLFWd3/Bja1rmO/JIWku/GKk19kV4r07dHwXPiI0fRcja6lzHV9ott267h2/THad2ho9uFFmvcsfLl3VPGuy42wWgFzhZG3fsFlQWG2mtLYpQ4jemMJb/dfLEMlzBmaKGKCNthxd3ReWx7LrulesOvYYDYx9uSxSjkbDI6XQYzfpsD2VLHv+tEFpDgePNQz6u7Y5HoV5/U6nfkarnwWK0NmN3ZI2GTZLvUhdRTyrvkqz5nsf3O7S4H6t/dRHQxSSs7WtfrXp6LW5fEVcqzVsujIcDuMeazGEu+rk8eSnu24Acg+/ommNLnMfmJoalWtd78ZWLXtidrZLTsBdF0Hk4rt6z/ABONkN6LhgeNfT+6tnbXN0Tz6j0WNeqwXmvE38ubt7RNH+r+6f0elfMQ634sWvfuC0vVFbFZPHOiyL4ndv1MLXAuafcLy2nSvYGzJt7rlJx2PHdsj7LPy+LZdxlTqKjaMTq7nCWAnQePLQH5V+WjqcFkMJWjc+aQy2PVpZss15Lds6pxsh7WumPG9+EVw1etDj/58se7MwA7QOTtbmthclZ12MEDNcl/BUlv0N/J1biYu0TTuZv1e0gLnMx1FjLmQZPVqssS1/q8UjWx7LmfiHhrGLmpyzvbPTmAg8/0uJ8wsi1i4MVFBBjHvnfLGCd8kH24S8qrr6vV80tbx3UAyIeX1FVHrIBuzUOvYHlUU+nbFuvCLEjoIO3Za3h20k6LjdO10eTsho/p2Ff+kRa63YyvP2Qhk7GlzWvOt8Ln6XUGUE1SzCGg3XAkOGhz6rUzYfxepclXntOksQShsbJCPri0CT/ldHSpTWrcEFOMFkLQ1oP6WBTaN1J1NPA7/eIRsejedrW5Prm1Ti+ZFDvrjg8nhZEvTcTZXOyWYdE48hoeBr+65frzCQ/7OywYzqeTvDmudC6RhMg35AaV7FeY6wuX5oI2BoZM9uoN/fz2uihzOUhsSRTujEUZ13bWq/2XrNhpXoCXXmANEU/HnxsLpoumIOxvzlmR7uC5gI0VJowm9bRsa4ShgDDy9ztLCxnX9bM256lMFlvREO28SELeZ7pDA5XGfLW60UMbiNPbprgfyuAvfD44jqfG5HBZJ3gQaBicRwdEb4/KvY3GJ6lyuRhuxd5jsVHfUe0aPOtb/Zb9nUQi7G33TiXWi2KIvBJ/C5/BUZafzVKJ8lq7Yd3veR9IBOxythk+neoaz4rOHtwzTaIkhsOIZ+2htSaMK31101j701O1Ys17LTp/+7O7f3drSwM5ewn8cx1mGuyZ08QEcnkXOJ4I91zPXvSHUceNt5ixFSnlmH8yFrjwTxxwugwmMsU8Z0vLkadR8EFaNxlcT4kbgPIK3R3WPzb7Nd8N6FkDS3sYe/8AV+fZc5D050nSyctrx65yMf1GV0o2N/fanJT2C2OzTxkt6ESkvYW/qb9l5S+hihmbMebq2MfNbJdHVmZ2Rkb9Np2PUOpcPj4cfOaWTtxQyOEk7qjBKXkeW/PS21KOj1V0tXjqzPdPAP5Ukre1xcPcH3XlPw5r3MX1zfxtOzekxDmd0leMBzWkgaIXoF6vVrPaac9uq2GJx7oxqQv9NhNGizVmfpbLVc3HD2S12iLIQs8pB5l499L1iaZ1zGR3Ma4CWSMSMHH1gjYBXlHTmTh6uwl25IW3L1JzobME/wCqSIDnj1JW46LzzKU/8PlD2uf9dVuvpIPlGPwPRUdBkYYqJPh+JBDd01zo2ncLxyXfuVwPxPwM1G3V6xosjblaGo7bmecjXaDTx56HP916jba2Vk1yxJqnI0NkZJx2ke37rm32ZonS1bFcyywtLJGDkTNd5OP/AKQlGy6O6ho9RdPvimuR2Jf+DKHkAkkeWv3XnMELulurTiPmLA8F3zNRrm/TIPSLfqFr8ZXoYHOHGMgjkbbtMtV8hV+p7I262HH0G9/svUPiLg3ZrD1b+LlJvVXCWCVuj3BQeTddXbHSHU1PqevbnGA8XxZYIWd4bZIPeHaGw38+q9ViFTOxxz0uy3isvCAe0n+U4DZP7lcRUtwZ3HWsNfrwsq5YOpGGLksm5L5CPQn3Wj+AXUIx2RzXRLn2GW6872wGYaPYHHX+Am/Y6HF358LmXi1HM7vJrSbGg7uPaHfsuQ6LnyPw5+KuTw0W7OCuWmxt8Y9m3Pa36m6GjrkLvviJXe6gLXjmNzQRJC0/W0+h0uC6plxfUXwzxeYdPcFnA3q9aSSHl7wXtLne5OlJ+Dr/AIwdTYrGtdE64wZWCfuqw647gOAT6Bec5qex1F0HkKmR+ailqh16r4cJ0ZyD66/TysbqiOt1lir9+tXx8dWq50MM9gkWpnADRII81sPh1ZyXW3TvUFOW1/DshTphjWk6aRyATv8ACv8AVc+zqHJx4Kvf6cD4ppv5V0OZtrGt2AS7XHK3vRVWTJ9PZOrZdDey9SVscMb39rXCTkkke2/8LWdK0ZbFKXp2O1Vec14kMna/Yi8ME9w+50tT8LsvF0z15Xltj5j5nxKT2F30mTvDWHX91UZ1HFUunc9PjJ4pJZh/uVuKMF0LbEgaWODtc6Dh/dX+l2XcRlqsNqTxZqNsY+XtbseDrez7ei3nU/TuUxvxHxtLxgYclbZdtN19LXsLA3Z/AH9lsMl0++n8TM1B8yTHer94dGOGyb1rfvpBT1F0l/E+to/mq1eKnlGNq1TE4uJlAc4uI9CWj/C3WW6fo2s/dq05u+pkq0dQtdx9cXcXc/usjKOv13YHIY2CK0MZNsxvJH1BhaT+eSt1mqrIsbjLlWNjbVaZ88xjGx/MB43+6zarBYIr9noh+RYI2V4bP1h36HDQH/RbDNxOu423ZieJYvmGNjk/1tPqlOkLEGQrRgPsQdpgjcf6SNvWzxNaOXFtrQhzYBXc4Nb+nYU9GJi4ojgsnUa3xBFXdKA4cdw9luKrHno2n9IaHNHc5p2RwtT0yXRRtgILnzjwnD7FbzEMd/s9LCOQ2zIwj2AKs8RpsVUbF0PkcX4jpGRu8QPIG/qftdBlbz6+Jnud7u0BghEbe4uPlyPysTGsBhvxNboSNA/sVsseHNx0DWhjx2Ofp3qWqwazEwWWY+aTIn+ff/nyt1rtIGtLsMVr+HVgBx2DS5evbEmLivZItY+59XaPJvpoLq6Aa2nCGfpDBr8KwX0RFoEREBERAREQSEQIgKFKhAREQEREBERAREQEREBSFCkICIiCEREBERAREQEREBCdem0WuzWR/h9cFrC+V57WNHugpzOYgxzRH3NdZePoj3z+VzEUEkk7reTe2zK87jY7lrPwCpgrhsrrNgGW3JyXk77fsFelcyNr7Fg6rsG3crGis+NYl7Wt75fQD+kLUdT9SdNdKwzydQZetHPFH3/KtlAkd9gD5rVZ7N2rlQw0rkeGoPb9c0zO97h9nA7C5HGvwmOuS2em8JfzuaILTYnlMjXH3/mHgIMu58T+rsqYLXw76NfPint061c7WHf2AdvS4fqOh1flnzHqH4jVcQyU7fUO2NZ/y+a7abA9fdQbknqHEDWmxwyhjfzppWvrfBBtl5PUuVkltvBJPcSAfT1VHi+S6ewdO05uVzZzrQNiStKfP+6t/K9CxRxPr4/LtnBG3CX/AN17RJ8B6TqbYKWUbHMBxIWbA/bfKol+CuUjrxRNz9CQN4LhTI0P/u5Q2PL71DpC4+BmMyFuo5w1IbFg8Fc5kMbWhnmFXKxTBug1/dva9md8B2fw7ISnPV7GRew+AxsBYA709Sufh+BPVNrExGx8vWlDj3k6II9PIqL052T4f9Z2KdGTGQDMQStLmmABpaP/AKisbF9QZvo+KfHW6MlatLYEk3zeiwOAA8wfsulb0J1LgmluO6qtsmiaWxVmmQNP2A7tLa4TN9Z9P4Z1TLRY2aKR23Get3Sn/wColNGZkepOl+q/kDjKWr9dgDnUdMDnft5rXX81la7a1eSKOBjJS7Zb9RH3R9Xo/LWu+zVt4bIvZo3m2XRxg+/a0jazZGZjF46KKpco9T4ZgPiPhgDJh+XOdyiM/prqy8+7JA9s8zO3YLSuwxXV9CzGxsgcxxJH4/K84wTsXkrH/wAPt/J3nfSKcjtv3+y3c3w9y8PfPjm7lcC7sc8FZqvTYbEcjfoOz7BVO1/S4AfdeWdNZa5VndXytpsUsY1ojzXoWKv1sjDuKZrnt/ymozyA7h31tPvyFqsziG3gwslfDFHyY4zprj9wtqJSPpdrjz16KHH6R2HbT5oLnQ5fNl5G5WN7iNfLuf5aHmvSHa19R1saXm1hrvBLGSgd3Ac3gt/dc82bKYi1O8257dcebS4kj+6suD0brehRuYVsd2dkZY4PiLj5vHkFj9KxUnzB8j4jZawNa3/uuazeNszUMPmqE73RyFjpY5SXgAjz16K42rALBuumc15Hk06/slo9KlsQsGnysaT7lWJ5qvhnvmbH3f1A6K8+iqW73c+vUszsaeT4mh/lcXks/dg6h/hdWrZZK3mRsrt617K/JXoWTo4iXqOtfhvx/wAuN0U579uOyPM/suxw7KUdUfw9zZIzyXg73+SvKMSS+exNahdGJB5O91sbFixVx+seJXMA2QwkcKajp8x0Tic7cfZtWLb5N6IZMQB+y0Oa+H9StI+1TtwwMcwN3Z+otI9QVxV3rAzMDcXelr2oz/M7t8fkKjD5nMdQ9NZGDKTG3LUd3xSRjt7tny16q6r1joSj/wDCoLNy227Z5AkB2NbXRSvgg+p52554/wDZeY4nH+FiMcZ7M1eRjT4jQ8jn02FLs6YMqIab3WLEEDpex29ED15SckdBmsTf6slfBNM+jSrTfT27D3kfdW8Lg5q2XkxU1jxasUYm7jvvOzrRP7Lz218ScpkspjaN6s6tTyDxGHQv7XNJHnsc+i3eIxc8fU1qWeS7LQdC1jZRYIIIJ4POymq9FuPhwFXuqUprUztgCPRcf7ribvUufnbC3IMGMjkJ3vgt9tlbV1qXF4+zbiqWroqtMgja/biP381zlX4n4XPYezkK2JtzTMe0SVn9oe3Xn58K7qMiMRX2kWcxNM2Bw7+2U9hf5gaXaw49lirWs3nNFZkYJYfIff8AC88m6oq5OeDL9NNjMbSIparmc9x9/TYXZQ5S+4tF6zVgqlnIMXl9lJRm1upquQj8PAFkzWPMZcB9LdLmOrb+c/i1dkvTte7W8mzSRBxaf3KZ+7g69qtafcaKbXaf8q4s5/ZY9u1VY2s/pm7LkbDC57nvmL2sBHAIJV0UdKdN5GhFa8Zlht67IJJJIXa8MDybv2XbUKdTEVny5WWMmZ2wZuSOPJcx0X1bLPgJbF9jmX5HlrQfJ53rY+yxsfk4q9u07Kyn+Ksl7AyUlzSCOSG+SQeedc5qj018Squd6ajdFWcQzIsj4bN+y7m5hq+QmM2NsPjr5OMPoWWv2YbLtl2j7Af910ljIV4sZNJmaEFatLJ4YsOjb26I/UsSjRxOS6bsU8TdDye5sL43EGJ3+pvsoNn0FlP4v02I75idPWlkgnY7knscWhxH31v91idUeNLJM+h3fxGhppA8pIn67v7NXnlWta6cvxZ/EmwKxkMGUqySdwDWkhsnPuefwV6beuw2g27VmjeawEdhob+oP16/YK/Q4LLUXRYyCTAmrLG+AzQNYPqEA/UCV03QvUePyWFrnG32ug+XBmjkfswDXIPtpYVWBlTMWMIJYm0rDDbqOA5bEwNDmb+5P+V5ZcyUvRPxgxs9Kdj8XlXH5iHw9Bv29lDHe2K9GxY8bCW4JxNM6NtiqR/IcN7cT/hec9bWsjB8R6HVuKYKkkTW1pGEf8QM39X77WZ171a2fpi6zCzxY/MNuyO8Dw+ZItnt0B78HaxqfVN3KdHDJCCG2Xgw3Y42jcAbwDz5bRU/Ebq+We3Tv/xGnaNtvhTQ0vOJx0G93PHmsHB0Z7XS8tB0pqSRSNd2b+mZw5BI9fZUvyFqt07aqY2hA92SlY+V5jDnMaCNkfgK50FKMN1yK+Vd8zjL9SSWm4u33OaWj/umDRwwNyOPytfIxSVslS7rDBGdMJA449Sup+HghqdbdMZWtehko5dwo2ofMbbG9+z+40qsZ05kh1TlDbfHDjoIXZSSN7O58zBwWB2+FpX4SxPQzsVYmrJSiOWx8Tf1AyF3aN/3/uqjo8rRrY742y4LFYyT5a/EJmOrkNex23F5afQELm+rcVFR64v43CYyzGHPitwvfolroyHOO/yAvUus7T7WG6Yzk0Lp4acn899RwikaHM7Nl296BPkr2cwEdWzUsU5jaNNpbK5x24CTnknzUt6Ixus7Fi30z03mopIzK6aCS0POQjuGwCtjkY3Mkr24YXES2hPyOQzSrx9OC7gspRm+oxSB8AHHAGxr7bWxxzW3cJI2evKyVlct33eZ+yisavsfMQkAMj3ZcB+rTisvHQ+J058nXY50T3ud3u5ced6JWPSdC2Zjyx7WWI21iXHey3lbvBSMkp2BsagJ7dceag1+CLG5qjI1pHzVeZpcfUgaCzemq9hlR9RzT3V3+E7XmAeVhwwSw2KLpXNa+pJrQ9e4rbYgNi6n6hJZI5z5hoB3H6ArEa+jB8rnGsAPY20A0n2W7wrTHWuRNLXd9qR39ysAxubmqzB9LfFGweTtbjBRtabje4bbM5wJHuUg12GaXXZ2O9jseq2GJaBi4/F+gva9oP8Ap8wtfiAP4nZ2S53OiOFssY538N+XDDrsf3k86PKQczQgkrYqvRuzsuGo4RxvZ5Pb7r0SuNQRjQH0jWlxOPrNq4HExdhEkZZEXu/qG/Nd0G9rQ0eQWoCIi0CIiAiIgIiIJCIEQFClQgIiICIiAiIgIiICIiApChSEBERBCIiAiIgIiICHgIoI8udILVudlWvJNIdMYNlceJn3pjasjRJIY32AW3zMcuVnbVgA8KN25Hb0CPZX48PXjLXTu7w0cNPks+jQl0z3AVoXTP3r2AUWenr9yJ4v3xWgdwYmNDtj8rfzW2QxhlRojA9AtTYsukcdvP49ERi1MHhMUxojgNqTz7nkn/Cyn5F7CRXjijbrWgwLCmnIG/LSxnT7Gu3kpoqnsWJJdve7X2Olbe7ZJc4/uqDI48KntPm47CgFw504j91S1hA/U4/uqnduxpTyE0R2tA3s7UmaTvAMjyPbZTtI5UhvqAEE97u/bA0HXmWhYdrFUsgzWRhbI8/+Z7fsszXqQpB37BRXJ5H4e0LDP5FvuHo0sHC5l/RNKsXC7LPUjB0XRucQfv2hep9oI2PNVOEbuJYGS74JemDybL9KYuuxjocgbHaNsmYOxzT+y1GPyWcwvdNLelu0mDQaXacB/wB16nlOk8Pcl8aq19S0eHCMfSf7rlsv01ZoOD/DEsA4JZz/AHWVjXU343qaLx4JQJWt2WH6SrNV9ipJprXRvZ+k+WwtPdwbfG+ZoPdBZadjXksql1O/uZU6giLZB9DLIbvf5UHbYLqKGcOrZH6J/IP9CukaC1oAf3NPkVwc9dgLXxtbIzW2uHkthhuoZInGC0wGLyB9kHWsk+sh31D291XFMIrLwYw4lp20rEic2RgkbsxO5+nlX+7Y7mnfv+FZUY9nK3nY016DxHAX6c0t3+wWZ0perZSzYbfrOEdNgJ8/Pet6HmsW20GsWsPZv6gfYrOwufrYx8lqWo/udGIiQ39evVX77HaMzdFs8FSsHd8nDW9haFyXUtrGjq6JuRIjssGoAGb7t+5W9g6nxN6Fk0TDJaaD2xFmnAri8t1PTt9R047uHbHZY76HybDvP02tWyjpqmClyt50twdlaNw0zyLv/ZdaXVa8Xa7w2sY3Z2NaC0Z6ojZOGGuWs9XLInu425TnfaNbs7SCHyAbCsyDkM0zpi31I9z6UExtRiLxmv7R3c8aWPSwNLC3208PTc25H/Me8OLmuDvIe3C202J6Nu0HtNSsDG3xNxcub9x91c6L6ixXykkcJnLmuLWufGQSB5cqeja08JC2uZ8w4Ol83Anta1Wsi7p+6wghj5GxOibJEP0tPmNhWOqZq2dpCsJr0cJBLhHASH68gStTjsDLQ6TPy1iaq+49v0MZvwyePVUc3U6Dof7Y47KR2i/FY+A9wcf/ADN8cfhdh/Dop8h2YsPkDh4hkJIDQVr+m8HNjsw/FZK/DZgewzEucA5/OuQun6iyrcFi4zioYJXF3htb36A/JCmDXZrp/MV6ck+Fy7ILjW/S2VgLHn2O15P1Vhc7Qxoyd2nVfbYQ2R1eYEvJOv0hekVrEuSqPh6he6zE877WDuaz9wq8R0xhMLO+ziqTZZZzsusOO9/bao5v4ZdPfwvp3IW87G0TZG02zXjb5sHY0BpHpyCf3Xd0MDJamL8kztruGxFtbeOrXjqRzXmRxvaO4ku4afsrbs7BK3to/wA6U8N7uGn90kHjPVFCvgs98kMPZmx0UxsP7A5/eHb4Vr4d1MVkesM/Bi6MjaM0ER8PvI04F3dz6ei7fOVet57HjUbcEEk7+wRRODmxt9CSQtz0Z0/WxNS3WqRAXJT3WbWuZHEknn10SVPfBiUMaHwV8ZiqwrwQE9zj9Wufcrz7r/NdSYXruviaV6u2OeItjkkrhx0eOV7hQbDTrtrmaPvb5/UNryD4vsjyHUeCy+PgtznHWWxWo2QEgxueO48DnQCuEaKl1Plc2bfR2edC7Jh3ZVtM01j+OB2+hXeZFkPReLjMELvDpwCxdaznY1yQfyuH6a6QtWvilb6jtQGthHWO+nESWyb0PqLSPLzXrF/AT5mHMR2LDjXuVzXb3DnX3+ykHIOGMyVQ5eF3i4q+ztvNBOmNA+ny+5Wu+EOU/g1nqDB9SWmMuulEldmu4uhI4P7Bc/8AC+/Wq9M3cZcnMlHHXLEWSLee0CRwYf8AAWVYldC3G9RQwQy5DFPNe7IT/wAaKRw1yPYaKCrqfOw1cLfmqWHvuY65G2m9sJcfD2CWnXv5crl+o+oKnXWFjo34Gt6hnl1Xe1haI+ODtbatYyNjrnqLEV4oYcRnWuydORrge90ccUfaPsStB0YbctG/WytIw5ivM6MhrdmKQDz+w9UpDqDqBkT8McjihM2rMas0HcB39rT9W/YkLU/DHJRQXOoMRFS7f4g90jR3bDQSSB+21vaGMfkoY7OfbFPSyM78a4g7licwO28N++lydSoMJ1XHZxjrBxFWQtE87CwyEbBA450UV1mBhLJIG4ms6rPjI5a1ySUkh7ngdugVzMOPfFiaAlk78hhbMTZmA/pAIc7R/wDSf8r0jBw1Mx1XUjndKK+SryWrMLh2tc+EN7NFY0HT4f1I+eeHwqWfgdcbEPOMtDWaPsdaS3EjdZ2uL+S6fsY+z3i+Gw2GdwYH13bJaT+VfyuFrV+scdlG1TVrgCjJD3FzXsaCR/krWvx2POEFaaNxsVZfBicASWtHkQuvyLH3cRO4zve2Go0RNcNdrx6qW9K1dajHJ0/lMS6QtZEXTDjeg5xcNBbCrrI9KQSssGYy/UX9nb3dp/8AZX8cxr8myYRNb8zE2Nuue4tHKyMPBMMe3HMDI46vcAGnz2SVPoYnT43kXgntjlqSnX/N6LbdMRGziWRPaIYYfpdt2y5y1UDDDcrDRPZM2I8ehK2fZAzJXm9uhHaJDR6pEa+ECG5Ua6LccNp0m/sQQtpj2GOxdYYtNfokg+m+FRkK3abRY4N3EH7H3WdpsF6y1rQ4mGLlUYV1m/F7vMSxa/uFt6sfg5rISBvE0odv9gFqOo3Fs88bQQ8yxa1+Qt1CyQ56BrngMDCSCfNWDClHb1DG7+jxAVscDHIZ7Jf/AMF0zyB+6wpGNl6jHJDfE4C2uFe98diRwGxM9nB9AUGnw7wbeRla3hpIH9ys2BxZiZS4ESPcAf7rCwreynkpySfrOgPXlZuPd42NM0uwZHDTSORpILJ73ZfH19fRGw7H33wus5491z9NpOejLhsCJ2zr1XQeq1AKIUVBERAREQEREEhECIChSoQEREBERAREQEREBERAUhQpCAiIghERAREQEREBQSANnyCsz2WRDk7PstTbyD3eR01BlTXIav0Qt8yXFauzefI7ZdysOafzG+T6rEkkHms6jIln9ysZ8mwSFZfJtWnOJB1woJnmLhoFW9k6JVGudkqHvOuCoLvcAoe7fCxmF21eHOk1cVNaN+au6UBoKqaOfsgkaPmpGu07QDnyUOHHsmiHO4VAePVSRoKgjuPClor37K4H7byrRGhwVQC71KovnRV2N/YNMDXNPm13qsNry3zKuF29E/8A7KaNTmOn4Mi57qrGV59EjtGgV55lsbIxphyUJjcP0u1x/det9x3tp0Vi369e/VfDcja9p9fZSxZXjeMyFvDTGKTU+Ndxyf0fdb8GtaiE9SQOhP8ASDyCsnN9MyY891RpnqnnR519lyMs8mOu/M0Waj/82H3/AAsr67PCZyXFSBk4dJWedOA5IXVB4lPi0Wukh1s9o/SPuuFrzxZSsbVMb3+tm+WlbPpzqGTB3ml476bx2ztI2PyiOivvi8OCSSZrIjrezrYWrzGdfNjxQx8Jlkif3RyAbDvsFZ+JeL78WzNYCU2sU/iVjDvwv/wFp5uoad/o6lj8O7wrtZ/e6cDRHGuVvB3XTFmgeqKPybibEbSZ2H9Q+n2XTdRUsZl7FTJ2IHtkrb7C9ujtfOE7srg8zFnMTcfLK3RkHn3+4XrePyN7rLpaXLYnxY5Yf1wvPBI89Kbi47ajhZ8oPGsHwYHHgDzIVXUHw9xGZomu8SRSdumysPIPurfQHVlPJdPVxaf4FiECKUScfUutktwiBz2Ss8tg742tyTGXzh0d0dnMN8S7uMsT2ZqMMQez1a8EnX/Ren46vBUhMUbHul73bbrkcqrAy5y/YlsRyV3T/MPY+Qt4bHvhdpi8VHTb4kupLDjtz/v9lmRdeWdXZzL463WpCzbx8bmuLXtADXfbZ9Vx7up8xFYZDa6hvCOaZsLGPLQAXHQ9F7D8UoKuRwX8PfC+e3M9vhNi/W0gg7B9F5vNhYh8viM1jLLHtsRztsEDntcCBvz2SrYM7E4SR/VLJLs+7EDO/wAUnmRq6+SxDQqWuynFeYAZCzWys9mLdesxmGjLWY0dhkm1tzfst2/FUK0Y8ouNE713flSRHl2Z61bgbEVR1OGKlYHc6etz28b0Vgy5a11JiKGZxdvspw2o2Na/6S8F4BWo+IPTNuKxmP4XYF6AMD4oGglzXOPIXb/Djpj/AGY+H1XH5N0Tp3kSAScgHewFarc5+aeezPHalElQSNc2Le96/wCy1JyVGKzWc27DA/5oM+SjeN6/Hmuxw+JcZzcvNa6Rw4j1wF5D8ccLj8JmqeXpRuhuWn6c5p/q9x90SOqynV0uDx2RuGGWSWAueI4m70zfBd7BdC3OS0KFKGCtLJNOPEc4jhpdz/3Xl3wPonOTdTyXJ7NsTwNgIsP7hsOPA/uvVqlJ2TuScyRQV4wxo93AaSDW4+VlefInIV3PsNe3vdrfmONLbVepcQ4TV4ZGMkiaXP8AF+nevdeQ9Y1M50e2PL3ss+dluUh1Qkkkg/SAquj4IviPBnW3IZsZkoX6a0HQI7R7J4Y9YblIz4GRs15JIZtMgYxuxz5ELNmhyuUha2Z4o1yST4R/mFvsdrk8hh5K2DxGKdatOmjgaA2GQhzXDju/C4Sh1RdfdyWOgz7ortU9jmWpO5w51vSbR6Dgvh1hMVXzOPrwTyQZfZtulPJPJ3v8leTYXxIH5Hpdr9+FYbG0b38xHvku99A6XbwZbq+xGz5WVsrma7pw36HA/Zc91jjJcP1I3KQkR2qM0MLyR/LkbM5vcf2B3+yDQ5OGeXrafF1Zo4LfTjhPj/C4Z8u1rXOb+540s+B0OP61pZCzbndP1VXFl7IQCI3kAAf2Cys/iZGdXTdQ4i/ULYpWVJow3uM8b9d3ad//APaWO9tgYzLz46qz+IY68bUMcw2WQNaOG+w8+E+lZ3SeKrVpJdx333qN6WY+OzTSwk6IPr5rn7ONuHLvxV9j56kcr7TGa5HeSV0/VljK0MRYzOIaWmKkLdyObkvbrem+y6bNY+N1iNjS5zZa7HTzRnTmAjY0fRTehzOQoQ2MXXtB89bJUCDXZ+kObsdwP2IC3Nu827Fgsl3PbcnaA6u39LGk8gKKU0dSvZM0TphEwtg8XlztjnZ9Vsun60ljpujG+JkcsVUvbIW/VsfdT1KihAx+byVXwD2mEzNcR+krPxLDNSDJ+wiZxiBaeePdYmPkmfexUpfqWwxsUoHrvz2s7AE/7yHMAbWtya+/KKwawmZHUmjLGsqzvDnA+QPHK3VaHwbttsbj3FzTz91rrFdzKtuNgDGSODte/O1t/rGXlLWHseGkE/YKxK1OUjNbLOeyR3hFwkI9dhbCFjJr24wwPli8d5J5Kt5KIPszHy+kuG/sFlRBrbNBzQ0d1EAnX3SDEz+oKk8ke+0x6cPRbB7WMEzpXBskkMXYB6rB60jkOPtRwgHurDQHqVnSUxPepl/cPDiZsH8JPRi59skmQd2AFj3xnf40tjO2I9QVzqTxPTjhY+QgBykbAHdrCNlZkYDs2+TkmE6AVFjZPUkrtbYw7JWbVPy+JvzNADS57h+VhWXa+dlY0l8hIAHuVk32mPBx1Wgh0w0fz6oMTHsdXxETX6DpXuI7fM8rZPcyCuXkHtA7nD1GlbZGPHgia9moWggfchWc855pywwn+fMQxvaOdHgkILfRVj+JWMjkBJK+B8oEPcOO3Q8v3XVg8eywMFjW4rD1aLHFwgYG93lv7rP1/ZagIhRUEREBERAREQSEQIgKFKhAREQEREBERAREQEREBSFCkICIiCERED0RUve1je5x0AsKxkWMH8vkoM1zgwFziAFqrmRAJDDoLX27z5HHbtfZa6WUudoqWi9kJpJv0PIWIJHMi0523KiSXnXkseWT25WUXHyqyZCSqNbT9HJQVF2vNS7RA7Vace7zUdutAHzUXA+aoI+ryV1rCPMqQNnyU0W+32CrjGuSrjdb1pVEb8+AggbPl5KvXCgEAaCOdwgbVPJCgFSSdcoqHeXCjWlBPCpB51vlSoqLlQ52lD3K1I7TVRcJDlTXeS4tJ8lRE4kFXI4u0l3uoLpdwVadsHj9J5VTiWny81jWX/yHacAW+W/ZVWR4ojb/ADu3t36+q4bqvpcy2JLmPa4NcNyM8x+VZx/VUVjIPqTxusytkIY0HWtLqIOohUwOWdlfDZZDP5MfqRtPTx44xt/D3X2IJOzuP1xeYcF1rJquSpxy03tdIADJCOXbWGaVTqKaJlSUxWHAnsI81z7pMj0vmZbGNql7oT2Wo/PY4J1+yjT1PoHq0YKWajfrmXHzu7vIfQfYgrKzOG6ZfYtZCnvHunb3Nc4kskf7a8guUbZGUxLM1jA10Ev62jktPquo+H/UEUuNt4vqEt+Qn22KQN2QT58qys3tEViDF4vL4zJ0fDfPAPBeWj6t+xXmnSPUd7ohtmGZszGufs725nafPhex9SUZ7kUeLzkDZXNJdUth3aHt9AfYgLisrcl6cqzUMhDFarTRkHtAJbxxyrYkegdN9UYGLp85Ku6K1BYcHO8Nn6Xa8lteor0/+ys12tj5XQuj8UBrhtrdb2vHek+t8TS6Ah6elpOE7ZWxg64PP6l7Ng83FVZjsLfjDhYhAiePqDm+QBSX6WzGv6HztSn0lDLXa6zNJI55jadObv3V6QZDqF/zE2QbQhY7iDRBA+5BVqPBMx96WlimeL3OMmvIM36Lff7Mx3MI+tf22eQHb2O0W+yvaNTk7eSpWLFqCSu+hEWt73N7nc8cFTYzOLiqwB12KxYmnY7t1sgb5P7LzPqv/aLoW/HRjum7jLErQ2OSPkgnWtruqnT0EYiy8zQyWOMxtiJ8u7RQx0XU3UFyCo5+Ih74mjb7B0Q0fjzXLsyGNoZGCs6vkb92wwTPcLBLGh3ronQCysxkIsR0nZzHhGzHC7UsBd2h49eVw+O+JtGzbud+IdRFis2Nsrn7DBvhNHrnhVGNEuN8GO24DuY/6iR7LKsxUsfUZNkpBtvI7jwT9gvKcPDkLWYxt+lkHvpCQl41+oLe9YT2DfnyMdoughLBG1w4B/H5TRu85lOp8nj2f7NUW1vEB/nWNOBH2APC1d/p3qPP9O/I527TrxtjDZHur9zz7uDt8LVVut83PYMMHh9zRzwNN+yzsd1wZMxXw2Ury+NePgh43rZ9U0brpLoung8IIMHYdH3uJklcSe8+pXSxy0sLQ7ZpwyNvLnuO9k+a5DqPqmrieo4cFasSVKjoGkTeESHE8du/LfC2Lchhm230WRh1gNDwHycO35HlXweU/wDiAzAzP8KkwlKxdlrSEjtB7eSPRdv8KencljsJYylmNkd68RI+EjkDWtfZdsJnsrEuirSPDSe1pbvha+hn2zYsfw2I2rztB7OWgO99+Snt0ZdCvHjK9nJXmlha0uIedlrfPW181dZZ2r1P1PlZIK4hrMjG5GaaQ3fmSF7hnek891Pg5qufzpqQzE90NaMcD27lxbvgdiK9KSOrnJg3tAmGht7PZWrGZ/4eK8uM6Gv5Oaae02WRwYyV5cQGuIGiVR8TQ9lbF5iWN5+flFR0e+A57gxhI+xK9FxWCxOA6Ygq2CPlYGg8E8/sFoOqsba6uyWPYyEQ4ajM2cSPPaZHNIcNNPPmFPpHnmOw78b4mOmjdY/hAFKd4drukc0ODv7ELYYqrj8fknHFQ2S+/W+RtNmkc8ueTvY35LedR0ZoerJJ4C1tS7K23YBPqwAf9AFmZ4toxQ5ip2ujY75mMNbsFSjTwVZJKLsbYJdG4mCQO52wf0lbjHY+aXo6vDGdyvlkZI88nsafp5Vqo1xtW5MhCGSTwCw1oPn3crc9JCKx046sWkOhe8hoPPJUGuwbmfxrFskdGQYJg4OGxsa0srpsTTsycMzT2xzac7egDryC1zQIqs5dF2zwWI2MPq0OcNreVogc/k6jpO2OSUSt166AVgwWjtfAQA3wLQe3jyaPdTiK85hy1WN2jZe+XvPOg4rLt8PvsYNFrHFXq1cMypYx/Y+SnHoe5SFY9mJjYzHF3A6APcd7IWZC10mYpve4tiMMnHudcKZe6S9HsDWu3X4CrhmjFrFxac7bJedIMXIRPf4HBJ+Xf3fdX6scclzGsl2wCiD/AJVOUikdP4UZHED3b37K9jh3Go57R3DGgj+6YMfN9stiNrH7a/UevstjKwNyUwY4gxxR+axJx8xnK0AboRxtlJ/Kzoj35G85wDm+Gwb37KwWWjvzLnSAkAA79PJXKEgE2Qk19bpOB+yqh2XySuH0uGgFNeGSLFEMeBO/+vW9FEYjQQ6vXbvxJpA52/6QthknM+aihB/l1v5jj/hW8PBK654tiUSmOLw3P7dAO2pkaJnlgb9Uziwn3CC7Qa0Rz3rA7Q4aaD7DyVeGifZebk7O3R1G0+gVyeP5yeCuz/5eL9evVbXtHb2jgBakVUiIqIKIUQEREBERAREQSEQIgKFKhAREQEREBERAREQEREBSFCkICHy5VL3NaCXHQWnyOabGCyu0uf7nyQbhzg0ckALWWsxWruIBDj9lyt29bsOJklIHs1a93c523FxWdR0VzNiUu7D9K1cmSL+B5LXua4DTQrTu7XA/KmjNdd368q38w5x5PC1kzXjegdq5VheW/WSpRnGX35QubvaobGQFWANaIU1TuB8k0XHSDtClv6+CmgY+FAY4EbV8DR5VXB4VFkNKrazQ+6q8lJ8uEFrYadKpvI5VDxs/dVN9kEkaUBpI2pIJHHKkH6dILWvqUE681W/SpIHbtRVvv+ygHlQTryT765SintO+VV2Bw0pG+NqoN0SmIojja0/ZVjy8hr8rHs2IoR3SOAAXO3clavzGLFAODfNUby/kIarT4rmHQ3ruXB5uxlupa08WLY+GBh/mPb7Le0cAzLWhHYs+DMOXNcfMeq2DcpF09Hdx9GuywxhPe8+Xl5IONl6Ut9F42LPOsRWQ4aA3y068yqX421n+kj1Q7ulALmmNrf0gO0tbHkreWFyCUufTmcWsicdgHfoFt8f/ALQ9LBmGfpmJk1I6J4+pwPJ0mLrU9F0LE/UDGmcwzN+ru/0j1XS5GnFPl8k3FvdcuDmaMj9Y1z/hYV2uc11kDiGOpslj00RcEkDlZeH+U6VlycV91yDMRv7439vL263o/kpiS41HSjZcTkhZmiZB0/PL8tarbIMbj5kN1tX/AIlYi10awT0pZJMFbPfFOBvwiedfb0WV1ljbFnp6Dq3AvltV3kSZGn5lr9fU4D00Atr8NOpKnVGJtdLdRMY6nZj3CfPtB9Nny0s59Vv+un+H2bofEjo40b7wb9ZvaXDhzfQOH30FytPGGnbv47JQxyW4Ds+K79bfMEfsvKO3M/C74gyQwOkjNeUvj2d+PA5x7R9+F9B5WtV6/wCnqXUOKBbZhbt7WcOcPUH+y1PxL+xycdTBZbCSSRUI692ONzOG627XB2rHwVzdlks+CzkYGSa0/KTyu8/YAlZmQr0IqQyWOsPZHHIPGrv4/wALEy2Cu3sfH1BimsMj3agLfMFLE36dp031Y3EdV3cTnop47pYHMc1hcHjZ8iuqZ1hBNbdBWoXiR/XJA5jd/khcLj3SdUy4q/M2OtlqxEFgPdyGt9f3K63OZC9gqkNh722KxPbKAd6HunGpWovttdQZdsvUFStFj6Lw+MxSl73O3scaXSXKIzT4X1onxR/+YHgtJWi6ezGOz+ZGPiY4OjHiOc0cH1HK2+b6ubBfmx+PgksWIQTKWjfaANlWfosfEXFUb/Rd/DMswVpTC4xNMgbt2uF8y5A2LtBuOZXDrhaIC1p4442CvperhcR1EyK7ka9e1O4d7DIAXtCvZHp/BVGCzHjoIZmgASdgAH7pVlxYxWNnwtPGwUaNXwY2D6Q/RBI54V/L0K1TDubkofGfanj7262N93C3/wA1QrxROe+Mv7RrR24rneprGZzTDUwkNWOEEOdNaJbog740rmI8y+N9b/ZnJQyYKd9AWoXulawAtLhwPPyXZfDad2d6HxGVydOBt6mxpb9XcSAP1fkrByPw/wAz1BeitdWZGvPWiIcyOHZ39uR5FehY3AVaccIrRthia0N8Jo03Sn2rS57p5/WWMe6eU1X6PhOYNkH7rxaLP1Yr2Ro9SVnNmpERS3IwXEtB006XuvXXU1LpjBWD4jW2iwthiZy4u9OF82dQ4jL18gMeZI8jcy7mumkiOxG0nfKciPWuh+npKHW1S7XtS2sRbrSGJzzzyB6LG6ifnPh5l7VmG1JLgbjv5LO0EQvOgA468tr1DD4tmMwuPjhAfJWiDGkeXPmtF8XLGNr9CWo8+PEimLWNDRs95P0kfgqydI5LGdedRw1Yv4nj8VKyxIGh/wA4W+f20sxmXZmf4xXdjp6dyCAOaYGueH7PBB9V5l0pjoup8DJ01frxytaO6C2CfGicP079tL3/AKLxf8OqxvnnMk/htgJJ/V2rM2q53FdTdMRw1ocpkHSWWnt7Z267XfddExlTKWIZpcrC4MdtkLZG+S8v+L+Lr9O9QVLdTD1siMpJ4bq5G5A4AkkD7rLxXRWBzGSp5D5G5g8k5u5ImtDA0jyV3OkxuuopaeX6oyNVpMU9SJzHOPDS3QJ0f3WwxxqS9OQQYtviQx1wxxd9vb3WJmK9fCZOLG3YIpYbULniyRt7nDQ7XfnayehK8rYbkcjImRsJbHHF6fbXsp9jFqXXyX8d8yxkkb3+AXk8saBws/phvyuYv1/pEbzthB3vla8xGF+Rc6NrXtZsM15Hfothj/Dk6zHgxhjDXZwRrnXKzAtVh8/ciez6nvbIAfXt52r8bY/9qMfKS7/eYXSHj1BAV2wHDLRvkcXNkik0fUaCs453dJ084j/9EcST+VoXMuxrL94Md9L4iqoGf/FsY54H1Na0/caVjKtablsgvO2E79FlODm3MSY2jUennf4QJR4diEvA0JH/ANvRI5THdxUMbA9/ZL3D2VvKyAyEngNdwQsuOs1uYrSd5EgjcDr7hVFu1G0Wi4jtPhlmx91XUY19yJhYe1lTwt/faSMJ1+p5ErfP23yr8b/DdZlbrQlLWj7ILFAGfJSynhjGCL+yu1Y3MbJJ27D3EEq2xrocdbLdd7yXDX3WXHG6OsyJzn70HFFWJd+GyNu9vPGvbazLn0eHBD5NH9yrePaZ7sk+tQQjtbv12OVVX/3q26TeoI+Sfcoi72/LUy1x06Q97vsruNgLyJZWaAP0f/lWImHIWy7zrg/3W5a3tZ2jgDgKyKphjZGwiJvaNkq56oi0CIiCCiFEBERAREQEREEhECIChSoQEREBEUb4QSipe9sbS55DWjnZK00/VOHgtMgkvRCR3kNoN2iohlZMwPjcHN9wqwUBERARzg1uyionIER2g01575XHvd9O+AtTZIaSAP3WxnIJPK10+ieeVmo18gWO4crMcB+yx5AAoLQ2TzpRIz8Ke4DjSEc8lBRHF3HnyV8NDRpQzSrAB53ypRGgqCzZV4N+6gjSmKxpI/ZGRlnJ9VkFvr5p58FTBQ1+vNVh4cUcwEcK3rt8lRccR7Klzj6KhzjtVh3CaICg8j7oXc8KknSKhrnMB2p8QH8qgv40qS3ubx5/9URW86G1AJ7eVHaS3Xr7KoD6UgpI0EBA5USvDTr/ACsG9ekiJYyPvfrYaPVUZskzIWlzitHdzUnjNrVhuRx8ytTcmv2ojIQ5jAdOZ6hbnp/p+vFkoL+ZefknNHYQ4jtPuUGVQ6RlyWJluPtSPnBOmg8fhXsNi6OJpZKO+4svxjua1jtE8bUYrrWlifm6MEjXQteTFIdnu5WquZ6xl+qIm4+qJZponFw41oBU7XstJh8t0KbFSR8OYji7tB2nkjzXI44W4vh9NfJ7zISHNP69n7rb4aCxP1GMZZqPrvkJBc4fSAsvrLGuw8MuLmaX13nuY9h0NfcIjClr1sp03Wk6bx8hlqASzloG965/ysDOdRzdRGvatxth+Wb4bQ0aJ0NcrY9HZixh4p61OJrop2dpLlo4qsJfKHk77y7t36koLWFNuDJMylV5jkrHY7v0/hY2Y6pv9WZ5seWirV5B9DXxtI21bCjbkrT3KM0ZjdMNsL2/Zc3brfLlxB/nNHDvZGuLo+jLVrprPXa1uYWunrjTFM0k6aD5uAXN9SYGz8Oes2hs/iYLKAOqS8gRb2QwE/YKY5zaxT4XyEzO+66Dp+Wr1z0xb6O6llDL9YGXHSyOPd3kED86UxW/yWPh+Jvw6mHb4vUmNa50D4z2l/o3Z9eFwvwH6/d0n1FLhcuHtpWpfDcHHfhy77dH7bWr6QyuY6B6+r1sg50R7ux7Xj6XM8gdLpfj90mHXsV1Zgv/AJG9Ixs3ht0I3bAa7Y+5Uhr1LrrCxQXrL2RCSpdaZXeG3huhpcZiMvkunrOKhvyxDpuayNucdeECOOV3Pwxzb+oOn7+DyUsL71RpgZr9Tm9vDj+5Xm81SQ2bWEyTv/lCWvaTvTR6ha/rLseoq0nS/U9TL1nNsYfIv7HuZz2jW11/TctStbtYW/ZisNkaJY/EO+4P2e0b9l5Vls1LDiqmIDxLjY3dwkdy4H22VtPh7fmylqd9JnzNinonZ57fTz/Cz5dV1WIw0/St/Kz1BHLHJI0Rbb9RB8wmYisYSheysVGfx3/TKNbcWnzXV9NX4eooXXdtMcbiwM1+kjz2q+pOpcLiaz4clZjDntLRF5ud9lrPtHg3+24bC2vBHbolzwxr3kAn8aXoPTTep77q0dp8VjERnxJHvBL3jXltcbjOmJs9kmOq1XQ443RKPFbs9g/K9xuOjqYptaBh2QGNDFIrz0ZLMY23fr42jDfeD3QNczbvxsq7i/icGYKSXMUHfONk7Pl4G863o+a2XX8tLE2+nTI4wOfJIHPa7WvoPn7rxGC7loM2yjREdz5ifYd2cgd3KXoke2s65wt+u6SFlzx648R1YfqAHJ2thgOqKfVdY2KeVrNga3xHxMd/MjH/ADeyysZhKGI1ffDGbFhgbIA0fUSvHvibWxvTOc8aTFXa7bZ251efsa9nqCAVdo9ybjqU5ZJ8vHbcQC2WVofoflarLXMXirsAuMo14nHT5CwA8fdeXYqyzqCerX6Yyk8NoNGoXTOOgPfld3Hj83c6OitR/LyZurJJoSx9zZNEgDX49Ul1HRvz7LRbWwvbNK8fTLrcbfyuO6y6Cs9TTQyZ7MgOY8dkUILWb99Fa7AfE62YDHkum5m2YtsnEBY3tP49lvY+vcHJB2C2yhI7/wDuh3Hu9AFdlXxe6P6BqdPZU+FOJC6PudxySt5luqMXjrYowdlnIMOxXiI7wfchabFT0eo84xzcn3zQQdr44iWFw35/hb+jgaVCxJLSha2WU7fJIe97vwTypOvEeePqT2c/Jmc69zrhAbBCPKAfj3XadPVH2r/j2e5zmDf1HzPosjJWGS5Btf8AhL7BcNOnBaA3j+6xa1rIwxWIMZh7EcjuGzyyNLfzre0NYXxXlZJSxVWF0f8AEX36zmxebywSjuI+2vNXen3srdV345XNaeRoeW9rCodH28dnYuoLlt+QyGux8W/pb3a3oHy8lkVH76xe4xdviO04HzBS+hkWa6jcx5b2y68lbxzXw9W1XucCyTbP7BZGcBg6pi03u4BA+3KtOaz+MYaY773TSAAfhZzsbDKN+Xy0Aa3uHhSaH7LBrvMdbA/Tt3yrt/Yb5W0y/iSZmuS0RnwZOD+FhVGFwwsbSN/Jv2PttaE5Fpjmn1yx1QyAq7XZJYv9mwGQ045W8eZKt5cON1jIyGxmqYeednarxsUlZ9+Ukkiq1o+2igt3mm5Us7aGEdvb9ztbBrW/PZCcnUjAxrP3CteGPmqDXN/UXOeP2VyBokia5xPfIS55/wDT5IJaCJ2Oedagc4j/AJvRU1WOdUY+Ua8Ud37pI9rtd30vmeCD/wAvqsmctgc47+hjfob7oiwGyWMkyv2dsMDBKSP6t8aV7Iyua3UIc6V2msA5V2m18FF9iwOyWQnzP9PorMAkc5swhcZSdMG/L7oMmZpZBHTgdo63Ifb3RtR88Ta8JMdVvJf6v/BWXVosiJkcS6Z3LjvhZgAA0OB7LWKpgiZDE1kY00DSuIEVBERAREQQUQogIiICIiAiIgkIgRAUKVCAiKCQBzoflAJA81z+c6kr42xHWrtNm5KdNjbzr7krles+t7LrpxfTze57Tqex/o+w91qcRdloyNsDtda529/mdrF5DvDjn2IjZz0/YzX/AAg7QH7ric9hsdPZDqLD9Dw5j9nyC3dSR2Yjk/i1xwDTtkY1pWGRAkCJm9HQH2UvYw+nepnUL0kU/d4ZdobXpVK3FchbJE7ewuJf0025IH2Po9eFvqAjxbAyJ5c0DXaVqDoVBP30uesZaTuPYe0ewWtnyEr/APzHf3V0dg6aNvm8LFtTxvjIa4LkDbfz/Md/dWvmpByHkqaOhnAI4WDKwrVuuTBu+5VC5J2bcVNRekbpYsvrwp+a7ihcHIMUnyVYcDoo9oPCtjggIMhh91U3W1YBO/NVA6QZKEcbCs93Cra7egpVAT6p68qXAa81AUVJ1pUa35KSqSqi0/6XKeFU7R+6tkHfss0Q52lAdtQR57VtwIOxykF3tBQjt1xv25VsOOueAqDIDIxjQ7bvXSoyy4NAJIJ9lh27rIR5nn0I0u5xGFxwgY4xNklI2S88hZGVwlDIVXMsQM4HDvIhX4jzOpq9k4YXvDGD6jz5rY5mmyO2JqoaGAgO+ryWnfj2Y7KNPd4kcju0N39Q/ZXsj/NlnrUT2SMaW9rjrf3VSqn5HG2pn0p7ALwNt40Cfba02Xzc38GfjpbDHMjJ8PWgR+61L6Hy5ideYHmOQB3qCPfa03W+LZXy2MkoyMjo2nhkojO+312ivQjQhyVeDHRYqPfa175g/wDdajKVLOJzMeTwvYx0TTHJG48c8bCu9YxZHp2LH28Bli6OZvY+P6d8D1XHMyd8xuZPO+RjztwPomI9MrZl9iSB9jsfJ2bd2+bSuLs2cjkc3cgdKZotntD+NN+yx+n7s9ey5lWMSyycBrzpVv8AmKt6Wa210NknRBGtfhBs3mnBitsDmTtd2u4J5/K0VmxLBJFNFD3ljg4t3+oLquj8/Ru4WzhbdJ0t2SR5bL274J4K1dqsyHIOikadR62SOVcIz+s+qcV1PUomtA+G9Xc0PHYRocbG/VV4Oph5+rYmZasPkpoHNaTvXdxr/umJyuDxmQsGZrZ2yt7AHAcHWlDqdiHFzz2QfAh/4Q9C1DXPdWdIswXUMrcR2TQzO8SEB36fssvqDpuOPCVOosVbNbKQ6bNCBzx5rU2clJ3wzQjb4nB4G/T2Wus9QTZG24wFvikaMYdsIvbF+LVs9Ww1c/RgcbFaMR2W+WmtHB/ut/8ADbqGvkOjn9MdRPdYhtDcLnnQY4fpb/dTgrclQu+bx0b8fc/lyyAk9uvcflcR1S1/S2Z+Vrj62yNmgeRoHnu0s0V08td+HOfFhr3MyVZ7YrDCdmRhIJ8/svY+u44cj/s31xQ18vKGR242erXc7d+F5j8VX1eo8DiOp67GC02IRZIMbr+Y4gD+y6j4AdQ1shh7/ReUlBjnDhWcT3HRGtfZWRU5aOCa9PircboRdb3VpNbHOyOfLyWl6VltdKZpuVExFeB/ZKTwHt3ryXUQUrtr4gs6bzcjYoaTQ+tI8gFzeQCP2WsnwT8jTyGPs22DvkkZCwHggE87UpHpnSsroOqp34J8JwmRZ4oAdrtdrkjf3WRiqGFrZPIyuIyGU8XbTId6OvT0C5P4JVoRRIyxDLNHuj8Nx4LfdbXrSk/DdvU3Tj2GpOQx7N+rjoEBJekrvqHzU1mGGxGyPTe9zW60sybJUK9nwm/XMD5NBOitRkXX7HQrLGPkLb4rCQEebjryXK4nr/H4uvD/ABXFT1ZyAJS2Nznb1ySPNa3Bjdf9MdUdV5Z74XV69GMDwe54J36n7Kj4efDqfC5gW85Yjs2ntIY1nk1dNU656YykndFkTC7y7JW9m/7rLsWnx5qjJizXlhkY/RfJ2j9vdTJV1vJsdEwxOln7YY+S1x4JH3XgvxjtZTqzLtOPgIw1BxjfMR/xD7he0Xcab8sU+Zc9zW8fKxHuYfuT5pkW1a0NerFjmvrOcA5pZw0JeyXHkXwa6cfB1DJkYZi53hBjdt12r3im1ldroGHXZ9biRwd8laPAvw9JktiuIonveWdo0Dx6ALnOpanVfU12avibIxeHLe0yb1I/34ISdHrh+qpr1n4m5Cx0uGWITGI7Dif5YcBrz912fSODq28ZC3KVI3W45WnYG/VWcT0jN07j/kazO9m/rkP9R9z916B0/j2Y3HMDhqQjbyfRSTbpXH/FnpJl7ATZDFf7tkKsZPexxZtg5I4XBdL1b1/pnG5bD3rLZJZ3Qvic8ntLfN2yfcL0H4h5aXJgdPYgyeNYPbYl7fobGfPlX8Vja2NkpUsbUjjrABsjANBx1yf3Vvqajoqll34+5FmLglsg7jlY39I9vuubxfW3UNq/kIrWBdZFB5YeyTsOvPf9uV6H8xF09h7Fi+GsjaS4BvJP20vMMHB1Xnuo8zm4LbcVj53NZ8q3TvEAbruOxsFL1COpwnV2PzAidWinrWn/AFvZ2ucOPv5KhkuurYXMdvxpg4/ut/0nQip0xEGN1C3sc4D9RXN03xWupfmKoLYY7vhcjWj7J2N31JCJepKDgdEHTvxysCk578rhvGPc0WJgOPsVs8+P/i0j3cBkYI0rMcTIs7jQCQyMl549XBT7FWWmLLvzLm7LQWa378KGVo2ZXFmQlpipSNLR7khWs8C+azEOZPHiI/GxtZ0pccvYk7QWxHwgSfcKoxSwOkpjnuNkb/8ASr+NlFme3I0H6pXQlpHBDSqS4tuWJt7EFY/gPBV6IOq4qAkgzyO8Ua9yirb3jduwB2/S1kRJ9QdHSyCzw42Vt6drZP8A1UQQMkutYAHR19SgH1c7zSd5fM5rNullOgNeQ9UF2ixskzptB0cP0M/CocBbsP8AE+mtEe57vv7K5M5sUDcbTPe8cPcP6VkMxTj4UcjgYW8ub/qP3VkFEcP8RlZK/ubVi/Q3/UtqyJkY20KtjQ1ga3gDgfZSRve+VrAREQSiIgIiICIiCCiFEBERAREQEREEhECIChSfJQgFeTfFzrizUaMTgo5HzvPZYnYN+EPUfYr0Hq3JSYvA27EDC+cMIY0efcRwvLOh7rbHTGapZMeJlZ4pJ3PePqLiNaCze+osYjp8XUqVhjZJHyOYPGc//VrlUMtl8rQyN0pPlobWZgej5cljYWmKSAj9TnDWwvQMTgaGEhYHASTNH6iFicU6aXB4e1Z8OeYGKP2PsupZFXpNIjAJ+6tWr2x9BDR7BayWyXDW/Jb6iM6xcdrh2gtfLNvneyrD5Sd7KsPfvzQXZJSPNWHSH2VLiXHzQD3KggO7jynkg13HSnt2VFN7CEFzdK4GjW/VSR9KqLIj0PJQ5nPBV87AVJPKirBDt8qg7BWSQCrbmjlNFprvdXe8EceatO2PJGH8bVRd2q2nSsuOvM8IHgqKyWu90JAKsF3sqtjXmoq6XBQSCrJfxwpa7aIq8lIGwoB450VV3CMbJAHmgpcwjzVlzWg/dZfc+ydQQvc0ebgOFlMxwMYcXdrh57TBpZg/w3do5WBTmnrX2SWHPLANAH0/C6plLxT2tHcT6hc31rir9KuyZkMj4AdF0fm0q4M21kZYb4t1rEzY2tHfs8qi3n8jbxwsRTPdXY4+I4eel57kLmUlayu0SdhHPvr7rXRW8pWjfTglkZBvlhPntB2+Yt0rWYxL8XZ8SdpPigHkrVdYyTNyjp2SSVJg0t35eIPUrA6eea3UVeRkbHyBp4A9FtM8+G7lw7JNfHG1hDO88EKo0mLfkcnh5y2RskIJYXP8ysDGPdGDWvQabs9rtf8ARbCtMK1qOrV3Fj5Zduk39IW062oM+XhmpztdK0AdrfUe6oxcRShvNmiZJJLM8ai3zohW68EWIyDocrEdlw0Nef3CwcMbuMfFccDFMwkt7h9Lt/ZZmcvS5ySKWYMbZb9LQBraK6uR+HgsR2sfE111vAaR/kfdWspYr222Z8tXcO2Ita9zeWn3XKUaWdNuXtjjjMI20vb+r8KjK28tJDG25I1zX8GNo8/ymIy8RTy+KaM7jmQzQt39Lyd9vusjJ3LN7vvSRtie8cg+qx7GRkZVr1qsrmQNH1sJ4P2UOsS2Ynd4b2NHkArBqsaMZcpWTdc6O/yYx5BX8L1BcycP8Mv2j4DW9o+6oipixM5/aOwA8+qwYIIMfDYsyxkgj6QPNRU5KBtWxLFG865aN+v4XQusdE4n/Z/JvYxtqKb/AHtsLd7b2EfUPzpWL3W2FyXR9bFyY2SLIw67Zi1vOvv5rjGOrvbO6Vgcxw15JVd5ipm38BlMlRMbsSJHubER9X6j5Bcz8QZh1R8P4cnXrl1rByjxndvJDiP+y0eDsT04Xw1pX/LPJ+gO+k/st50LnT09mcjTvFj8ZejcXMc3f160FNMcX0/1MYJ5Kc/a/H5BhJYf0h+tArW4zISdL5yW1Rl7ZqrtxyN89Ba8UHss26HcW/KuLo3H1A5Wb1Q2nZxOPu0C3xDE2OxGPMuPmUR778RKEXW3w/x3W+KL2ZOjD3SStPL2NHIP7kry+vZklpMsw25GywfWO53qfNek/Aa2L/Rz8bkZx/DJQ6J7N67R6/heZ9SYV2BydzHMDzE2Vz49ne2FxLf8IvF0PSORvO6kq37LJJaU0T2vcwb+3K9GxXTeQzjPAqZKWPBPkEpicfqZr0C8h6RzdOnHJFkzO2uGkM8N2tFeydE9X1cV0bDYpV5bcLSPGJO3D3WVr0Cpj5q1yn8lPNJBC0RO7zwW/Zeb/ErB5FvXoyVTIwiuyJr31Znaa7zW6tfE5+Wx8tXpHD3LF9zNMdpobGT6nlcXF0Jm8vYivdUX7TbjjotD/T2WrUkbLoiLF9ZVMgLHTkMF9jyxjxF9J51va9Au9GwTdO1sZHJLFYgYTFYi47COdBZPSOKbSgLKmmBgAJ15lbDqPOwdN4aS7fds70xjfNx9AAkiPJunLGd+ZyVWbqGYXse4skgmcASe3uB1ry0Qul6azHVtwsqW46M8czd+MHHYH3XCXOkZs/1BP1NPedQnugGWNm274AA/sAvaukaEdfHVu1rtRRCIOd/Vr1UndWuKxfUOPxmamxOdw7v4lXcZopGRd3c0kgOb/Yroq/V+Gs2W1/4iasw/pnIaWrkvjtXqQXMRk4JHRZCKUNldG7TvB0eD9trVdJZGLqrOWJzg+/HvibH4pYOXN4JS3DHpcfzF0F8WWry7O4mNk2135WXbpXbNIDIyyNePNlQ7B/O1q8l0dBZ6SZShklpzwgyRSwHtcCOQCvPemuob9nFiWrkp32q07RbgmeS/QP1D+ytuI9WZJi6mPLX+HG4jWnaEhKwq17ulYaEPdrkyWRprfwQtXXymYzTpJsbjKrYgO5psRdxd+6oq/EKq1hrX8PZjtRuLJI2tbokeeufJB0NuhHlGM+ckNhjTvTTtgKsurGpRc2MljSQHOPCx8PncfkXPixlyvA/zdXl/W38gK/HVqZGtJDayBsuY76mV5C3+4QVW8tDQptp413zl6RvaPDOwD7k+i1+BwUuPhrwzyiWzJbFqUvPO/XS3cYgxzmxV8ZI1p+gTgD19z5q1WkgsZ98TZSZa8R7x+6CjOND7dvtdp3hAD87VEQE2Yl42IIWEn7kK9Pp+Yh2AWE6d+FjdPxOENqfX65HNcT7AnSIrb2z5Nrn+fY4v/YcK3UEjqT7MxaWyvD2tPnwqQSa9iz+l1iRoj/AOisq1GInBs7hHDC0vH2A50isa64R/K1BG8y25g9/aOGs9drOnDY7AJ/RCPo+/2UYuQWKzso7YZK3UPePJh8iqQ+MSsnsvHhMP8tv+t3sguwD5Kh32AWzSOJAHmeeFNGKUd7g0GxL6nyYP/wArLoVpZpTZvD69/Qz0aFsw1rfIALWDDxtCKm15j26SQ7e53mSsz8FTpFQQohQQiIglERAREQEREEFEKICIiAiIgIiIJCJ6IgHyVPopJ0FhXMnVqMLpZWg+g2oNT1FjbeTnZG0nwG86+6mngsfjpBPI1hnI1wNbWJd6xpMJayeJpHmC8LUv6qqTB25Yz7fzApsHTW7paOxjQ0DkaWqls724HbvutN/Ha0nLJIz7jxAoGQglILSzn0D9qajOlm3zrk+ax3ShWjLE/kSEb9hvSdodot5b7oKu7uVOjtVDTfVQQSUA6CgDara3f2VegAoqkNAVXkNqNFVAcIDfNV8eSpA0m+eUMQ/yVvXKrPmoJ58kFHmVDm+QVROvNQeeT6KUWzGAeVbeweYKvO5VDm8eagxiXb0fJSHAcK65o/Kxp2uaCfQKyiXy9vmrkcocdbWBI8vHHsqAXxnZ9FUjbE6PCraeNj+ywYbTBvxXaVixlYYHBw0e46A35qNNm9/ZoMBLnFdFjOnzN4ctt+2HnwwP+64eDMObK55YdB2g7XkV2/TvU7Z4yLYa1gGmuHmSrxR0UkDYKvhwRBx8gBwtdBiJJ2udacWF3oFuIHiZjZANNPICu+Y5W8GBWxzK4Z4Z3r1KzZY2ysLJGhzDwQRvarU64VweYdcYA42d1+pCX1HDUgHmz/2XBXIY3vY+N3DjyvomWJksTo5GhzHDRafIrzXqjoQwPN3E7cxji90H2+yzZg4TKQR13wPrfy5QCC4eu1pslkS2IxytJcB2gu5W0uZWCW25rN97eHbHkVpLrWTzbHJ9AoLTss6KpEwY6Vwazt7g4aP3W3pZZuQhg8KJzXx67wedBaIsnkifCIjoHZ16LZdKZGKgbXiROD3AN2W+iDb5bOY+9dijsxPbKwABvkPyse1A4tZboNDmRne9easZy1W6jkrxVgHTtOnODe3tAW2i3TovrROIYR5EcrUSqbPUsrKsbYowwP8A17GytJk7TZ2OlY/gefHkr9WeOvkYpXRmTwzst15rJzpjyc8k1SMRgs24e5RWqrMZPUdLI/s15b9Vd6aYcrZ+WMoYeeViUy2wPBZ9P9J36fdZXTOKqWbVkXLRryRD+WQ7W0EPecRekrzO+ljtH17gsDqh0csRaxrmxSfp16KiZpmtyNe8vId+o+qwMjZtWQ+qO3tZ6qUaxlOxIOyNncGN33e66D4fWcfjet6rs+GxUyzR8UfTv7rSCaXHVGWAdPB1r3Czs9mo8wYHms2FzIw0P3slRqsLqe1Xk6myDsI4CgJC5nb5HZ9FoJ3CxKTJLonkc+yy5g5gce0Hflpae0R4317aUWMinQ+Sz2MyWUJdjbErRK7u82kgf9Fh9awVKvV99mKPZip398DCd/ToDhZt/tmpw145+9h04g/0lWOpcRLBg4co5xcyOQRk68kYsdJ8OepZcBgb2PrgSS3HFsZPPYfddR1A7MiSLL3a0brccYa4Bo12gaHC8s6bnbDk67zs/UCB7fde8ZGi/wDjGGvmwH4vIAwmJw1pzWk7/uhHmMGMgvdN5PLS2mNlZMwNhA1vZ5XonwwjdBWe2UdlXfi9hGw4BYOK6DdHJkW5CZsddj+4dvPnyF2vTtR0bA4SMdVERjBOhpSt29PQqOcxAqxyQGGo1ze7xHRgAqc1NHFTF3x2TtfoN7B5rhruawlfo+3is3J3yv7m1WBh27j6eR91u/hpgPk6rJLQc3bA5kL3Fw5H3V1h1GIyD7GMa+Kq6I+QJ0d/dYubxVXJmOTJt8fRHZzprfvpclnM9lumerLdWsGTVZmMdGH8NaTvjaqu9YWDPFWzGEBPcP5kU+wN/gJaN1Jh6brwidaYI2nfbrW9LaZbqSDH12wYuA3bWxGyCM60fuT6Lnb/AFF01Vtsgy0M8T3OAjJjf2nf3HC6WrkcXJEf4bPCHeWjoH/KQca7A56/PaymagjNieIReEACImgkj8+a6npjHOZDHprI60Xk1rdbPqr1qK/IIpqN1kjw76mEjR+ymlBloqrfmrTK+nFzu1odsHySQ1e6q6hq4DH+LP8AzJZD2RRN/U8nhcfhun6TGTZC3TezIXZBLL2v0A7QGtfgBdXYpUBKbtuVs9iIfrPp+AtZLmKsdmOWKGWySNhoaRyl7NdJha8tasY5SzZdtoaNab7LzK/i57nxByM3T5ZJUkrtjs93PZIHHZG/L08l338QyV2luCn4Pf5uc7lo/CxKNKLG15R2iMcvc8nkk+ZSjBweMf8APV234ozYYT3uib2gN9NrRfEHG1sBnquWZLNFXs7jmYxxGjwARpdfi83j61d0k0vdO4kEMBcSPTyVMsRylmK5bb/IAJige3/JVHOdL465Ws2Z2z2L1Fzg+q0ykny+/wB1vulo3vvZW/YgdDP3FrmOO9H2W4rvZj6MtiYtYHHbR/0CtV3vGMmmkYGGw4v4PltTBgyyhnjTnh7W7b+VcjZNBiIoePGmcSQPY8qhsDZ54a79gE9ztc8K9bm7ZjIB9Q+iP764QWYaptXhGNCtS8iPUnlX53fN2HwaB8QbkB9G+oVpoNLGx1YXd9uwduc3nXKyatCZ7TDJtsf9b/V6YIirm0xlamPCpQN8Np8xwtlTpMhG5S2Rw4B1wP2WVBGyGJscYDWNGgPsrmlrBAGjseqlEVBERAQohQQiIglERAREQEREEFEKICIiAiIgIh91i37sFGsZrMgYwe/mUGUSAOVz3UPV+MwjHePIZJQP+HHyVy2f6lu5QmHGnwa54L/cLT08FFoyW3GeR3k486WLyGFmfiNmstI6LD03RRHjbgQVylrGdU5N/dZvvgYfNsT+5enw068RDWx6IHqr3hQ6J2xp9vUrNX5fjy9nw+gsR7uSyyPdz3HzWVB8NaRboumcwe69ANuCI/zAG6425Wpc9j4Xtb8xCPUhzgEyL8uTgZfhpVYdxWJ2AngN5VmToG1DE11LJWopASQSBpeif7SUC7YsU9H0DwshmYpzt7WkSD/l5CuRPlXnuMo9RY/QnuSWYx66C3EOZswnslD9exC7JktWVmgOzXvwrUlGtZ+kGN5I/dMTWlq5uvONOIDhxytlFYY/9JCwZummRyF8cfZ6rGmgmrkd4IaP9KnZ03wIJ81UD9XK0VfIjZBcC70AWyisdw2VdGcdDy8lSOVb8X09FWCCEEkFDyNKlzu31TYcOCoI7+UJBKod57ACpcfZNEuePVO7YKsu5Clh0OQsipxBVPohG+Qg3vhXAABKiVvHPITZ1ysHK3RWrvfsfSNqjX5qWOmx02z2tGyFxt3rtkrHR0of5h424rqTVfmccSJGMikJaS7z/ZeXXMV/CssGkFzI3nz9UiyRsYc7lDZ7rc7hEOOPXa30FiKzEztnMjoh3d3qCtFnWNloh8Ba0geTVxkWQt0C9kEz2dx+pGpNex1szFKIas7mxuleAX7/AFH7rbZM/IQ1J43FndL2u4/p9wvEIr5c5pneSR6/db651DbswMY65JJ2DQ7z5fhWJY+qOl8nXyWLikqzmYMHa4uGjv8AC3K8I6J6kdh447EHa+KUAPjB8/uvcKdhlqrFPEdskaHBblZX1IVPJ/H2VQ8lQVOgP/wqlHqg8V+JHTUdDqaK/CxjKtsESBv+r3Wg6WwzH9QWnyAzV4NtYT/qIBAXvGbxdfMUX1rjAWnlp9QfcLwm9850p1JaqMe+RpJf2nyJ9Cs2DGynU2Nw3UL47FV0bWtLJexhPa9a/KZ7H5Gz41Bj+17QzZZ28qy9jeos1K+61sRI7nOHBcfZYGZx7MJfFaAlzHMEjXfc+iLjImr5Hp+581Tijl8UDfcdaW0bnXw3DJkapbIdd8Wv+nutW/MzTBrp9PDQAR+FkGd2TlbJJy8DXcfPSRG8vXBY8OxSrkfRy0DjXutK62Yq88wmLXHemrOqZU4lkjGtEh7S0NPsuQstluWXucQwE8AKiurYmBc6MnbjyrVsnYL3nv8AstpQnr1qjopewyDeifNamzIHylzSNJSL+MMstow9wGmk7JWE2yIZponj6u7lyxrUjvGa5r+37gqrLmsyGKSu4uef1+yyuKMtbbYibGxgAaPMnzWthEjf1u7gPQ+SyZ5IpYo+wAH1CxnSiNhBGztGmSwund9LSdea1OTe0yfSAdcFbKnfdVie0NB8TgE/9luMD063LRxRfKzBzzt8rm8f3UWXHPdPdP5HPyk42EPbGwvcd+gW/wAdHLl+ncrhw4yRwtc/tA3p4XrWDxdPp7HOp4qNzXy/S9+udHzH4XPdP4NmC6nstYO2Gy4l/d90Zt1498K68mTz/wAq+EGSA6e4+gC92yFN2QwcsHc5z6GpIWff1XmuFqjpj41Xq2uyK83xYx5A7J8v7L1WMyRWHO13NOydJWVVZ02V6d8SPbZLJb3H04OltIqdelVjqvkL3gfV7bWB0c93+zL4Q2Rskcp4cNf1bWdHjbD7j5ZZuHnu7dqK2dbB0bmUrS3K9f8Akwd8XcfJ2139OmwQB1hrS/Xn7BefZeCeOlBNSYyawxwDQ7yK2mSh6qy+NFcy18b3NHc+FxLyPYbWp0jlviT1VjsnkbHT2Po/O3XsDTYYCRCd8HY/C2fw/wCn7UdaSLLWX2bBc1wLx5AeiysJ0VWwTHOpsd4zzuSd36nE+5/K7XDVG1KofIf5rv1OKmbV1Y6oxFXKYWeGxE0ljC6M6/QQONLx3DUTlq0dWSnN4od2GV7CGn7hy9U6iyM0sooUf0uGppP9I9R/ZYmOhf3w06hPhM4PsB7q3tGN0v0xLFUsQSyyQsI7WFvofcLm8T1BlIob0M0rbxpyOD2zu7S5vcQPL8L03M3m4jDzTjtLo2fS13HcfZcFjMAx8Fme83tuXD3uDTsNG9hL/BcxWcNqpPYtYZsMjiHRxsJc6QDzOlssf17gLUMhgbZjljPY8GAjsd7Le4rEMZPBekcfGY0ta3+kA+y4vqXDTR9ZtiwlYNhuRPdbc4aYJOAD+dbTwdRDk5rURmx92GRpZvUrw3X5WQyFt6k8ZIxP+n6vDd3AhaXp/pzHVLvyL2xSyOrbm7TvZ2uPw9d7refr1bt2vWx73Fxj8nN7tdo/Co9CqxYXFsBrU/AJ/rDDsrMcZLj3+EXNOtNdIO1ctZdkYKsJZ4lySw0BrZv/AC9DYJ/KomzfUgwEk1ulXjsRSMYAd6ds64UHQNw5LmC9kZbz2niJwHaw/bX/AHWbfma17YWA9kQ+rjzWJiJybTvFhMc74y+Qa4YdeSkHxJfFlcW12fV93n2QX4A2lTlsSyP75uGg+YH2Vmq1z5CXRiWZ/wClp/S377WVUpS3rAtXm9jW/wDBYPQe5+620EEcGy0AE+ZVwYmOxkVXUhaDYPm//sthr/8AkpRaFP8AVvXPkqkRAREQEREBCiFBCIiCUREBERAREQQUQogIiICBFbnlZBE+WVwaxo2SfRBjZS/Djab553aAHA9yvOr92XPSiWckQDyaDwsvOW5MxbPP+7t4bryKipT7Y2tjb9IHOvRYt0W69VjWtaxm2emlfcIazSZX61zyeAtP1T1Tj+mqLnW5WhnJY3fLvwvnjrP4h5XqOxJFUe+tR3wAdOcPuVlZHsnV/wATsJiBLEywy1aYBpkJB5+68uzfxazl9rmUoIK0Z8nuaS7/AKrzxhDS7f1OPn3clUOkLyR5K4a2dzqHN3Xk2craJP8ASJCFr3WLD+5zrdlxPHMhKsFxHGlIO96Vw1dic8O7fmJg4/8AOVuamVyOOZ21cjba7/8AynS0sLdbJIVxzgR57KYa6ej171HUk182J989sgJXZ4b4vTNLGZKg9p7h/Mh0OP7ryeKJztuVTe8k8qK+msL8QMZkJNR3Aw712TO5XWMs07UepGuaXDhxP0lfHsnmxxeWu8tgrqOm+u81hHFrZvnKzfNsnOvwUTH0FkcK6GUSQuZzz3ALTyZCamWtnDvPlwWv6S+JuNyuoXyitZdoGOYg7/C7SWKjkmDQayU8c8goncYlO/HMAQ/e1smScccrnLeIsUZe+HjX7rIoX+0ls5LXfdRW9B7t7QnW9KxFI17dtO1W6VoGnIiS/nRTY91SNP5CnWgoJDePNR28+ar1w0+QUuIbv291cEAcKl0gaNKxbtiFhJcCR5Lb4PFzy2ILTmh8PmdpOxo7dhoGmnlcxn3TWmOirn6wN6PqvacviKt/HuY5rWOaO4OaACNLzqGuGsmd2h0TCR3cK2YNPR8WDFCIxlxDNt7fRy4bqIyz95n7RIPYLsslejqAshJY3e+Tva5PNSMleA1w55PG1cI40zTxt+oOOvNaK/OXS9xHO/RdzNRc6q/vbvj6SFxuVrlkhBbz68eSOnGsMWO4nXHO1kwzEkb57Tsff7LUP7mO58lnVJPoPA/CjVeo4Wdxp1ZO5jZJOAzXsvobo2/Vdi61SOzG+YM2Gb2QPVfLNe9kIsJE1kkbQzkDs+ofuup6T6qsNvUpS7UkJ0S062PVJcc8fUB0de32VYWuw2ShylFtiAgtPno+S2I8l0ZFHuFKIKV5Z8YMPIZquUrNBLGmOXQ9D6r1Ra3qKgMniLFU+b28KUfMlx7TKwNJad+Y4WNfquLmF0r5HnyJKyb9J9SzZilBDmSEc+y22HioHBNlszhsssrozs8taPIoOWss+XjGvqcfMK/Qnc+IGM9pHspiljlZJ3Pa8B7mjjzAPCw/mRVk0wBBdvWJBIe4/uscn6u4ErDuXXTynZH7BRYsRthi7t8Eb1wlXDKRO72O2da2te+Z4eGN3ytz1Dm6VnG1a9SIiZjtud7jS01ZrxKJH+RWVi2HamLZtgBU27AI8Nuu33V+9Uk8RryNNf5H2WPFETabG0eKT7BFY/bNOWtiaWlv+VsqWLnttcJAQWje/dbzA4WzlbngwwmKNg+pzh6ru8XgG13gzkSObxwNKFrlukOm++5DYtxtdDEeGuHqvUID4jiGxMZGBodrdKqlj2NaA1oDfbS2kMAZoAIzawG1xoaB7gd7CxOpa7I71aQc90W9/uujEIA279lh9XU3S46rZZrta4MOvZEeM/FaOSn8QelOoOwGH6artev0uP8A3Xp88HhSh36Q5jXaP3C4r44UnS/DivdhJElGx4wI+zSP+67qXtsUcfaa4kSRNB/ZqgzKMbGXu0PBEze4AfYLbwR9p8QgEAa5XN49lp+TgnjZ/JZsHa6pjHPe8ytIafJWUVxBjac80hAjhYZT9gFD+rMM/GV79iWeOo93hCXegHDzWRWjZJTvQSch8Dm/kLQdCUXZDp8RZKOJ9GKzI2OMsG3a4VRs8hk6zfkXRXi6lecY2ODvI689rcw45sEUbWyW7RbyCJNg/srE/StS3gJqcsXhE9xjcPOP2IXmnTcs9ildr+Nb/iVGUQuBlOn7Pnrfsl6V6ZeyDYO6I03eI5wGgBsq3XblorviQ144a5j1uRvIP3WnxTMxTxloOAlmbID4jx39vCtVeqLlie3TtQOsRw1jK90R7EHTfw7xXOlyNts8g+oR7+gfsVg28jVo2I3Bwtd57eyLzWhgt4jIV7M0jbldsMPfIwyOJePYELM6X6ww97CyOg7arqru0idm3a/Ko3sOQyE1iBlOjNDVDXdz5tEb9FZnPyrJbNmcN7QXSPceFm/MyzVYp6kjZIJB6cK6yvFVryusASB/m088INRhsjhHOdfxdltm5M3tLWP2d/8A4V2DHOZStRgRh07jJL2DXmfVX5MpjavhwxQNjfr6e2PSuy1mXq8scsxiZK3Ti06OkGj6o8Kj09ZjpyzWMjYYI2CJ2y0+hHsq+ncFfZia9XOWXWbb3CRzgfpbo7AP3W5x9CliYiyg0vY7lz5Hl53+6rsVnTshkfM4Nj3trSQSfTlBhmmIuo5/l22XeNGTIS/Y7vTXstrSxgYGusEuI/Sz0H/ur9Gv2/znA97vIE8gLOCuCNce2lKIqCIiAiIgIiICIiAhRCghERBKIiAiIgIiIIKIUQERQUEri+vLss0PyNR2t8vIK663MK9eSRx0GhcER49iSd/m8rPKrFjHwCGpHGeXe6s9SZiDB4iWSUiItaSTveytjAGxsc+Q6jA9V89fFjPWclnHQslDakAIIDvMrH8JHJ9V5+bqG9JZuyHsa4iKL2HuuYc4aPt7+WlXZl8Vxcz8bKsf1AOK1IejtnkeQ9fdQNk6VR4JDfJUx/q5VRU76XKGEclS4BR5DhFZNcwvYRISPZUaHi6b+nattHkq2netqDKEzQO0eith5bvSt6ATXsiqnvJAO+RzpUiRzRreu7zChztflUlpdyiK4NeIHNJYR5OC7XpXrvJ4RzYbD3Wqe9kOP1D91xjBvYHCvt8x6n1UXX090n1dQzlVpglDgRssJ5Z9ltMhjopovFrODh68a0vljDWrtG+x2H7jZc4aDV9G9LXLoowOyILLD2AvHptEzFyCaWnLp2+3fqtoyYTt2FkT14bke267tei1jo5KbiCPpQbaqwl2ismaNo0ByStbUs9/kQNe63WElBtbcIjz/wCY7SiLMFK5Oe2KAke5K2mN6fmkk1bb2M9eV1dcxuYPCMZHsw7G1d9eVqQcJ1j0h4+Lc6g9zbDTsey2nTWV7MEyPIMMMsA7XAc7+6ry2Zkgc+OUBrWnnt54Whzl2A15vkpO4TDz8tFEbGxlg7xzXZI7vaQzg68vdef26Uw+h8z4pHfV2j9JP5W8wOZlp0w19gyNa/T4ZOB2nzK1/UGUBnk8EB9Z/wDwAP6D6BBw2cisQtmLwGFo33B29q70/VgsYoWXhr3bIcC7lVX6lrIuFeQ6l/UT6a+6sY7CyUchFHK/TJD5tOwg2LYIWukg4Jb5LQZ/pl9mN74GbceSGja6O9QdFbBY478yG8jS29C1Eyu7ZLNkEPA517IePnbLVX153xSNLS08gjWlgRuO+0DevXfkvRfiVVZZyvj1m9rS3TuNd5+64CSAsPcW60jtLsb2hk7diAVgQYtdpOuVnwQOi8QxMc4MI7tem1zeLt+D3bOl0WLzUNevPFM94Mjg76W73pQr2L4FZprbdupLZLCNERuPp6r3iNwexrmnYI2Cvjvp7KMhy0lhje0vGg5vmvpX4cZeS/hmNneHdg7Wu9T+Vri512KKNem1PotIhQfupUeukHinxdxLaN511g7I5RskDyK8rM0YcQ49zfMFfQ/xYirz9OyRz67zw1fNllrGSlu9BqysRYnbH5eW1h+MZrMcLOXvOgrlosc3e/Radkr47okiPa6NwIUXG8s42WhZEdkN24d3msS7A2ZumO0Qr12zcyYdbm+osGthakyunc0l35QRBEfFIdyQtoWte1rN/UrmHofMOkdonsHnpdF050hNZnNu27ULDsMPqg52anetmKq1rtOPB0vRel+nq2Kqsc6FktgjlxW7gpQtDe2Jo1wNBbOtVbsEt0pUWsbCWPkIia3u50FtK9Jr2eIAG88q9XrDXHkrwaSQ0JhquKt2t2FdiZ9Y2r401vZ6lVNiHAPmFUQ+HZ2325VGRhDunpt+Ydx9is1zD2Aj1S1CZcTZi1z2Fyg8y67pm58Luo4SO50VOSRo++uFe6GuDJ/DbB2ed6dG4/8ApOltpI2zdN52s4F3jVHRrnfhA6N/wopQNfzXs2A8f/xXaU+h12Gjd4rhvTfPRXRwsGwRyuXpNe6UMaeCuqrMOmMPHCs8F5jXGQ9pABPaPuqOmTXrusVw9nZDI6Y8+RJ5VbW6l3+oj0WNhsXSrTXbE0JEk5O9c8b2qMm3lreQkc3FNLIm8GVw8/2K1uNxFaj4j44BLel2XyAaLz7raz5CtXBh0WDQ0APNWTJlhfrvoUoH12tO3SyFp/6J6MzG1ZKWGtPuP3JI0vfv0Ol5xgMHmZ7Mlqe4GRTO0GdoHdEfRejX4bF+JotyNhh19Ucbu4P/ACsG0JG03x0oWPe1nbG3etJRtMLRhq13SEMdx292h5D0XH9Q4epLcyDMa0fM3gxr267Wt0dkroKNu5JVZHJUbBHH+vk7cVfeK4sRyuYxpI/X6+So4Lru/DFUpY/E/MNdFIxj5ACGg7GgT5Ld1MdkGvhZJea6Zzg9ze8EBgPPK2b6Rs42Sq+FszJZA97pONgHaqc3FY2wwCrHGZiI+1g9+P7KDkpeqcpZ69fjcQWTwQnw3DsGu0eZ2uydcEUD5MnGGMaTtxOt/ZYGLxsFG9kDhMZWhl8UsM5+kj7D3Wn61mu5zO0umaFYvbG1ti1adsMAOxrfuiOgq5CrksbJPjoZIW92tu39XPoujxzI+zs7fqj1zvz2tTaAx+JNWJgke1gbG1vutj09XnhoNdc/47uXb/wrFbM/bzUjyTyARaBERAREQEREBERAREQEKIUEIiIJREQEREBERBBRCiAnqiFBzvVdkgR12+TuSVoI2nuDBztZubeZ8i4k7a06CwLVgUar7L+XAfSudHJ9dZsVp48bHIGCRuydr5/69lqx5R8NSbxONyHextem9RxyzfNZe1+lgJaD7FeNS2q80dmSTRe52xwkitXsuaNcfYKqNv1jvB0oYe072CNqpzi86HAWhEwA/Sqe3QB2pc0N8z+yhrXSH6fIIipo7vJCAHaUDYeGt91XIzUnCi4nt9lU9mt6Kk8Ea81SeSUEqCdKtke2bJ5VJA/JRVt/1cq7Ex3bvXARrNkbV+J7WxyNd6qIgDka9PRVwRvszxwVmF0sh0APNUaDWuJPmOPsvTfg90yJ/Ey9xn0g6jB/6qr46boPouDC1WWbDQ+28dxLh5Lt2sLgCfLSkN27nhvoq+N6BRjVyu8xnbdrLla21Dp3msIFXYZO07QauQPqTBwHcPXa3GPhblXBkR+rWyApswstRkn6TpabGW5cJma7+TEHad+N8qNet5frZLpmaK5FYkNOQ9pbv9J+62zerp46xMjYZjrgsPK6qzDUzONLD2yQSN2D7LiG42XGWGwSsiEcr+wOc30V8RthYZmK0svhRGORoaXDzaVwGfjtYi0Y3td2MP0b/qBXo1SiMXE4QuE1R52/Q5C1eeoR5OuX9r3E/wDDc70RHJVmNtM74IHzOkcHytaN9g9dfZY1x9Ul9eNrtibujI89ey2+C1icrJBlY5az5GmOKTemO2srO4iBzIrFGBxsV/8Ailp4dr1QcxW3HlafcWdksnY/ftryK23WeOazGDwGiGSE940NB21qbUb5JGhkRbo94cfddLZ3mfHhbJ3RviYwAebXeqDkacjpaxLw9sgI59StfauObamI2WOdtrfQBba9jbuGnbTttc0gbY8+TgtDPFK647vAAPIIHGlVTZwxzNd72gDR47vV3sF5VmYJKtqSCZna9riCF7RSbZqUz/LMsXf4rS3316rzbqztv5CewBy48/lKvFww0JfyVuGRRtga/bd69PNam1C5k3AWRH3CMbKmOjaUJxEf1EH7L1bo7qKzj8Wx1WdgB5c13uvGIna3yum6bsSOa5gcCzfI9lEr616Oz8eaxkTy5hlA04A+q6L0Xzv8N8rLi553yWWCEchnrtdplvipXic6Cq0GQDzPmFuVzemy2YYTqWVjD7OOlqMj1HVrs3V1ad3dpEZ3peR0M8/M5OexftfSCOwb0NKu1nWY+/YZQ7XsPPvzpTRtetc+cz3QugdD4O26d6leMZZjPmnNI1s+a7XIX5LDXz2T2uk50PdchloS+MyNO3KEaS0QA4N8gFrI4/OVx/IV+5JJD3B7TorGqR2LjvBrMJc86R0jYUbVqYSQU+0t1yCtx010vZu2wbDAyEHn7rf9I9HzU6xlslvivP6R7LvsfQEVfta3RU0s6a2DF06sTYKUTWk/qOvNbiCsWta0eg9FkVqYB5bz7rYsgAI4Rm36Y0NfTQdefus2OuSATwr7Iw4a0smOLhGVIjAi44Vmuwic9x0swx7A3tPl/r3ylEwR/SXu5O1k6Dmhw81EDdNO/JVNPOgOEF4jtjCuxEFkzSN7jI0gaHRnfmDwpa0tbKQOfDKo43GR+JPPDoal2whcr8LK8cPRmUZGNdmRtNP7TvC63BkC9M52+70P32uV+F0To+ks0+QnUuTtlv8A/ves/Q6bEua2+HPIDAD5rp2StkYHM/8A5rkYGd9yJo4BOl1r4hG1kTOO0JCsmmQ+aLf6i7WvXS1Bt3ZbucipdkjoI9xtd77WzrPDZYz5dp3tVdMQRMnuyOYRLPI4En1G1pGmpWMk4stXMWO+Lnhvmpj6zFyR7G1poms4Oh/hYNqz1Hjus8lBVsQTY4RseI3tJLe7fks+tjNeJNdLGul+pwYNBpRWU5tGSFtmzds1o5h3hhcB/hZUWUoMrM+Umi0XBjXOOnErnOo8bjRdoy3HWZGNrSMAZJ9IcSNDSyaNWNtOpHVxssxhaJmjY33D3RHSOZkJNmfw2sA33O9lEc1Z2msiZPrzIG9Lh8ZeMnUU8XU96euyV3bBXEhaGn139tKvI9RjBdLQ2YGhlq5bfXiDue4NcQCP25VV23jSTBpED44Tw0a8ldjbSc9rJYWPssPBcNnawBVmmrwPE0jA8CQ7PA1zpZMc0lgOd4bY2k7Y4j6nD32oL7WSCbUjNR92+PUq676XOdFAxvedbA5P5StMDXLpg7saeXLIrNfM4yyEdv8ASB7K4Ka9Z4kDpGxgfbzWciLWAiIgIiICIiAiIgIiICIiAhRCghERBKIiAiIgIiIIKIUQFasu7K8jvZpV1YeXlEWPmJ9W6Uo4yR+3v7vM8rV9V2Gx4iCF3/mP13LPk5JI9VpszUfkOoYqZ/R2A6B+y5q87+M+QfisHDUhYO2fgleE9mm9vvyV6v8AHW6G2qmMDiZmEl516BeVO8ztXiKCDvQ1oBVH6B5cqY+Xc8hV2HB+gG6AVFprDK1xAPHmVcZpjdM52sqiZhVmjYBpw8yscMaAAf175QSA2EhzhslRI8OJOtb8lL4wJh3Hfsol0ToILbRyCSq/D5JVUMDn/gK4Y/6R5e6iqGn6dHzVrWzvele12n7J2A6+yCqAdxO+dI/Tj2kaIVTSGchQ54LuQgqr1zdu1abBs2Hhi+mMVRZjcdXpQ/S2NgBC8N+GFH5/ris0gGOuDJ++l7/IT4rt+YSJyTvYAKq4HkqNjzUt5VZXW69FXv8Aurcf3UGVgcdlQXmSaeNnhTarMsx70PyrPe0tDnHQWRAXButDt/Kbq5ja9AZCSrfmx1uQdpG4ifX7Lr85jWZKp2O/4rOYzv1Xm16N4YJoCWyM8iPPa9B6VzMWYxkb2HtmZ9EjT57HqrPwWcBb7miCxEY5eWFrvt6rJtVBBWJ0A1p2sfqGm9ssV6rzJGfqb7rZ1W+PVDnf+Y36vsqOauVauQEjZgHPmO2k/wBBXD5iO1jJ3V5Z3uaHaDgSAR7L0m1jBEA9rufRcvl8dLkA6MD62Hu7vPlRHOUW+OyZ73EsaN7W26Ct/JdR2Ks3b8u9gcwu9CtG03sa6eDfiueOQ5uuFrYbNmSw6Z24pW8N0qPTuvb1Z2Phc18b+4kA6G15dlATW8aHTO0+vKx8hZltPax8zi5v3WusXmRv7HPcAPpcNcEoY22M6ihsVCbWmPjPh9oH6guMytJolmfG3Ub3FwBPltdPNjmxVi6vqPTPEOue4rXNx/zMRdOS54HcWjyRZcec5OEeJwPJa6Vwa0j2XUZmu1shcP074C5+esZdhoUdJWEx+hv3WbQtywS/S7jz49FgPHhkscDwsir5Eg7JCyro6WbkhniMgLx3enC6j+I4+elCx4EdhrnOklPqD5BecDviex55G1fbYkPmTr1VZsdBHmZKskjInfQ47AVTs05jTMXbe7kja5qd2tuB5PkrbHh/6zv7qmOlObfZc1rnkN9itu1pdC3Z+5XDs05w+ryOwuux8rp42MYC4kJGavWcKciA1oOncAhdl0t0pBjIGP8AD7pfPZ50tx09iQKcbpWgEDf3XQxta1wa0LO66csk6WIIDpvd7eyz4oQW68ldiYXEfTwsuOHt5PkrjlqwyDtaNK81hJV8MB/Cra3t9FUUwxgHlZUbP7K00bcNDSywQ0aRVBZoj0Cqe0tcNngqrWyNo763geyB2fQqHbYRxtXx+gBRKwlmwgqjf3jhWbknhUrUvfrUZA/KmIOaw93kVh595iw7gzze7SI0WJJa579+bdk+y0Xw/j7fh+6XuH83I3QPv/vD1sMjOaPSnUF1rtGrSdKD+FpvhiyRnwlwz5nHxJrFiTRH+qRx/wC6z9K6CkwuyVcD0OyF1jz3Tn0K5bFDvycTR5jldU/QeR6qwXIYw0F7+T3b2qMDPbbNbc6Dvj7j2uGhrlXGkhuiefPXppYj78XzUlNsj43OaD3tbsD91RmRQwV3vskfzpD9RJ3tWXWYHzOZLE+Qn9LW8K1XyFRzgwzvlk3rsLNDj12syDIvuCQUe3URDXb0P8oNfBhYWmaWcEMe/ubE49xH7raY0Bkkr42lnazTQViZC3DRY2e8/wAOu14Ye36tuPl5LNbMC/TR/u7vqDvVBjx1Ko3PPWZJaLyQ5wBIWps4JmdzVO1m4QyvScX14gdN79a2QF0kddzXkNIcx3O9qZqgc0mI9322qNfkYZMjDNEyQwxFzeR6AeyyoImMjhrxEmGFvaCfNyyXx1oIXveddo52fNZNFzZazJGM7Q4b0fMJgsMo+IHCQkQnyYCs5rA1gYOGgaCqRaD7eiIiAiIgIiICIiAiIgIiICIiAhRCghERBKIiAiIgIiIIKIUQFqepjrHa9S4BbZaDqwu8KBrTx3bKnLwc3UY51pgd+nasUGRR9YfOzu+lje0Ac+iy6x1bj/KsdGQCxlLgttB0XFnd+Vzi182/GqRz/iDaO9MHI/dcKRvldf8AFSR0vXeUbIC17JO0B3suTc1rYtA8qwsY7SWu/f0WQIHdneSST6Kyxh491tIYnPrdwPI9CqMNkz2xuYdMKuUImuhmkm9DwVE0Xm94A0syrD31IzIO1jufyorCbDvRO+AqSwCThZtk7cWxDgKy1h8yEFdNhc8sGh3DXKsS/S9zAeB5lXd9rSRwVR4Wtkne1FUO19ICOBa7Q9Vc7NAfZHcvCaYoaO3XcoDe4k+iuyKhvBKD0D4GwB/UF6UekbQD/devvOyXA+q8p+BpDcnkh/yN/wC69SBbvj7rUY5er2/byVxhWMHb0rxPa3aImWUgEepWJE0z6IPmdKJpfPRV/pes2z1LSh7j2Fxcf2G1w/02unHGF8VclH0tiY4gf98eBr914vW61ztCwZ22PEBOyx54Xe/+IUG51lAHl5ghj0QPLa8kyAHe1kQa8k8Aeaxwdpx2PoDorq+HqHHxTOAZOD2yR/8Adbx0tjB5eHI1O4wg90kYOgQvnnpypnMPlq1yJvhwPIL2k+i+hcNdjyNJzZ3d/e3QI8tr0SuPOZenqmPu1srjmz1nh0cjfT0KxY7Rx83hTn+W46aV550jkZun8+2nYJNGc6YT/SV6ZlabbdV3a0F/mCt7rCskSmSN2uD9JHsuWD31M26OaTtil/QT6lXauSLJPAe4iRg7T91l2RBkIe2xEO5o+lxHkU9Gk6vYw05n9rWWIW9wI8yFxmViY+SR0R5jia7tHuQuh6isPnrvkcxxLf5RPuAvP8rmHQ7jgLRLIO0n7Ikc++5LXtP7iDyeN8KyZ2XHv7voJG/3Vu0xjoJDv6vM/crCZJ2xtLw0bHG/RRqMqzeuRw+E2d7owOR6LAjzt6IvEc8jC5vb+yzGSxvPZIOA3XC1lkRuBcwEaJHKLMYlmZ07w+R5cPMk+quVnM7hwOTrSxbUjWnQ9lYqyEzxgb33An+6hW0zWDllrmeGLfYfq0uaZDLE5w7Xb3vWl9DYOhFJjT3sB729x49dLQ5TpmvNM4xsEbnN5P3RZyeRVtyR/UD7chXZXA9rQ3XdwvTafRkTI3l57+OBpZNPoiiwu8VjnE+W01deU26rxAO1u9cLHZQtCVoEZ0fQL3ObpmiIY2MgZ9PnsLLp4Cv3Athj+n7KavLp5vQ6Efbhjke5sJPJXYYHpmPH6BkMjh6kLr3VmkBoa0a4GlMVPsPITXNepx7IIGgFtoImfqcOViVIzrWlsYYHPAHkqJiGnLJ1scquOBrG8+ansAeD6IgGaHKgnR0sgx8AhUiLZ5VRMY5arsgA0qRpmlWT3IDhsAtQcO2nk1VNHG0E7HcpB3xtUbGufNVd7WhBHb9et7Wo6lk74oYxwAdlbk7c09p5K5rqCXvsRs3+hvKlVyXxMujHfC3O/Ue+9XkqxgeZcRwF0T6zMVicbi4OI68LXt9vqC5rrmCHJZ/o3pmcnxZ7ptStH/6rwn63++l02VlMt14Pk1ojH4bwoqvp1pflO4Dyadrp3NBefdaHpaF4L5B5H1W9J7XFwOyeVYi3dY/5WVgJ7pWFjdehVqya9OCrg4tuu22cv9W8eZV+Z0r+1kAYZN7Ad7q1RxdxmTkyl6RjrQb2Mb6NCo13T2Pljs2Zb0viub9DI/6fbe1b6kuilW/h2MELbLpGdzWu5IJ5/wALohC5jXiq1ve47O/LaxaeHpQ2hcswwyXufraPJEUWq7KsMQsQxPrkdzmvPnIPJXaN2e3jZZHVWxS9/hNZs/p91Veosu2q0080rooTtsDDwXb4JC2orOJL36aXHgBFRGWx12tcW+KW6IBVzvbCzthj73nyPp/dS2gw8yE93qPQrMYxrWgNaAB6LUFh1WOdjfmWB5HIB9CskDQ4RFRIREQEREBERAREQEREBERAREQEREBCiFBCIiCUREBERAREQQUQogLQdVcRxfc6W/Wh6saXVYyPRynLwc7A3UzftztXuhmMeZ59klsjwT+6xYA907Yx6rJ6EAgkmjB210j97XOUr5f+LrZG/EXIyv7Qxzjo6XFnsLuHbC9B+N1OeP4iWwCPDd9QC5Gm2sxkjLDNy740karCpscJQ4DYB8vdZbZ9d7HtIeTw0K6Y+yMGIdoW1oRitYikswh7nctKo1E1PsrnxTyfRVykmCCI8BoIWTkpvmrLw4do35BW5IWydnbvbVNMYzYndxAHDeNn1VEnA0fNbN7NRa1okrDliaX69UVjNi8tq85jW1ueXny+yqjAadu8lSwGSXtHkosYzvL8qnzG/ZXXAgEH0VoeaKiQks4VDR7q4TxpUEaQd78Fp/B6juQH/wAyMEfbzXrY4B99rwn4d3BT6yqknQm2w/24XupPZIWPHktxy5TtUx2ncq5I76NqyD9XKuP5j0iMOZ/bvXO1bxOWkw2UiueEZezfA/Cmf7LAsA6XPlNb41g9WWm9QZN1+aDw+4j6D9lo7lSk+yHw1WsOuToLa23NZvud5LS3bZaXBo8uNrGTi6bat2ZhGA17/p9AVsek8+2jaFSaQNje7bSfcrgc71Ayo90ZYXP1wuWtZKxakD2vId/Tz5LUlva59V9a364yNDvj+mw0Agev7LtOgM8MpjzWsO/3uv8AS4OPJ+68c+FnVDsviI/Fdu3EOx+/X0XTWpZsHma+Vp/TGTqVv+rfmukrjmdO66jpGvfZZhDQ1wJcdeq18mQ1IxrXAhzd8e63j7cGXxXEgdFO3YcPQ+y8vNmSj1A+lIHRyxu21zuRpaR1fUscLq1aaAkN3qRu/M6XkPVmOlZGL9c/yu8g8+S9Y6hkElUtgO3CIO49SvOepLRFZtWSMgSnQPpsJUjjpGPYzukGm+n3WtnnDpuwkHfO1sczkI+2INH1tBBB8lzMjtvdID9RO1G4304jEALSQ4D39Vo/mS1zg9xVtlqQ7DnHSxrU31bHIUWRTal2/wA1mYtzTMzjeyteNyEaHC3OGoSTWYxEPVGnufSUnjYuDfBLRsLaTVPMgDa1vSURrV4WPHIGl1hi72l2vNHOtL8uS3y49VXBX7RvWytmItjWlX4JaOAoNeIg7zbyq2QkA6Hms1kR3yFdY3tdrSQYUFU8d2t7WQYPq1pZjGb9Fe8MBq0jDjiDSFsYGaZsKzHF3OCyox28Iik8v0Ryoc3nlXwBvhQWoIY7jhVMafVUs89K4SAEFtwHmVDXBx44VGyXFS2Mg7QXudfZVDgI39OiqT+rhAeASOFTJH3+XCre7TfJOT5Iqh7/AAI+fPeguWkY6xlzG87JfolbTOTuY+Nm9OI2CueyWRjw3T2Uy1p7WeFG5sL3Hzk1wpRqcFNFnfipmMq6Fw/g9SOpBIfLxGuf3a/YhbuRxd4sj/6iSsbpqhPh+k60dwh1y7I63I8eZ8T6tf5Wd4JMYhZy+Q+qit/g4/Bxh+53tZIH0DQPKlpEdOKJrdHQBV5zQ0N9FWVELooZi50gY5rduc7yarkU8NqJ0sdkPjBI20+q0/V110OPqUaUYms3rDYTofpafM7+y3kFCOnXhqsA+lo7j91RkQR6a14P0u8z9lfhqQ7PY1xA8iT5qw14ijdGN7dwArkdad0bG9/hMB5b5kqxV6UgD+RGHODtbA8vulam5kr5JpXPe4+W/pH4CyIo2xDtZ5eqrBBJ16LWBr09FKIgIiIJREQEREBERAREQEREBERAREQEREBCiFBCIiCUREBERAREQQUQogLUdTf/ANPB/wCYLbrWdRNLsZJrzHKlHJsIE0ejyTpWOkZx/ELsLTqRrt8/cqr9PY8+iwMS7w+qXxhrWiQAkk8+65z0eYfHuhFD17Td27MkJLiT68Lz+pjgbrpC0do9/Venf+ITF2ZepMdfimc6uG9pH3XAt+l5icT4iN/TFt0BI54I03z4U2Hv/lMaN9oACzTFI5mnEgBDCQfLjXmiNXJWYw9zgC93qqZGaZ3N4/ZZ/hOJ2eWhW52ggABRWqndJIW74G1S1rBK/u9PJZdlpDmjXCsywtLho/dBhyRuc08a2qYtxvDteSyDvz/ZW3j3RYsSDu2VY7efZZBCsvB2ireuVEjdjyVbx2gFR3bCCiGd9OzBaj84nh2/ZfRlO0y/jatyFwc2VgIIXzo5vcCw/pd5r1L4PZZ1mhNiZnjxK/Me/wDStRjl+vQO7f491dB+jSx2v4HGirkZ35qsLMw5IK187eCdbWzmb9Sw5W7aVixqOdt19OErwS3ax85TEtcTQM0wjZI9Fv8AtAd2v2Wu9NKtlZra8kTSXMd6H0Xm5yu/DlHjHUeOE474mgSNHJ91zIhEPDge71Xq+ew8kLnStBdEOeBtcPkqRlmBDdbPstcOf1W7NXegM0/DdRwEE+BKe143/lfS9bsyeMMUmj9P0lfMM2LfC1rINvmP6de6+kPhzTtVenqjsgT3mPjuK6zm5f6cftHROUlo5Kzh7LneG7ckPd6a8gs34h0nTVamTj7RLFqKXXmfytZna0kVqtkIuJYXhx0fMb8ltZMlDeqXInMD/HjMoa70cuvscfvXPVcxJFNSNoh0U7/Ce8n9LQCVwnVPUlMMjxdFz5GwTySGYjXmTwtX1JkrVeUta4sYHaA35FclNK52ySdk737prU4z1v4HxZGbsJPaAXf2WJagDHNc0aDhvt9lh05HMBdG8g+SiWaUy6e4u0NI1imX6XaCu1aLrW/p0AlWB1iQDtPJXe4fBdsTXtG9jy0pbjfHjeTjq+BsPtNbE0lvqV6J0xhzXcwmIbHqt7gsK5shfIzTdLomUooiQ0LO66X48ZijHtc2QcBdRS25vIWjqw/VvS31DgBWPLfVfg6dwroiGtlXiCqdEKosFnPCuR1w/knR9ldY33V+KPuOwUFltdwPlsK8KpI5GllNbwrwI0FcGI2uGDax9HxDpZ8/lrawxw4ogeOVTsjlVFykAFoQQB6hR2nekc7R4VPeUU1pxVYPCt+eyqQ474RF5ztN8lbhdtx9VWSDHyFQwaOwgrk35+np91PiN7DvzA2UEfiHnzPktX1BbdVY2GFwEjuXaRWovzPu3Gt1onho9lz2Vji6m6orYKGVklHFgWb0ZbsPkB4H+drYZzKHBYO1fbXNm9KPDrQjzc53AI/dZnQmDlw3TYuXucxkdS2nOGnd5HI/bSysZkndattDeIoxpv2AWTSr+Jc8Unfh+QV2GEQVnO0O5xKysXXdFA8uaC5x2qjNA+ruOuFW1ve15lb9JGuPVVwQlziHghZUVdlcF80gLfMBVGNTaI2Mhgi7Gjy2P+6zo6YMn1Sl48yPdVsebLdt2yPy8uSsiKNkbQ2NoAHKsipbG1jdNAAU6G1UfJQtAiIgIiICIiCUREBERAREQEREBERAREQEREBERAQohQQiIglERAREQEREEFEKICx77PEpzN1vbSshQQCCD5JR59YH0OHloLUQubLnWOLe1wAHd68BdBlIhHbmjA42VzGY7qj4bbD+l2iFy8o1fxkaZemqcrfqlEoB+w2vNKtQMmMrgHu9yvW+qibvTNhzWd3Ac0aXl1P6o2evcEvrU8WCBIXca37KyYncEeXktiISHnXltWZWO27XoorXuZwB5bWJJHrY2tpI36dEcrDfGAeUGulYXRlv+ViSMIj17eq2k4AGgsRzAAdqK14G/NWnjZIWW6MF308Ky4clBivbobCtHkc+aynt0ByrBHa7Z8lVWHNBYd72rRHkNK+/klW9IKCOWhZ3T+Slw+erW4nEMLwJAPVu+Vgngg+igtDwWtdoqxK+jnSxWWxWa53FMzvH2VURP7rgvhbnBYqfwm3JuWMajJPmPZd4ONsPBZxv3WnKrz+ViyMHKyWnapkZvkKWLGtkiJcedbVuJ7o3hrjoeW1nSMDjscLFmiBJ2Nrny463LjqemBhXNliyETpBI3t2RsBcT1d0nZnyr29OY8z1z+nY3pZDHTw68LbWj0K3WP6wvY1hZFFG5p89jlcrws8dJya/ob4aW2WhdzcQiH+h3outzWQgjvNp1XDti+kaXM5DrDK2NuBe1v8ApBVnD+LY77Njh7j6q8ONtZ5X7dQ5jbVZ8bhsEea4zITPx1uN2yI+/R/C6+hJpxG/stP1dj++uXNG9DYXocnmnXFESwTTjRB29uvuuEgjdI8doLvsF6rWrnIRiLtLiSWkH0C5Wfp+bH5MxuaQ0u23Xqjpwm9NDFTf2EkEc+QW7w2FdbePEa7k+y7TF9OxmrGZIS6Q8rq8Th69dzndvPsfRZtdeEk/9Obw/S7AWkx8Bdjj8ayBoHaOPdZ8TWgENHCyGMB/KmHP/beotMiI2G+RV5kHqVlQx8rJEIPmtY89usKFmnea2lNgBHKsGAA7CzKbTsKpWcGgBUObsq+AO1QWqosOjOuAr0DdemlUFcaOEVVrhVjgbVLQqjyEFuccAhYvkeVmO5CxZG7cgo9U3oaUnXkrTzsog/3VJdxpSDxpQdEoDCS06CuMIA5HKiIfsrwYCirR0RoevKlut69ApkbvXb5q/HExoL5DpoG+URiXZxTqOmPn5MH3XJ2Zoq8cuTyz+yszkucePsAs3OZGIxvnvSthx8Z4O9Fx9lo6WJm6tswX75kq4Ku4OgquOjORohx0dEbHqoq10rTudQZCTqLJt8OsJNUax5DYyBz+dja7qQmR3e/biFMrmv4hYI42/pa0aAVDzpg55PokgtmN1iZrBwPPa3VOuHO24gMA5JVmhV8OAyyuDAfIu9VtKZLoy18RYPv6qyCw6OWSYtYPpHqVehpMaNykvJ9D5LL8vwpC1gNaAAANAeQUoioFQpKhAREQEREBERBKIiAiIgIiICIiAiIgIiICIiAiIgIUQoIREQSiIgIiICIiCCiFEBERByfUjGx5AOPAe0c/dcL1Eyw57mDZhI2Dpel9VVxYoA65a7zXA9RQ2WYySSm4GWNpOj68eS58hxFeXNWYWtjHiVGtcDyFzeNkHeYmj/hcFaZ3UFypj5Sy06u5zj3Rt5535K30blpLk1lrgO8vBP4T+rHWOa07cPUrGkA7yCPNZY2N7A+yszgce6y0wpWaBWJOwnloWxkYdfdYhbpxDkGvlYC3kcrFlb9WvRZ822u0RwsWZun70oNc9g7na81acz6TvzWTNG7YLP3Vl7edlFYT2drfdWXNJb58LKfskgeSsyN0OCisV32VoDZKyXAeRHKskhpI0qLRHJAVA207VwjnapcSgro3J8bkoL1Z/a+M717r3rp3L18/i4rUJHi6HeN+RXz+fTjzW96Lz8vT+YY97iach1K30/K1Kzymvdmkb1vlXBzx5lWK1iC7C2alI2SNw3wfJXd8ccfdVzQ9myrUkZWQ37qS0OUsWNc+I7+ysPhHlpbR8fsqBDzohZxdattTvdrnS3NaMRwBvqFAiDfyqwNDlakxLdXqru2QFbK/D81U36gf4WoJ7XDS3ePcJYJGE/07QcPiohTzFhrm6Dhx/dbmzjoZxG7sBJO9lU5CANuNkA+21tqzA6FpUsb48vitQ1WRsboa0smKL1aFebESPssmKLQUheWogi48llRR6PkkbNLJjZyqyMZ9QWQ1h0PZUBh2sljToKsqRGrkI0/hXQzYUFva7hVWR+Udv0VTRscqSAEFLW+pV0eStq4w7aiKgONqVGkLtcIqh53vSsyyNY/Xok8oYDtaqSd7ySORtBsXlp5HmrGtnYV6FgdWa4+elZk2HaaiA2CSjRt2z5LJAaYgD5qXMAj4QWn8N21VxD6dk8qAD9I1tZHhthZ3y8eyCIgxhMkug0Df5XP5jMOsl0NfZAP/AAwOT+6zbrzdHa8lsQ40PVWq8MVYB0TP5nv9kVpYsAMlI12a2K0Z7mRA+v3XRPlMrGRMa1scfDdDQ0rbnDsJefp+6tNkL9RRtJefLSkguvcAf+g91scTjXkmaxrnloPoq8XiRHqa19T/AOlvst1wAOOFqQWhWaZA+T6nAaHt/ZXtABShWhCIiCUREAqFJUICIiAiIgIiIJREQEREBERAREQEREBERAREQEREBCiFBCIiCUREBERAREQQUQogJ5oiCxch8arLH/qGguBlAcySF7fPbfwvRPwuSztQw5IvDf5Txv8AdZ5eD5X6ywwx3UViiXk+MTIz8LT9MPNHP9pd2sPD16N8X7sdXqjD2ZKmmNLmSPLeNEhcH1JEyl1JHbrPifWtHYaPQ8BZnjTvWyeK3vHAHkj29+iVhY2YS1vP6wdED0WZpwCyq3LvuHKsTs24OAWV5+atOBPCIwZ+R9QWJO0OI0FsbDC5vl5LEkAI16orWyt0Na0sSRnstjKzY81iSNIUGveOCFjyN0FnPHPCxXj6uQi6xnemgrT2jzKyZBs8BWXtRWORz91bIKvuboq24bVFk+RHoUOiwtI2PLSrPCgg68kG86P6on6buNH/ABKch09h8gvbcTerZagLFKRr2HkgL50IBjc1wJC2XT2ev4CyJaUpEY5dCT+oKys3jr6C449/ZVDh3t9lznTPV+Lz8AAlbXs//q3HR2ukLHDRa0kf6lpzA77KQd+io7tFVb2fJBUOFBKglR3a5QRskErYYubRA39itTJJrbR6q/jJgJ+z1A2osbLIVA4ghvB9FexsX8oBw5BWVPyxv4VVNo2QEF1jA3hX4m8+XCp8M9wWVAzlRVLWnu8lkxN5Ts0Vci/UqVca3Xmrob6+igj2VTeNgqolo42oGydkJGTv7K4ByiLreQnaT56VQ7QOSqHvjYPqkZ/dBOh9lUCe1W2uY4bY5p/dXgNoqCdDz5USfS3ZVM7wwa9Vg5GZwg2CgxMnY500qIdto97vU8LWMY+e0zZ42ttKDJLHE39DPNQZ7AW1Y/wrQG38BX3yd2mjy9EbGWjYVRAG3Aeg91fjidKSGjYVdem+U9ztBv8A1V6++xViDaMAe4/ZXFWpRHUi7pHfX6ABauxPLZO5nfQPIFUmrlbUnc+Nrf8A1eirdgb0xAnsRBn/AC72oLL5GsZtxHaPurYtMIPgh0j/AG0tvW6crxgeLLJIfYnhbWClWhA8KFjdeoCZRzWPoWchv5uHwY/b3XR1KUFVoEUYBA1v1WUVC1ICkKFKoIUQoIREQSiIgFQpKhAREQEREBERBKIiAiIgIiICIiAiIgIiICIiAiIgIUQoIREQSiIgIiICIiCCiFEBERAWr6hg8Wg5wP1R8gD1W0VJAcCNDR4Uo8g6oo0r2Kns5Oo2xDFG4geo4XknQNSv1b0Fmo69B78rjbjZGbI7hGwBxH78he9dS4YTVruOlkMbbDSGOC8U+CcLehfivewWYk7Ir0b/AAy7ye7bQB9+CsT3FdpkKWGy/wAMoc907XDrMYa6fsP6SB9QP3XGQSieGN7Dtrhz9ivVML0zlumes8t2RMl6YykpLoe7iPYAJA/ZcD1ZhndN9VWaEbAKko8WHR4DSTwpyixqt9zjz5JIzXI2oALT3aVwEnz8lFYzgPUrFkjGzpZ87ARwsRzdFBgSsPOlhytIC2ssewsGVugfVQa6Qb8gsd4+yz3jfosaRpIRWC4c+SskB2wswjt9FjOGydBBjOb2nXmrLhorJcNDnzVpzdpFiw8aJVPcrpHmFRrnyVFB2qSD58Kt4VGvugtkFsjTG8xyDkFp1pdDh+tM7h3gOsGzEPJsn1LQOJ0OQfvpU/1b7lWXreH+KeNma1uYrPhfv9TNdq6mr1Jg7jA+tkoNHkNL+V89E8kFodx7KgRsLuC5v4OlZUvGPpT5+i5gcL8H/wBywLmfxVYOMt6AAevcvnotIA1JJ/8AcUdEx3mXuP3cVUx6/lviJiYGubSD55tcey13Q3U1zLdV9k4LInR7a3frteasDdgtHboeq6Hoay6Hq3HuaNBzuwnazWpH01FuSo13r5K9VbqQH34WNj37pDfoSVmQDcgA/KrDaNYO0FUN2Hq+wHtRzASDpFVa2q4mguRo2FVGNIlXCBtQ7e+PJUu1tSw6P2VRfjaC1RNBPMwis079yqbMgr1zIfZcjH8S8Zj83/Dpy6WZw3pnPb+UVXlcJ1hLI75OzCxh9D5hcx1Fic9ioRNYugTn+nk/uvS7HWmNZAx0LjJPIdNj9d/dYGFxzs5clyWZaSGnUUJOgPufdTF1yPThzLMcbl6QtYwdwJHDgsfF/FWteyT6NUOFhmw4P8v2Xp+QcyaCWnBEC0DXcBwP2Xlmf+HH8WmfdxbBDkYQf5jfpDx+EssJl9dzick7Jk+J2hzRvhY+QuF8pYD5HWl57gL96rurd7oZ2fQ5+/1OXU40A2PFmeXhvJ+6nyLG/q6rNLjovPoVm043bL3HlyxqhZcIlYw9o45W/pVO8BxbpoWkW4YT27IBO/ZbKKq0EOPJ9lkNjY3yaApK1IAGuAiIqCIiCUREAqFJUIClQpQEKIUEIiIJREQCoUlQgIiICIiAiIglERAREQEREBERAREQEREBERAREQEKIUEIiIJREQEREBERBBRCiAiIgKNf2UqPVBpOqabrFISwjb4zvQ8yF4t8ZcE63jKfUGLY85GhI2X6B9XaDsj/AAvoRwDmkEcHzXGZTGtE1ms/Yhla4b17hY5T7WNZT6nk6k+GEeX6ekbZsRQgytPG3AfUPytP1JD/ALc9CU8vjKwOTpb72H9XA0Wri/hRlbXw++INjo/LgnG5KUyU3dvGz5glepdP2KXT3UdyjI2SuLcpdG0t0xxJ89pe4PFo3B7XgAh7eHhw0QfUaUN3yuz+KXSj8JljmKOvkLR/msb/AEu8yf32uOJ7mNLPVc8zppQ0d3mrczAfJXyND7qjlWDDlb2s8liP12kBbJ7e7hYMjDHJz5IMCRu/TlYkjSPJbKVnJKw5GE70hrCeDrlWHt48lmPbrz81jyOI8goLDvD8AtLPqHqsXTd/hZhedHuaNFY0rAX7Z6qqxZOSSPVWz5fdXiO1xBVDm+oCKskkKh2iOVfczbdlWiAPPyRFkjShXHa2qS1VFHmeULeVV27KnWjygpDSh1v7qp5PbwqGEfuiJ0d8eS2GFn+Vy9CUeYmatee4+Suxt/mwlxI7Xg7RY+rMK4yUPf6Q5bmqB4o40tD0sQaEPJ06Jv8A0W+qaLhz5FVz+25DfoCRt5O1VH5BVhvPmqqHDSlgGvupI36qQ3lBjubt6yoGaO9642U7QViZeyK9Fx8jrzCDzv4t9VnF48w1nkWpvoiYOTz6rzroPpuzJk23rTS6Tt24yHkkrsL+CGWzrL1l73uHDWnyAW5yDmUKRjhYPFA4JUWlaSnjsvUlleySSN+zEXfZdBbzpuvaIWmCFv8AS3yK8tuYCV/i5Nk8j7RGw302t7gss+an4c/0yt4P3U0x6lhMzWjqSeNprvtySszBzPlZYsbHa930tJ12rjcFX+f8QxlrXNIGyV12Mw7myl0sxLGn08nLUqOU6g6RfebPdY/s7Xlw0PMrS9PR2nMIeC7tdolehZzJdxOOogdx4c4eQCxaVNlaINjaAW8uJ9VLF1t8FWa+qx7hrXot2AANBa7Cg+A53oTwtitxBQVKgqgiIgIiIJREQCoUlQgKVClAQohQQiIglERAKhSVCAiIgIiICIiCUREBERAREQEREBERAREQEREBERAQohQQiIglERAREQEREEFEKICIiAiIgLXZmr49fubouj5WxVOuNDWvXaDwT40dMWMvhGZTE+IzL493ixPjOnaHmAu8+F+eq9a9F0rtyvFLkK4MckbwHPY9vG/ttdBlahgmdKQ11eTgjX6fyvFrJufDP4itydCCSbAZZwbZYw8tdydjfHquflX17BVtVuqKV/EZOt4T27Y6N3HHoQvC+osPY6czMuMsklrjuvJ/qb+V9AUpmZSxVvY8MEOu579cuBHktV8SOmIOpsO8Rhvz9b64n75brkj99Jym9nG508IjYRsOPlxygadHSqge50LnTMLJWHtc0+hUsBcOPVYjTHkOm+WliydsjSCT3LNdwdHzVl0Wj3ABUa57S0a5+6xpAAOFs3APLgdbKwrEH0dwPCDAe3bSQsWRpCz3xgM4csaZoAG3BBhOb6eRVh7dHkrOe1vn5lYkhBOtIMd7QrbhscLJfrt0sc8FBZePdWnDuOtLKJ2fLhUdoDtjlGvWM6MjzUFpWUWb81Q+PXkkrLHc3Td6UMYXDyWW9hdGOFSxpZpXRjGPYI2kUHr5lZA8ye1TG7z40UENg2OQqxGGhg93aVbZONFXoQ2SxWbrkytH+UI+j+lt/wAPgB9IW/8ARdJT0ZBoLQYCMMpsG/KNq6CgPrGlWL63LeGq33bfv2VRDi3hWG7a47VIym7PJV0c+SsxybGleYCgqc4Rxlx9FyeetmxL2NP0ey6LI9xruDd70uYo0HyXZDO1waedlSkY8MbK8Zkk42OFocg2S1aa5x+kei3GffuWOFnkwcrXtIa3Y5JOt+yxa1IxJAGepa0+YWv/AIbbhPzFeMSVyf1BbHP15f4FYkieBL2nsP3XHdIfFCapROKuUvHlDnAdg580hjrauXlotcI3iOUj9J9V3HSmYyt2iIXRNawD9ZBC5rpPBjKzx3LcJa3fd2uC9FLYasPhQgNA4GluazWPXqtgY7ZaZHnbirvhulc1kfmeFQzudy714Glt8bXLGmRwIceBtaGXUhEELWDyCvKPUKVoFBUqCgIiICIiCUREAqFJUIClQpQEKIUEIiIJREQCoUlQgIiICIiAiIglERAREQEREBERAREQEREBERAREQEKIUEIiIJREQEREBERBBRCiAiIgIiICa8/uiILVqBlmB0T/IhcF1DhhcjdSsgdwO4XOG+V6GtdmMay7AS36Z28tcs8po8n6Sz13p7rN2Myv8mhYaGMkf8ApBHlr8rvIn2cE3IWr27Vd5DmyA6415aXKdeYB2ZxksTHiO5ENtcfUhWejOte7H18L1LVMb2NMT5dl3d7bWZfqq5fqan48s2UoV3/AC87u5zB/QVzXY5gEo3v2Xpks8dG9eq13iXGzO23fpwuNzFCSg4SxxvkrPPD9eSziytMw9/cXfr89Kl2i07VTwzu+oFpPqsc2Y45Sw7I/CKtviYPqa479Vjvc1vaCCWeqy5Nu5j+kFY8ssjGFgALT6oMGwyMyuLD9J5WJK3v2B6LMkG2/V5rBmJ3phQYpa5nptWZB3+Y0svwiG9xcrD3Bx17IMORmvVWS31WVKAPUrHPn9kFvtU60NKpx9kB9TrSC05R3D1VwkAcqjTSeSgh5JHBVHIadnlJSG8AhUdwA5PKsFTSdFRtUGQAK136O9ojJ7wOD5rP6fYJ87QjHO5m7Wpb9T9+a6j4c1xZ6pYS06iZ3/5SkfQeJ+mDRHppb3HyAkbC1cLA2CNo8ytrj4xvZVZbdpBarfYe5VtHaQrvZvlVERtHsrvAGlAZryVTAS/R8vdBXHFsbcNhWLsYEMhYznXGlsI2b4btZTImhunAFXFeV3qc3iOe5p2T7KxWovkeGuaRsr1S1RhnjLSxoPodLnZ6vyz3NLACOAVm8V1zlmgGwCJw7gfRYeL6VoNsmc14/E899oXSyRbPd5nSyKsYaPL6lMTV+ANrwtZGAOPZSPqdvzPspl2XN7fP2Wzx1EBolmH1+y0Jo0+BJIPuAtlrhNcBFqQApUBSqCgqVBQEREBERBKIiAVCkqEBSoUoCFEKCEREEoiIBUKSoQEREBERAREQSiIgIiICIiAiIgIiICIiAiIgIiICFEKCEREEoiICIiAiIggohRAREQEREBERBIQoEQajM4ptqMvhHbL9vVea9T4WWFk0taHxJRy8D7L2A70VqctjhIwyRDThy4D1WOXEeN4a5DeqtD2lrx+th8wVtnHxIfk3veYCPpBHAVXUGHFIzXqLC1xO3sI5P4Wvq3TYqsc5vhv1rXqFi/iuVylOWrZfBKC5hPD1hmNnZ2EA68iu/EMVqq6GwGv2OHeoK4/M4i1jJiSO6I8tIUXWpm+iM7C17pAQeNq9NOXAnYO/NYriewkDSqrEjjKDvjSxH/TsDlZErj2EvI/ZYBlaN8oKJA4cbWNLN2kjXKixZ3yzj8rGEvfsuVwVOk7gFZeSFbL9PPPCOds+aYKy4BqpdJ9J2rLnEeqoc4lvKYLniHXJUF2/Iqw5ynkD7JiauOIHO1Zc8k+fCpeSSqdbPmrhqS7ag8BA3SrHbrlBEZLRwfJepfBjHSSSW78jfpd/LYV5dEx8r44YxuRxDR99r6V+H2GGMwdaEgBwYHO/9XqpT6dTC12mArdY9mm8+fmtXA0vOvULd04y1nlsrTLIDe53CvtaR+FTG3R2QshjCfPyTBS0d5WQ2AHWlXHX9RwsprQ3yWsFMTOwfdVoioKxbqx2WakHPoVfQD7oOYu1n13EFpLPRVUq80o01pA910rmtd+oA/lAAB9IAWcGBTx7Yj3SfUVn+nCAItAiIgBSoClAUFSoKAiIgIiIJREQCoUlQgKVClAQohQQiIglERAKhSVCAiIgIiICIiCUREBERAREQEREBERAREQEREBERAQohQQiIglERAREQEREEFEKICIiAiIgIiIJCIEQD5KFKhBp8zjfGYZYQO/1aRwQvNeocNLE03qBGo3fzGe4XsS0+Xxola6SFo2f1NH9SzeI8cx9xl0ExOIc06LfUFbWC0Hbr22dxPHI2rvUHTgfJ8xjGeDaadujHHctRXumewGWo/Cts4IPquasDqbpN5rzWMWGveOTEByfwvNLFmxA/wAG1XfFJ5lrl7hBZlaA2Q6csHqTpfG9TUy2y75e0P0yN80NeGT2z3EE737eixXWW6Ogtv1Z0jlumpW/NRulqu/RKwb4+653x4g3TNOJV1R7y8k+QViSbW2o6U64HKtlzXE7GiFSo5U755VBdr8Ko6I36oaO5Ub45TkKD5bQUkDu0FL3aGlS0gHetqXnuPA0qikH3UOIH5R2wrZ5KCpxPCkH3KDlu9cBZmJxk2YyUNOq1x73DbwPIeqDrPhX0+7LZZl+Zv8Au0J+kn1d6L6GrscyMNHC0fSmDr4bFw1oGABjdH7n3XRxN2WjfKyVm0ou7Xut5AztbpYmPg7dbW7r1d8u49lplTDXLhtZ0cYaPJVNaGjQUrUVBRSVCoIiICkKFIQEREEIiICIiAFKgKUBQVKgoCIiAiIglERAKhSVCApUKUBCiFBCIiCUREAqFJUICIiAiIgIiIJREQEREBERAREQEREBERAREQEREBCiFBCIiCUREBERAREQQUQogIiICIiAiIgkIgRAUKVCAiIg1uSxkVod7AGTDkOC4bO4GK293ikxWGeTgPMr0vzWNbpw2oy2Ro36H2Wbx0eKytu0HeDk4wYj+iQHelk+NLAA6TudEf0HXmu3zOGLoHsss8WInh2uVobVJ3yvgwfWIxwD5rGYrFZkKtuuILjWvY4dpDl5t118KAa0mS6YIPcS51ff/RdjLVsGuZ56b4g12u4NKwoslfqXWNrSu8J3nsqEeE2sTfpH/fqkkI9S4FYQLe46dv7FfS1+nVyrO3Idj2nzO+V5jnOisVLdkFCV0bweOdhNax5qA4+etJ5HyXXWOgMjGXOht15OeGd3K0GSxORx0jmW6jgAddzRtXUxg75VLvJW3S6cQWOaR7jSgyNHmdKwS4aHCiPfO1HjNb6bVDpgfcKoreSVToa81QZS46a0krY4TA5DN2mxVInEE6J9kMY1CnZylllWkx0kznaJA8l9D/D7pCHBUGEsBsPG3vPv9lV0J0bX6dpMDWB07+XucOR+F2kYDW69B6rPpb9RMTBpo3yVtKFcOdrWysWnC6aQBrefIaXYYugIIwZOXaWpEV0aoYwF4WcEQLUEoiKgVCkqEBERAUhQpCAiIghERAREQApUBSgKCpUFAREQEREEoiIBUKSoQFKhSgIUQoIREQSiIgFQpKhAREQEREBERBKIiAiIgIiICIiAiIgIiICIiAiIgIUQoIREQSiIgIiICIiCCiFEBERAREQEREEhECIChSoQEREBNcoiCHNDgQ4bBWnvYWOXukr/AMt55+n1W5RTBw2Rp2hEYJ+/wyN8+S5yx054m3QvaX+gC9akjbI3te0EH3Wov4OKUd0BMbx7HhZvFdeB53ozqcumnrOPb6Br/MLn2usYxjI8rFJDIP1OcPNfQNqhkKoIfuRn25WmyFOpeY6LJ1Wuj9e4LGNTk8WjyUL5w6GbyPm08rIymcqQPjLtTuJ05r+V2uT+GvT2Qd4lOWWq/wBmPK0Vn4M1nNLor05Pu520Nlctmsvh8lAWvpRxODdfS0crjr0dJx1GxoHpwvTj8HnM+tt1xA4O1W34SM8VrzM8s9eU1Mjx59WLy3pZNTAy2yBFG9++BoL22r8LcVAA6R8jnf8AMdrpcX01jKLGtig2R6q7Tp5BgPhvanex1twiYPT+or1zpzp6viImMgjDdeZ1yV0HgMY1rYwO1Vtje46Y0n8KYmrBbxtvmsunTltOa2Nh581s8Zg5ZXCScBrPb1XT1asVZnbE0ALcmoxMVjWUowXAOkP+Fsv+qItSYCBEColERAKhSVCAiIgKQoUhAREQQiIgIiIAUqApQFBUqCgIiICIiCUREAqFJUIClQpQEKIUEIiIJREQCoUlQgIiICIiAiIglERAREQEREBERAREQEREBERAREQEKIUEIiIJREQEREBERBBRCiAiIgIiICIiCQihEEqERARFIQQilEEIpKhAQoiCD91jz0a8/wDxImn9lkog0VjpyvI7cTiwegAWLJg7AbphBH5XT+qa5UwcbLhLmzpnHt3KyzE3QDuM/hdwinxHGMw915/4Y19yr0fTtgu28taD911qJ8Roq/TtdujI5z/8LbV6kNduoowFfUhXBHoilFRCKSoQECIglFCIJKhSEQQilCghSFCIJRQiAiIgIpRBAUooQSoKIgIiICIpCAiIgFQpKhAUqFIQEKIghFJUIJRQg80ElQpRBCKVCAiIgIiIJRQiCUUIglECICIiAiIgIiICIiAiIgIURBCKUQEREBERAREQQUQog//Z;" vertex="1" parent="1">
          <mxGeometry x="163" y="190.38" width="502" height="400.62" as="geometry" />
        </mxCell>
        <mxCell id="3NOGvvGHzMsO75DAE7qi-3" value="&lt;font style=&quot;font-size: 44px;&quot;&gt;Gniazdo BNC&lt;/font&gt;" style="text;html=1;align=center;verticalAlign=middle;whiteSpace=wrap;rounded=0;" vertex="1" parent="1">
          <mxGeometry x="264" y="630" width="300" height="30" as="geometry" />
        </mxCell>
        <mxCell id="3NOGvvGHzMsO75DAE7qi-4" value="&lt;font style=&quot;font-size: 44px;&quot;&gt;Wtyk BNC&lt;/font&gt;" style="text;html=1;align=center;verticalAlign=middle;whiteSpace=wrap;rounded=0;" vertex="1" parent="1">
          <mxGeometry x="-455" y="630" width="220" height="30" as="geometry" />
        </mxCell>
      </root>
    </mxGraphModel>
  </diagram>
</mxfile>
